<?xml version="1.0" standalone="no"?>
<!DOCTYPE svg PUBLIC "-//W3C//DTD SVG 20010904//EN"
 "http://www.w3.org/TR/2001/REC-SVG-20010904/DTD/svg10.dtd">
<svg version="1.0" xmlns="http://www.w3.org/2000/svg"
 width="960.000000pt" height="542.000000pt" viewBox="0 0 960.000000 542.000000"
 preserveAspectRatio="xMidYMid meet">

<g transform="translate(0.000000,542.000000) scale(0.100000,-0.100000)"
fill="#000000" stroke="none">
<path d="M2587 5073 c-4 -3 -7 -82 -7 -175 l0 -168 30 0 30 0 0 65 0 65 40 0
c47 0 95 22 110 49 5 11 10 39 10 64 0 50 -26 81 -81 97 -39 11 -122 13 -132
3z m141 -59 c43 -30 22 -93 -36 -107 -43 -10 -52 1 -52 64 l0 59 33 0 c18 0
43 -7 55 -16z"/>
<path d="M2857 5073 c-4 -3 -7 -82 -7 -175 l0 -168 30 0 30 0 0 75 c0 67 2 75
19 75 13 0 34 -24 66 -75 42 -66 51 -75 77 -75 29 0 30 1 16 23 -9 12 -30 46
-48 76 -33 53 -33 54 -13 70 63 49 52 145 -18 170 -35 12 -142 15 -152 4z
m134 -53 c13 -7 19 -21 19 -45 0 -39 -20 -55 -69 -55 -31 0 -31 0 -31 55 0 55
0 55 31 55 17 0 39 -5 50 -10z"/>
<path d="M3179 5053 c-17 -15 -38 -42 -45 -60 -20 -46 -18 -150 4 -193 52
-103 185 -104 246 -1 24 42 26 150 3 203 -33 78 -144 105 -208 51z m126 -29
c27 -11 45 -60 45 -121 0 -97 -50 -151 -119 -127 -67 23 -84 180 -26 237 16
17 69 22 100 11z"/>
<path d="M3535 5066 c-42 -18 -83 -69 -91 -112 -24 -129 41 -229 149 -229 29
0 67 6 85 14 l32 13 0 79 0 79 -50 0 c-43 0 -50 -3 -50 -20 0 -15 7 -20 25
-20 23 0 25 -4 25 -44 0 -48 -9 -56 -65 -56 -98 0 -141 175 -58 239 28 23 91
28 123 11 27 -14 47 21 24 41 -22 18 -114 22 -149 5z"/>
<path d="M3788 5074 c-5 -4 -8 -83 -8 -176 l0 -168 25 0 c23 0 24 3 27 72 2
58 6 73 19 76 21 4 35 -11 82 -87 l37 -61 55 0 c53 0 55 1 70 35 l14 36 63 -3
c61 -3 63 -4 72 -35 9 -32 11 -33 62 -33 60 0 56 -6 75 113 7 42 16 77 20 77
4 0 22 -43 39 -95 17 -52 35 -97 40 -100 5 -3 23 40 41 95 18 55 36 100 40
100 3 0 11 -33 18 -72 22 -127 16 -118 75 -118 50 0 52 1 65 35 12 35 12 35
75 35 63 0 63 0 72 -32 8 -26 16 -34 37 -36 15 -2 27 0 27 3 0 24 -127 344
-135 342 -5 -2 -39 -76 -74 -165 -36 -89 -68 -159 -72 -155 -3 5 -21 77 -38
162 -17 85 -34 157 -36 160 -11 11 -25 -20 -58 -129 -23 -75 -37 -109 -42 -98
-4 9 -22 63 -40 120 -19 59 -39 103 -46 103 -9 0 -23 -54 -43 -162 -16 -90
-33 -163 -36 -163 -4 0 -34 73 -67 162 -33 89 -64 163 -69 165 -5 1 -40 -74
-78 -168 -38 -93 -71 -167 -74 -164 -4 3 -25 36 -48 72 l-41 66 31 27 c42 38
43 97 3 137 -24 24 -36 28 -100 31 -39 2 -75 0 -79 -4z m133 -54 c23 -13 26
-62 3 -84 -9 -9 -32 -16 -55 -16 l-39 0 0 55 0 55 36 0 c19 0 44 -5 55 -10z
m284 -148 l7 -32 -46 0 -45 0 19 55 c11 31 22 61 26 67 8 12 25 -29 39 -90z
m618 21 l16 -53 -45 0 c-24 0 -44 4 -44 10 0 5 10 35 21 66 24 63 27 61 52
-23z"/>
<path d="M5045 5070 c-32 -13 -75 -64 -85 -101 -43 -149 53 -278 180 -240 48
14 67 35 50 56 -11 13 -15 13 -33 0 -30 -21 -80 -19 -110 6 -53 41 -57 153 -9
211 24 28 29 30 83 26 49 -4 58 -2 62 14 3 11 -2 22 -13 28 -22 12 -97 12
-125 0z"/>
<path d="M5267 5073 c-4 -3 -7 -82 -7 -175 l0 -168 25 0 25 0 0 175 c0 163 -1
175 -18 175 -10 0 -22 -3 -25 -7z"/>
<path d="M5443 5061 c-48 -30 -67 -74 -68 -156 0 -85 24 -139 76 -167 40 -23
105 -20 145 7 78 51 86 231 14 300 -40 38 -119 46 -167 16z m136 -57 c41 -53
35 -171 -11 -214 -30 -28 -79 -26 -107 4 -43 46 -47 171 -6 216 28 31 98 28
124 -6z"/>
<path d="M5717 5073 c-4 -3 -7 -82 -7 -175 l0 -168 25 0 c24 0 24 0 27 116 l3
116 84 -121 c47 -67 88 -121 93 -121 4 0 8 81 8 181 l0 180 -22 -3 c-22 -3
-23 -8 -28 -115 l-5 -111 -75 105 c-81 112 -93 126 -103 116z"/>
<path d="M6167 5073 c-4 -3 -7 -82 -7 -175 l0 -168 105 0 c98 0 105 1 105 20
0 17 -8 19 -77 22 l-78 3 -3 57 -3 57 58 3 c50 3 58 6 58 23 0 17 -8 20 -57
23 l-58 3 0 44 0 45 80 0 c79 0 80 0 80 25 0 25 0 25 -98 25 -54 0 -102 -3
-105 -7z"/>
<path d="M6420 4905 l0 -175 25 0 c24 0 24 0 27 114 l3 115 84 -120 c47 -67
88 -116 93 -111 5 5 7 85 6 178 -3 166 -3 169 -25 172 -22 3 -22 1 -25 -113
l-3 -115 -84 115 c-46 63 -87 115 -92 115 -5 0 -9 -79 -9 -175z"/>
<path d="M6757 4979 c-39 -22 -4 -79 35 -58 10 5 18 18 18 29 0 25 -30 41 -53
29z"/>
<path d="M6757 4789 c-39 -22 -4 -79 35 -58 10 5 18 18 18 29 0 25 -30 41 -53
29z"/>
<path d="M1323 4416 l-28 -24 -5 -1259 c-5 -1251 -5 -1258 -26 -1298 -29 -55
-80 -82 -173 -91 -59 -5 -79 -12 -98 -30 -23 -23 -23 -25 -23 -269 0 -250 3
-275 39 -302 14 -10 17 -4 23 50 3 34 5 159 4 279 l-2 216 90 -1 c80 -2 96 1
136 23 29 17 53 41 70 70 l25 45 3 1278 3 1277 398 0 c220 0 406 3 415 6 12 5
13 8 3 18 -34 34 -55 36 -441 36 l-385 0 -28 -24z"/>
<path d="M2753 4430 c-12 -5 -29 -22 -37 -39 -11 -19 -60 -360 -141 -973 -160
-1202 -193 -1437 -212 -1522 -34 -153 -37 -75 -41 1159 -5 1311 0 1230 -67
1262 -19 9 -36 21 -37 27 -1 6 -4 -16 -7 -49 -4 -43 -10 -59 -20 -57 -7 1 -24
-4 -37 -13 -46 -30 -19 -105 38 -105 16 0 18 -10 18 -85 0 -67 -3 -85 -14 -85
-8 0 -16 6 -18 12 -3 9 -10 7 -24 -6 -13 -14 -15 -21 -6 -24 7 -2 12 -22 12
-48 0 -38 3 -44 25 -50 24 -6 25 -9 25 -88 0 -76 -2 -82 -25 -92 -17 -8 -25
-8 -28 -1 -2 6 -7 8 -13 5 -15 -10 -4 -108 12 -108 10 0 14 12 14 39 0 35 14
61 26 49 2 -3 7 -61 11 -130 6 -119 5 -126 -14 -136 -11 -6 -28 -9 -39 -6 -17
5 -19 0 -18 -48 1 -38 6 -53 15 -53 14 0 16 4 18 55 0 18 6 30 15 30 9 0 15
-21 19 -67 12 -119 9 -143 -18 -175 -20 -24 -25 -40 -25 -84 0 -45 4 -59 25
-80 25 -25 25 -26 25 -209 l0 -185 -29 0 c-17 0 -33 -4 -36 -10 -3 -5 1 -10 9
-10 13 0 16 -12 16 -55 0 -48 -2 -55 -20 -55 -36 0 -21 -19 18 -22 l37 -3 -3
-400 c-2 -220 -8 -429 -13 -465 -22 -146 -121 -279 -251 -340 -106 -49 -206
-61 -568 -67 -179 -4 -319 -8 -312 -11 7 -2 24 -22 38 -44 41 -64 59 -68 341
-68 475 1 595 30 746 182 43 43 82 76 88 73 5 -4 9 -17 9 -30 0 -33 17 -69 40
-83 24 -15 24 -16 50 183 27 209 28 215 46 208 11 -4 14 5 14 41 0 42 2 46 25
46 14 0 25 5 25 10 0 6 -12 10 -26 10 -16 0 -24 5 -21 13 2 6 14 11 26 9 15
-1 21 2 18 10 -2 7 -16 13 -30 13 -31 -1 -31 -2 -16 102 15 113 18 123 34 123
8 0 15 5 15 10 0 6 -7 10 -15 10 -8 0 -15 5 -15 10 0 6 7 10 15 10 18 0 20 17
3 22 -8 3 2 103 36 357 25 195 49 358 52 363 3 5 12 4 20 -3 11 -9 18 -9 26
-1 9 9 9 12 0 12 -7 0 -12 14 -12 35 0 19 -5 44 -12 54 -9 14 -8 37 1 97 7 44
13 93 15 109 11 125 31 249 43 260 7 8 13 25 13 39 0 35 15 33 37 -4 20 -34
51 -44 33 -11 -5 11 -14 23 -20 26 -5 3 -1 14 10 25 11 11 20 24 20 29 0 18
-32 41 -57 41 l-25 0 7 68 c8 78 10 82 35 82 11 0 25 10 31 22 10 19 8 25 -15
43 -14 11 -26 29 -26 39 0 15 3 16 15 6 9 -7 19 -10 23 -6 4 4 -2 15 -13 24
-18 16 -19 23 -11 87 5 39 11 72 15 75 3 3 6 25 7 50 1 74 36 320 45 320 5 0
9 -18 9 -40 0 -34 4 -41 24 -46 27 -6 46 1 46 17 0 6 -8 8 -19 4 -16 -5 -19 0
-23 30 -3 29 -1 35 14 35 25 0 23 16 -3 23 -12 3 -18 10 -14 16 3 6 -1 11 -9
11 -9 0 -16 -7 -16 -17 0 -9 -3 -14 -6 -11 -3 4 -2 38 2 77 l7 71 592 0 c327
0 600 3 609 6 18 7 6 22 -31 42 -26 14 -1155 16 -1190 2z m-555 -256 c-2 -15
-8 -29 -15 -31 -18 -6 -28 44 -13 63 18 20 32 4 28 -32z m10 -281 c-4 -52 -28
-56 -28 -4 0 30 4 41 16 41 11 0 14 -9 12 -37z m490 -305 c2 -9 -4 -18 -13
-21 -11 -5 -15 0 -15 19 0 28 23 29 28 2z m0 -230 c3 -13 -3 -18 -22 -18 -20
0 -26 5 -26 21 0 15 5 20 22 17 13 -2 24 -11 26 -20z m-493 -406 c-21 -21 -34
104 -14 139 13 22 14 17 17 -55 2 -43 0 -81 -3 -84z m365 -227 c0 -8 -4 -15
-10 -15 -5 0 -7 7 -4 15 4 8 8 15 10 15 2 0 4 -7 4 -15z"/>
<path d="M4324 4417 c-22 -19 -27 -32 -27 -68 2 -70 463 -3130 478 -3166 7
-17 23 -36 34 -43 19 -10 21 -8 21 23 0 19 -12 110 -26 201 -20 131 -23 171
-13 182 9 11 8 14 -5 14 -23 0 -20 17 4 23 23 6 18 33 -11 57 -14 11 -23 44
-36 133 -15 107 -15 119 -1 134 24 23 38 7 38 -43 0 -24 5 -44 11 -44 6 0 9
21 7 52 -3 52 -3 53 -35 54 -18 0 -35 3 -39 6 -5 6 -84 507 -84 541 0 10 8 17
20 17 11 0 20 5 20 10 0 6 -11 10 -24 10 -22 0 -24 6 -35 75 -13 92 -14 108
-2 101 14 -9 61 12 68 30 4 10 -1 22 -11 29 -11 8 -13 15 -7 20 6 3 11 15 11
25 0 19 -15 26 -70 32 -25 3 -26 7 -53 191 -27 176 -27 191 -13 222 9 18 16
55 16 83 0 46 -2 50 -25 50 -14 -1 -27 1 -29 3 -4 5 -67 423 -71 469 -1 19 -6
43 -10 54 -5 11 -4 26 3 36 8 13 7 21 -2 31 -7 8 -18 44 -24 82 -10 63 -9 72
14 123 28 63 31 82 10 65 -8 -7 -18 -26 -21 -42 -12 -54 -21 -38 -34 64 -8 56
-16 108 -18 115 -4 9 85 12 423 12 236 0 435 4 443 9 11 7 7 14 -20 30 -33 20
-46 21 -441 21 l-407 0 -27 -23z m206 -1098 c0 -16 -4 -29 -10 -29 -5 0 -10
16 -10 36 0 21 4 33 10 29 6 -3 10 -19 10 -36z m-3 -71 c-3 -8 -6 -5 -6 6 -1
11 2 17 5 13 3 -3 4 -12 1 -19z m131 -460 c-7 -20 -48 -23 -48 -4 0 11 9 16
26 16 16 0 24 -5 22 -12z m0 -50 c15 -15 -3 -38 -29 -38 -14 0 -19 7 -19 25 0
27 26 35 48 13z m120 -1133 c-3 -3 -9 2 -12 12 -6 14 -5 15 5 6 7 -7 10 -15 7
-18z"/>
<path d="M5638 4425 c-14 -8 -31 -29 -37 -47 -5 -18 -19 -134 -31 -258 -47
-503 -70 -704 -85 -718 -17 -18 -28 47 -75 471 -25 226 -45 368 -55 387 -8 15
-29 38 -47 51 -18 12 -39 29 -46 38 -12 13 -13 5 -7 -52 7 -60 6 -67 -9 -61
-26 10 -46 -15 -46 -56 0 -42 20 -65 50 -57 15 4 21 -1 25 -16 11 -54 55 -521
50 -535 -3 -8 0 -19 6 -23 8 -4 12 -52 13 -145 1 -81 6 -147 13 -159 12 -22
38 -280 82 -800 31 -370 30 -370 57 12 14 199 20 241 31 232 17 -15 18 12 1
29 -10 10 -10 17 0 32 13 22 16 53 5 64 -9 8 -9 -4 22 376 31 369 30 360 58
360 31 0 47 18 47 55 0 35 -15 55 -43 55 -17 0 -18 6 -11 83 3 45 11 87 16 94
5 7 7 17 3 23 -7 11 12 242 22 270 3 8 7 59 9 114 2 54 6 107 9 117 6 18 25
19 418 19 227 0 422 3 434 6 18 5 20 9 10 18 -34 34 -54 36 -459 36 -332 -1
-408 -3 -430 -15z m-373 -225 c9 -29 -4 -62 -23 -58 -18 3 -28 39 -18 64 8 21
34 17 41 -6z m373 -596 c2 -22 -2 -33 -13 -38 -22 -8 -35 1 -35 24 0 56 43 68
48 14z"/>
<path d="M6857 4420 c-15 -12 -31 -38 -37 -58 -6 -20 -28 -172 -50 -337 -21
-165 -114 -862 -205 -1550 -94 -704 -164 -1264 -160 -1281 3 -17 14 -39 25
-49 23 -21 26 -16 38 55 6 35 12 46 32 51 24 7 24 7 3 8 -13 1 -23 7 -23 14 0
6 16 129 35 272 19 143 35 263 35 268 0 4 15 7 34 7 33 0 66 21 66 40 0 5 -6
15 -14 22 -10 9 -10 17 -3 30 14 22 -7 48 -40 48 -23 0 -25 3 -19 33 3 17 24
174 46 347 23 173 43 324 45 335 3 15 12 20 40 20 26 0 35 -4 32 -15 -2 -9
-13 -14 -30 -13 -15 1 -27 -2 -27 -7 0 -15 38 -22 60 -10 17 9 20 21 20 79 l0
69 -40 -2 -40 -2 6 35 c15 105 104 787 104 800 0 13 3 13 17 -2 16 -16 16 -19
0 -47 -20 -34 -6 -41 17 -9 l14 21 14 -21 c7 -11 19 -21 26 -21 9 0 7 8 -7 26
-21 27 -20 35 7 67 13 14 13 17 1 17 -8 0 -20 -9 -27 -21 -13 -20 -13 -20 -34
6 -20 26 -20 31 -8 108 7 45 15 102 19 127 5 37 10 46 29 48 12 2 22 8 22 14
0 6 -11 8 -25 6 -21 -4 -24 -2 -20 16 5 22 55 392 55 407 0 5 259 9 599 9 330
0 602 4 605 9 3 4 -4 17 -15 27 -20 18 -49 19 -608 22 -582 2 -588 2 -614 -18z
m-121 -1666 c7 -28 -16 -61 -35 -50 -12 8 -15 59 -4 69 14 15 33 6 39 -19z
m-121 -834 c0 -8 -10 -16 -22 -18 -18 -3 -23 2 -23 18 0 16 5 21 23 18 12 -2
22 -10 22 -18z m8 -46 c12 -12 -6 -34 -29 -34 -17 0 -24 6 -24 20 0 14 7 20
23 20 13 0 26 -3 30 -6z"/>
<path d="M4013 4316 c6 -41 5 -46 -13 -46 -11 0 -20 -4 -20 -10 0 -5 7 -10 15
-10 11 0 15 -13 15 -54 0 -44 -3 -54 -16 -52 -9 0 -19 -5 -22 -13 -3 -10 4
-12 32 -9 21 2 36 0 37 -7 0 -5 6 -45 13 -87 9 -55 9 -78 2 -79 -6 -1 -24 -2
-41 -3 -37 -1 -55 -41 -37 -82 10 -21 18 -25 41 -22 23 3 27 1 23 -14 -5 -20
-23 -23 -39 -7 -7 7 -13 7 -17 0 -10 -16 31 -33 53 -22 26 14 32 34 24 89 -3
26 -3 45 0 41 13 -11 39 -217 38 -298 -1 -67 2 -82 13 -78 10 4 15 -9 20 -51
3 -31 9 -74 12 -94 6 -34 4 -38 -14 -38 -27 0 -46 -34 -37 -68 8 -31 21 -42
53 -42 12 0 22 -4 22 -8 0 -5 13 -96 29 -203 16 -107 32 -214 35 -239 2 -25 8
-60 12 -77 5 -27 3 -33 -10 -33 -9 0 -16 -4 -16 -10 0 -5 8 -10 19 -10 16 0
20 -10 26 -65 3 -36 6 -68 6 -72 0 -5 -15 -11 -33 -14 -22 -4 -26 -7 -10 -8
20 -1 22 -6 22 -61 0 -47 3 -60 15 -60 11 0 15 12 16 43 1 23 25 -118 55 -313
70 -461 82 -550 75 -550 -3 0 -14 20 -24 45 -29 69 -47 59 -47 -25 0 -40 4
-70 10 -70 6 0 10 24 11 53 l1 52 22 -48 c12 -26 26 -51 32 -55 6 -4 23 -90
38 -192 15 -102 29 -193 32 -202 5 -17 -20 -18 -428 -18 -286 -1 -427 -4 -416
-10 9 -6 26 -26 39 -46 38 -63 47 -64 452 -64 241 0 375 4 396 11 36 13 61 53
61 100 0 51 -449 3058 -466 3116 -9 35 -23 58 -40 70 -15 10 -38 29 -52 42
l-25 23 6 -46z m25 -422 c2 -21 -2 -33 -12 -37 -21 -8 -39 19 -32 49 10 36 40
28 44 -12z m122 -580 c0 -27 -4 -34 -20 -34 -16 0 -20 7 -20 34 0 32 15 49 33
39 4 -2 7 -20 7 -39z"/>
<path d="M6551 4300 c-7 -30 -15 -77 -17 -105 -3 -27 -10 -88 -17 -135 l-12
-85 -38 -3 c-20 -2 -37 -8 -37 -14 0 -5 7 -8 15 -4 12 4 15 -5 15 -50 0 -46
-3 -55 -15 -50 -8 3 -15 1 -15 -4 0 -6 14 -10 30 -10 26 0 30 -3 25 -22 -2
-13 -32 -232 -65 -488 -33 -256 -63 -475 -65 -487 -4 -17 -13 -23 -31 -23 -24
0 -25 -1 -22 -67 3 -70 18 -89 29 -37 16 74 5 -23 -41 -368 -31 -232 -55 -375
-63 -381 -9 -7 -9 -10 1 -14 17 -7 5 -23 -19 -23 -10 0 -19 -4 -19 -10 0 -5 7
-10 15 -10 10 0 15 -11 15 -35 0 -28 -4 -35 -20 -35 -11 0 -20 -4 -20 -10 0
-5 10 -10 21 -10 18 0 21 -4 16 -27 -3 -16 -9 -56 -13 -91 -3 -34 -11 -65 -15
-68 -5 -3 -9 -31 -9 -62 0 -31 -11 -140 -25 -242 -14 -102 -25 -191 -25 -197
0 -10 -135 -13 -642 -13 -611 0 -641 -1 -625 -17 9 -10 29 -33 43 -50 14 -18
42 -37 62 -43 25 -8 228 -10 624 -8 577 3 587 3 615 24 15 11 34 38 40 60 15
47 414 3047 415 3120 1 63 -12 87 -56 108 -19 9 -36 22 -39 29 -2 6 -9 -13
-16 -43z m-60 -421 c-9 -33 -9 -33 -10 17 -1 28 2 54 7 58 11 12 14 -39 3 -75z
m-141 -1099 c0 -11 -4 -20 -10 -20 -5 0 -10 9 -10 20 0 11 5 20 10 20 6 0 10
-9 10 -20z"/>
<path d="M8136 4275 c4 -44 8 -96 8 -115 1 -19 4 -37 7 -40 13 -10 41 -244 30
-248 -17 -6 -13 -32 4 -32 8 0 15 -4 15 -10 0 -5 43 -297 95 -647 212 -1421
191 -1270 174 -1240 -14 24 -65 23 -79 -2 -5 -11 -10 -34 -10 -51 0 -44 17
-70 45 -70 34 0 55 25 56 68 1 27 3 30 6 12 11 -65 113 -762 113 -770 0 -6
-157 -10 -427 -10 -343 0 -424 -2 -412 -12 8 -7 27 -30 42 -50 18 -24 41 -41
65 -48 25 -8 160 -10 409 -8 l373 3 27 28 c24 24 28 34 26 85 0 31 -40 316
-87 632 -48 316 -150 1000 -227 1520 -101 677 -146 956 -160 985 -10 23 -33
49 -51 59 -18 11 -37 24 -41 30 -5 6 -5 -25 -1 -69z m320 -2360 c9 -38 -3 -75
-26 -75 -23 0 -35 37 -26 75 4 16 13 25 26 25 13 0 22 -9 26 -25z"/>
<path d="M3401 4249 c-12 -19 -21 -49 -21 -67 0 -36 27 -102 41 -102 12 0 11
11 -6 40 -19 33 -19 72 0 117 20 47 12 54 -14 12z"/>
<path d="M3523 4273 c-7 -2 -13 -11 -13 -19 0 -8 -7 -17 -15 -20 -8 -4 -15
-10 -15 -15 0 -5 7 -9 15 -9 11 0 15 -12 15 -46 0 -32 4 -44 13 -41 7 2 12 21
12 45 0 37 3 42 23 42 12 0 22 5 22 10 0 6 -9 10 -20 10 -12 0 -20 7 -20 16 0
11 6 15 20 11 13 -3 20 0 20 9 0 14 -32 18 -57 7z"/>
<path d="M7230 4255 c0 -22 -3 -25 -20 -20 -30 10 -50 -12 -50 -55 0 -45 14
-59 58 -58 l32 1 0 73 c0 40 -4 76 -10 79 -6 4 -10 -5 -10 -20z m-5 -55 c9
-29 -4 -62 -23 -58 -18 3 -28 39 -18 64 8 21 34 17 41 -6z"/>
<path d="M1680 4260 c0 -5 7 -10 15 -10 8 0 15 5 15 10 0 6 -7 10 -15 10 -8 0
-15 -4 -15 -10z"/>
<path d="M1830 4250 c0 -14 -6 -19 -22 -17 -15 1 -27 -7 -37 -25 -14 -25 -14
-31 -1 -55 13 -22 23 -28 53 -29 l37 -1 0 73 c0 59 -3 74 -15 74 -8 0 -15 -9
-15 -20z m0 -69 c0 -37 -15 -48 -29 -22 -13 23 -4 51 15 51 9 0 14 -11 14 -29z"/>
<path d="M3030 4260 c0 -5 7 -10 15 -10 8 0 15 5 15 10 0 6 -7 10 -15 10 -8 0
-15 -4 -15 -10z"/>
<path d="M3133 4256 c21 -16 25 -115 5 -112 -7 0 -14 -3 -15 -9 -2 -6 17 -10
42 -10 25 0 45 5 45 10 0 6 -6 10 -12 10 -9 0 -14 21 -16 63 l-3 62 -32 0
c-29 -1 -30 -2 -14 -14z"/>
<path d="M3640 4260 c0 -5 7 -10 15 -10 8 0 15 5 15 10 0 6 -7 10 -15 10 -8 0
-15 -4 -15 -10z"/>
<path d="M5845 4246 c21 -32 21 -95 1 -134 -20 -38 -4 -43 20 -7 30 46 14 165
-22 165 -12 0 -12 -4 1 -24z"/>
<path d="M6180 4194 c0 -56 3 -75 13 -72 6 3 13 24 15 47 3 33 7 42 20 39 12
-2 17 -14 18 -43 0 -24 5 -40 12 -40 7 0 12 3 12 8 0 4 0 27 0 51 0 47 -20 67
-46 45 -11 -9 -14 -6 -14 15 0 16 -5 26 -15 26 -12 0 -15 -15 -15 -76z"/>
<path d="M2872 4193 c3 -68 24 -100 30 -46 2 23 8 29 36 31 44 4 41 22 -4 22
-28 0 -35 3 -32 18 2 11 14 18 36 20 51 5 37 22 -18 22 l-51 0 3 -67z"/>
<path d="M4601 4244 c-9 -11 -10 -18 -3 -23 6 -3 12 -27 14 -51 3 -39 6 -45
27 -48 13 -2 28 1 34 7 8 8 3 11 -16 11 -25 0 -27 3 -27 40 0 33 3 40 20 40
11 0 20 5 20 11 0 6 -9 9 -20 6 -13 -3 -20 0 -20 9 0 18 -11 17 -29 -2z"/>
<path d="M4950 4196 c0 -36 5 -68 10 -71 6 -4 10 14 11 47 l0 53 27 -53 c14
-29 31 -51 37 -49 14 5 19 137 5 137 -5 0 -10 -23 -11 -52 l-1 -53 -24 53
c-34 74 -54 70 -54 -12z"/>
<path d="M6074 4243 c-6 -10 -9 -37 -6 -61 5 -47 28 -68 63 -57 23 8 17 20 -9
20 -12 0 -18 10 -20 33 -3 27 0 32 17 32 12 0 21 5 21 10 0 6 -9 10 -20 10
-11 0 -20 7 -20 15 0 20 -13 19 -26 -2z"/>
<path d="M6920 4241 c-17 -32 -12 -86 10 -106 22 -20 67 -14 77 11 8 22 -7 32
-18 11 -24 -41 -68 5 -55 57 7 28 33 35 54 14 17 -17 28 -2 12 17 -18 22 -67
19 -80 -4z"/>
<path d="M7402 4193 l3 -68 48 -3 c28 -2 47 1 47 7 0 6 -16 11 -35 11 -30 0
-35 3 -35 24 0 20 4 24 30 22 17 -1 30 1 30 6 0 4 -13 8 -29 8 -20 0 -30 6
-34 20 -4 17 0 20 34 20 21 0 39 5 39 10 0 6 -23 10 -50 10 l-51 0 3 -67z"/>
<path d="M8032 4244 c-9 -10 -11 -19 -4 -27 6 -7 12 -30 14 -52 2 -33 7 -41
27 -43 13 -2 28 1 34 7 8 8 3 11 -16 11 -25 0 -27 3 -27 40 0 33 3 40 20 40
11 0 20 5 20 11 0 6 -9 9 -20 6 -13 -3 -20 0 -20 9 0 18 -11 17 -28 -2z"/>
<path d="M1542 4224 c-39 -27 -21 -104 24 -104 36 0 54 20 54 60 0 29 -5 42
-19 50 -26 13 -33 13 -59 -6z m46 -46 c-2 -21 -8 -33 -18 -33 -10 0 -16 12
-18 33 -3 27 0 32 18 32 18 0 21 -5 18 -32z"/>
<path d="M2032 4224 c-46 -32 -13 -114 41 -100 14 3 27 13 31 21 6 18 -15 20
-31 4 -16 -16 -33 -2 -33 25 0 30 22 50 37 35 14 -14 35 -8 25 7 -13 20 -47
24 -70 8z"/>
<path d="M3263 4230 c-43 -17 -38 -91 7 -105 21 -7 60 10 60 25 0 14 -14 12
-28 -2 -9 -9 -16 -8 -29 5 -16 16 -15 17 25 17 48 0 55 17 22 50 -22 22 -25
23 -57 10z m45 -28 c2 -7 -6 -12 -17 -12 -21 0 -27 11 -14 24 9 9 26 2 31 -12z"/>
<path d="M3776 4231 c-3 -5 -15 -7 -26 -4 -18 5 -20 0 -20 -52 0 -68 23 -73
28 -6 3 33 7 42 20 39 12 -2 18 -15 20 -46 2 -28 7 -42 15 -39 17 6 14 96 -4
108 -18 11 -26 11 -33 0z"/>
<path d="M3873 4230 c-13 -5 -23 -14 -23 -20 0 -13 27 -13 35 0 4 6 11 8 16 5
17 -11 9 -24 -18 -27 -22 -2 -29 -9 -31 -29 -4 -30 19 -44 47 -29 12 6 22 5
29 -2 9 -9 15 -9 24 0 9 9 9 12 0 12 -7 0 -12 15 -12 40 0 29 -5 42 -19 50
-22 11 -19 11 -48 0z m35 -72 c-6 -18 -28 -21 -28 -4 0 9 7 16 16 16 9 0 14
-5 12 -12z"/>
<path d="M4470 4176 c0 -67 17 -68 22 -1 2 28 8 41 20 43 14 3 17 -6 20 -45 4
-58 22 -64 26 -8 3 52 -9 69 -52 70 l-36 2 0 -61z"/>
<path d="M4724 4226 c-10 -8 -16 -18 -11 -22 4 -4 13 -2 19 4 17 17 38 15 38
-3 0 -9 -9 -15 -25 -15 -29 0 -47 -28 -34 -53 11 -19 44 -23 54 -7 5 8 11 7
21 -1 21 -17 23 -10 14 45 -9 63 -35 81 -76 52z m46 -61 c0 -16 -27 -32 -37
-22 -3 4 -3 13 0 22 8 20 37 20 37 0z"/>
<path d="M4830 4235 c0 -3 7 -17 16 -30 15 -23 15 -27 -1 -51 -22 -34 -11 -44
14 -13 l19 24 20 -25 c11 -14 24 -22 28 -17 4 4 -3 18 -16 32 -22 23 -22 26
-7 43 10 10 17 25 17 33 -1 9 -8 5 -22 -11 l-20 -25 -15 23 c-14 20 -33 30
-33 17z"/>
<path d="M5090 4220 c-25 -25 -25 -51 -1 -81 16 -20 23 -22 47 -14 24 9 30 17
32 50 5 60 -38 85 -78 45z m55 -40 c0 -29 -4 -36 -22 -38 -20 -3 -23 1 -23 31
0 38 7 49 30 45 10 -2 15 -15 15 -38z"/>
<path d="M5690 4180 c0 -33 4 -60 10 -60 6 0 10 17 10 39 0 39 20 68 40 56 5
-3 10 -26 10 -51 0 -24 5 -44 10 -44 6 0 10 22 10 49 0 58 -20 82 -51 63 -11
-7 -19 -8 -19 -2 0 5 -4 10 -10 10 -6 0 -10 -27 -10 -60z"/>
<path d="M6356 4231 c-3 -5 -15 -7 -27 -4 -19 5 -20 2 -17 -47 3 -58 28 -85
28 -32 0 46 10 62 37 62 15 0 23 5 21 13 -6 15 -34 21 -42 8z"/>
<path d="M6442 4224 c-41 -28 -20 -104 28 -104 39 0 66 61 42 96 -13 20 -47
24 -70 8z m46 -50 c-4 -39 -32 -39 -36 0 -4 29 16 52 31 37 5 -5 7 -21 5 -37z"/>
<path d="M7050 4220 c-24 -24 -25 -48 -4 -78 31 -44 84 -17 84 43 0 24 -6 38
-19 45 -28 14 -38 13 -61 -10z m55 -40 c0 -29 -4 -36 -22 -38 -20 -3 -23 1
-23 31 0 38 7 49 30 45 10 -2 15 -15 15 -38z"/>
<path d="M7296 4224 c-31 -31 -11 -104 29 -104 20 0 45 11 45 20 0 4 -14 7
-31 6 -46 -2 -49 22 -3 26 45 4 53 19 25 47 -25 25 -44 26 -65 5z m52 -21 c2
-8 -6 -13 -22 -13 -25 0 -33 10 -19 24 10 10 36 3 41 -11z"/>
<path d="M7530 4231 c0 -8 7 -23 17 -33 15 -17 15 -20 -7 -43 -13 -14 -20 -28
-16 -32 4 -5 17 3 28 17 l20 25 19 -24 c26 -32 34 -21 12 17 -17 29 -17 31 1
51 11 12 16 24 12 28 -4 4 -16 -3 -26 -17 l-18 -24 -21 24 c-13 16 -20 20 -21
11z"/>
<path d="M7666 4227 c-13 -9 -17 -23 -14 -52 2 -33 8 -41 31 -49 21 -8 31 -6
44 7 20 20 10 35 -12 17 -23 -19 -45 -5 -45 30 0 35 22 49 45 30 9 -7 19 -10
23 -6 8 8 -25 36 -43 36 -6 0 -19 -6 -29 -13z"/>
<path d="M7786 4224 c-31 -31 -11 -104 29 -104 20 0 45 11 45 20 0 4 -14 7
-31 6 -46 -2 -49 22 -3 26 45 4 53 19 25 47 -25 25 -44 26 -65 5z m52 -21 c2
-8 -6 -13 -22 -13 -25 0 -33 10 -19 24 10 10 36 3 41 -11z"/>
<path d="M7897 4234 c-7 -7 6 -154 14 -154 5 0 9 11 9 24 0 20 4 23 21 19 38
-10 65 56 39 97 -7 11 -73 23 -83 14z m68 -34 c9 -29 -4 -62 -23 -58 -18 3
-28 39 -18 64 8 21 34 17 41 -6z"/>
<path d="M1410 4178 c11 -29 20 -54 20 -55 0 -2 7 -3 15 -3 9 0 24 20 35 46
24 55 25 64 5 64 -8 0 -15 -4 -15 -9 0 -5 -5 -22 -11 -38 l-11 -28 -13 35 c-6
19 -19 36 -29 38 -15 3 -15 -1 4 -50z"/>
<path d="M1663 4216 c25 -19 22 -62 -4 -69 -35 -9 -11 -27 36 -27 47 0 71 18
36 27 -17 4 -21 13 -21 44 0 37 -1 39 -32 39 -30 -1 -31 -2 -15 -14z"/>
<path d="M3000 4220 c0 -5 7 -10 15 -10 10 0 15 -10 15 -34 0 -21 -5 -33 -12
-32 -7 0 -13 -3 -13 -9 0 -5 20 -10 45 -10 26 0 43 4 40 10 -3 5 -11 9 -17 7
-9 -2 -13 11 -13 43 0 43 -1 45 -30 45 -16 0 -30 -4 -30 -10z"/>
<path d="M3623 4216 c20 -15 24 -75 5 -72 -7 0 -14 -3 -15 -9 -2 -6 17 -10 42
-10 25 0 45 5 45 10 0 6 -6 10 -12 10 -8 0 -14 17 -16 43 -3 40 -5 42 -35 42
-29 -1 -30 -2 -14 -14z"/>
<path d="M1420 3963 c-15 -17 -19 -28 -12 -31 7 -2 12 -23 12 -48 0 -32 4 -44
14 -44 10 0 16 14 18 43 2 35 7 43 26 45 27 4 19 22 -9 22 -11 0 -17 5 -14 10
3 6 15 10 26 10 10 0 19 5 19 10 0 22 -57 10 -80 -17z"/>
<path d="M1931 3959 c-27 -43 -27 -95 0 -138 25 -41 37 -35 15 8 -20 38 -20
84 0 122 22 43 10 49 -15 8z"/>
<path d="M3155 3981 c-6 -11 9 -23 19 -14 9 9 7 23 -3 23 -6 0 -12 -4 -16 -9z"/>
<path d="M4470 3915 c0 -79 17 -104 22 -33 2 31 8 44 21 46 14 3 17 -4 17 -42
0 -34 4 -46 15 -46 11 0 15 11 15 38 0 49 -20 77 -49 69 -17 -4 -21 -1 -21 19
0 13 -4 24 -10 24 -6 0 -10 -32 -10 -75z"/>
<path d="M4625 3981 c-6 -11 9 -23 19 -14 9 9 7 23 -3 23 -6 0 -12 -4 -16 -9z"/>
<path d="M4720 3980 c0 -5 7 -10 15 -10 12 0 15 -13 15 -59 0 -57 -1 -60 -27
-64 -16 -2 -1 -4 32 -4 33 0 50 2 38 4 -21 4 -23 10 -23 74 0 67 -1 69 -25 69
-14 0 -25 -4 -25 -10z"/>
<path d="M4900 3966 c0 -19 -4 -23 -20 -19 -30 8 -50 -15 -50 -58 0 -44 19
-60 63 -52 27 5 27 7 27 79 0 43 -4 74 -10 74 -5 0 -10 -11 -10 -24z m-5 -76
c0 -28 -4 -35 -20 -35 -13 0 -21 8 -23 23 -5 34 5 54 25 50 13 -2 18 -13 18
-38z"/>
<path d="M7443 3964 c-24 -37 -24 -111 0 -148 26 -39 29 -29 9 27 -16 44 -16
50 0 94 20 56 17 66 -9 27z"/>
<path d="M7550 3985 c1 -6 7 -21 15 -35 19 -33 19 -84 -1 -121 -19 -38 -14
-46 12 -18 29 32 27 131 -3 161 -13 12 -23 18 -23 13z"/>
<path d="M7810 3975 c0 -8 5 -15 10 -15 6 0 10 7 10 15 0 8 -4 15 -10 15 -5 0
-10 -7 -10 -15z"/>
<path d="M3256 3958 c-13 -14 -15 -23 -8 -26 7 -2 12 -23 12 -47 0 -35 4 -45
20 -50 11 -3 28 -2 37 4 16 9 14 10 -9 11 -26 0 -28 3 -28 40 0 33 3 40 20 40
11 0 20 5 20 10 0 6 -9 10 -19 10 -11 0 -21 7 -23 15 -2 13 -7 11 -22 -7z"/>
<path d="M6196 3958 c-13 -14 -15 -23 -8 -26 7 -2 12 -23 12 -47 0 -47 15 -60
52 -45 22 8 22 9 -4 9 -26 1 -28 4 -28 41 0 33 3 40 20 40 11 0 20 5 20 10 0
6 -9 10 -19 10 -11 0 -21 7 -23 15 -2 13 -7 11 -22 -7z"/>
<path d="M7920 3966 c0 -8 -4 -16 -8 -18 -4 -1 -6 -24 -4 -51 4 -50 25 -73 56
-61 23 9 19 21 -6 20 -19 -1 -23 5 -26 37 -3 34 -1 37 22 37 14 0 26 5 26 10
0 6 -12 10 -26 10 -14 0 -23 4 -19 9 3 5 1 12 -5 16 -5 3 -10 0 -10 -9z"/>
<path d="M2020 3960 c0 -5 7 -10 15 -10 11 0 15 -12 15 -50 0 -40 -3 -48 -15
-44 -8 4 -15 1 -15 -5 0 -6 17 -11 40 -11 22 0 40 5 40 10 0 6 -7 10 -15 10
-11 0 -15 12 -15 45 0 33 4 45 15 45 8 0 15 5 15 10 0 6 -18 10 -40 10 -22 0
-40 -4 -40 -10z"/>
<path d="M7050 3953 c-10 -12 -11 -18 -2 -21 7 -2 12 -22 12 -47 0 -28 5 -45
14 -48 18 -7 57 3 51 13 -3 5 -14 6 -25 3 -18 -5 -20 0 -20 36 0 34 3 41 20
41 11 0 20 5 20 10 0 6 -9 10 -20 10 -11 0 -20 5 -20 10 0 15 -13 12 -30 -7z"/>
<path d="M1536 3934 c-19 -18 -21 -65 -4 -82 7 -7 24 -12 38 -12 35 0 50 17
50 57 0 48 -51 71 -84 37z m52 -42 c3 -27 0 -32 -17 -32 -16 0 -21 6 -21 28 0
53 33 56 38 4z"/>
<path d="M1654 3928 c3 -13 6 -38 6 -55 0 -48 28 -44 32 5 2 30 7 38 26 40 12
2 22 10 22 18 0 17 -31 19 -48 2 -9 -9 -12 -9 -12 0 0 7 -7 12 -16 12 -12 0
-15 -6 -10 -22z"/>
<path d="M2762 3938 c-20 -20 -15 -86 8 -98 48 -26 92 26 68 78 -15 30 -55 41
-76 20z m53 -48 c0 -28 -4 -35 -20 -35 -13 0 -21 8 -23 23 -5 34 5 54 25 50
13 -2 18 -13 18 -38z"/>
<path d="M2880 3895 c0 -41 4 -55 14 -55 10 0 16 14 18 43 2 35 7 43 26 45 12
2 22 8 22 13 0 13 -34 11 -48 -3 -9 -9 -12 -9 -12 0 0 7 -4 12 -10 12 -5 0
-10 -25 -10 -55z"/>
<path d="M3125 3940 c-3 -5 3 -10 14 -10 18 0 21 -6 21 -39 0 -36 -3 -40 -27
-44 -16 -2 -1 -4 32 -4 33 0 50 2 38 4 -20 4 -23 11 -23 54 0 45 -2 49 -24 49
-14 0 -28 -4 -31 -10z"/>
<path d="M3376 3934 c-41 -41 4 -121 53 -94 12 6 21 16 21 22 0 9 -3 9 -12 0
-17 -17 -45 -15 -52 4 -9 24 -9 24 34 24 44 0 47 5 24 38 -18 26 -46 28 -68 6z
m54 -19 c0 -9 -9 -15 -25 -15 -24 0 -32 10 -18 23 12 13 43 7 43 -8z"/>
<path d="M3622 3938 c-21 -21 -13 -37 24 -53 19 -8 33 -19 29 -25 -8 -14 -38
-13 -53 2 -9 9 -12 9 -12 0 0 -21 40 -35 67 -23 33 15 26 42 -15 60 -44 20
-41 35 5 26 33 -6 35 -5 24 9 -16 19 -52 21 -69 4z"/>
<path d="M3730 3893 c0 -63 18 -72 22 -10 2 34 7 42 23 42 16 0 21 -8 23 -42
4 -56 22 -55 22 1 0 50 -12 63 -57 63 l-33 0 0 -54z"/>
<path d="M4595 3940 c-3 -5 3 -10 14 -10 18 0 21 -6 21 -39 0 -36 -3 -40 -27
-44 -16 -2 -1 -4 32 -4 33 0 50 2 38 4 -20 4 -23 11 -23 54 0 45 -2 49 -24 49
-14 0 -28 -4 -31 -10z"/>
<path d="M4964 3934 c3 -9 6 -33 6 -55 0 -21 5 -39 10 -39 6 0 10 15 10 34 0
35 12 51 45 58 19 5 19 5 1 13 -11 5 -26 3 -37 -4 -12 -7 -19 -7 -19 -1 0 5
-5 10 -11 10 -6 0 -8 -7 -5 -16z"/>
<path d="M5084 3925 c-33 -50 11 -110 63 -86 13 6 21 16 18 22 -5 7 -11 6 -21
-2 -17 -14 -44 -5 -44 16 0 11 10 15 35 15 28 0 35 4 35 20 0 20 -27 40 -54
40 -9 0 -23 -11 -32 -25z m64 -12 c2 -8 -6 -13 -22 -13 -17 0 -26 5 -26 16 0
19 41 16 48 -3z"/>
<path d="M5200 3893 c0 -63 18 -72 22 -10 2 34 7 42 23 42 16 0 21 -8 23 -42
4 -56 22 -55 22 1 0 50 -12 63 -57 63 l-33 0 0 -54z"/>
<path d="M5702 3938 c-7 -7 -12 -29 -12 -50 0 -32 4 -40 26 -48 26 -10 64 2
64 20 0 13 -13 13 -27 -1 -21 -21 -45 -2 -41 33 3 35 33 52 49 27 4 -7 11 -10
15 -6 11 11 -17 37 -40 37 -12 0 -27 -5 -34 -12z"/>
<path d="M5820 3895 c0 -41 4 -55 14 -55 10 0 16 14 18 43 2 35 7 43 26 45 12
2 22 8 22 13 0 13 -34 11 -48 -3 -9 -9 -12 -9 -12 0 0 7 -4 12 -10 12 -5 0
-10 -25 -10 -55z"/>
<path d="M5946 3934 c-24 -23 -20 -71 7 -88 26 -17 67 -11 67 10 0 11 -4 12
-19 2 -15 -9 -23 -9 -35 1 -26 22 -19 31 24 31 28 0 40 4 40 14 0 20 -28 46
-50 46 -10 0 -26 -7 -34 -16z m62 -21 c2 -9 -7 -13 -27 -13 -30 0 -39 9 -24
24 11 10 46 3 51 -11z"/>
<path d="M6073 3943 c-25 -10 -12 -22 17 -16 22 4 30 2 30 -9 0 -8 -12 -15
-27 -16 -44 -4 -58 -43 -22 -62 15 -9 24 -8 35 1 11 9 17 9 28 0 10 -8 16 -9
21 -1 3 5 1 10 -4 10 -6 0 -11 20 -11 44 0 51 -23 67 -67 49z m47 -67 c0 -15
-27 -29 -40 -21 -5 3 -7 12 -3 20 7 19 43 20 43 1z"/>
<path d="M6316 3934 c-41 -41 4 -121 53 -94 12 6 21 15 21 20 0 6 -8 5 -19 -1
-22 -15 -51 -5 -51 16 0 11 11 15 40 15 44 0 47 5 24 38 -18 26 -46 28 -68 6z
m54 -19 c0 -9 -9 -15 -25 -15 -24 0 -32 10 -18 23 12 13 43 7 43 -8z"/>
<path d="M6933 3943 c-25 -10 -12 -22 17 -16 41 8 39 -14 -2 -25 -22 -5 -34
-15 -36 -28 -4 -28 21 -48 45 -36 12 7 25 7 35 1 11 -6 19 -6 23 1 3 5 1 10
-4 10 -6 0 -11 17 -11 38 0 53 -24 73 -67 55z m47 -62 c0 -5 -7 -14 -15 -21
-18 -15 -42 1 -31 19 8 13 46 15 46 2z"/>
<path d="M7172 3938 c-7 -7 -12 -29 -12 -50 0 -46 28 -67 66 -49 19 8 24 18
24 49 0 43 -14 62 -45 62 -12 0 -26 -5 -33 -12z m53 -48 c0 -28 -4 -35 -20
-35 -13 0 -21 8 -23 23 -5 34 5 54 25 50 13 -2 18 -13 18 -38z"/>
<path d="M7290 3895 c0 -41 4 -55 14 -55 10 0 16 14 18 43 2 35 7 43 26 45 12
2 22 8 22 13 0 13 -34 11 -48 -3 -9 -9 -12 -9 -12 0 0 7 -4 12 -10 12 -5 0
-10 -25 -10 -55z"/>
<path d="M7682 3934 c4 -21 22 -23 26 -1 2 10 -3 17 -13 17 -10 0 -15 -6 -13
-16z"/>
<path d="M7780 3940 c0 -5 7 -10 15 -10 11 0 15 -11 15 -39 0 -33 -4 -40 -22
-44 -13 -2 2 -4 32 -4 30 0 45 2 33 4 -20 4 -23 11 -23 54 0 46 -2 49 -25 49
-14 0 -25 -4 -25 -10z"/>
<path d="M8024 3925 c-33 -50 11 -110 63 -86 13 6 21 16 18 22 -5 7 -11 6 -21
-2 -17 -14 -44 -5 -44 16 0 11 10 15 35 15 27 0 35 4 35 18 0 45 -60 57 -86
17z m64 -12 c2 -8 -6 -13 -22 -13 -17 0 -26 5 -26 16 0 19 41 16 48 -3z"/>
<path d="M3480 3930 c0 -5 23 -10 50 -10 28 0 50 5 50 10 0 6 -22 10 -50 10
-27 0 -50 -4 -50 -10z"/>
<path d="M3480 3880 c0 -5 23 -10 50 -10 28 0 50 5 50 10 0 6 -22 10 -50 10
-27 0 -50 -4 -50 -10z"/>
<path d="M3887 3863 c-12 -11 -8 -23 8 -23 8 0 15 7 15 15 0 16 -12 20 -23 8z"/>
<path d="M7676 3838 c-8 -42 -1 -46 18 -9 19 37 20 41 2 41 -7 0 -16 -14 -20
-32z"/>
<path d="M1910 3673 c-15 -17 -19 -28 -12 -31 7 -2 12 -23 12 -48 0 -32 4 -44
15 -44 11 0 15 12 15 45 0 41 2 45 25 45 14 0 25 5 25 10 0 6 -12 10 -26 10
-14 0 -23 4 -19 10 3 6 15 10 26 10 10 0 19 5 19 10 0 22 -57 10 -80 -17z"/>
<path d="M2050 3690 c0 -5 7 -10 15 -10 8 0 15 5 15 10 0 6 -7 10 -15 10 -8 0
-15 -4 -15 -10z"/>
<path d="M3680 3677 c0 -20 -4 -23 -30 -19 -25 4 -31 0 -41 -24 -7 -18 -7 -39
-2 -54 7 -21 15 -25 51 -26 l42 -2 0 74 c0 43 -4 74 -10 74 -5 0 -10 -10 -10
-23z m-5 -57 c7 -23 -12 -63 -28 -57 -7 2 -13 20 -15 40 -3 31 0 37 17 37 11
0 22 -9 26 -20z"/>
<path d="M4625 3676 c-31 -46 -15 -166 22 -166 12 0 12 3 -1 22 -20 29 -20
100 -1 138 19 36 2 40 -20 6z"/>
<path d="M5760 3676 c0 -19 -4 -22 -23 -19 -32 6 -49 -18 -45 -64 3 -37 4 -38
46 -39 l42 -2 0 74 c0 43 -4 74 -10 74 -5 0 -10 -11 -10 -24z m-2 -67 c3 -27
-20 -55 -38 -44 -5 3 -10 22 -10 41 0 31 3 35 23 32 15 -2 23 -11 25 -29z"/>
<path d="M5971 3663 c23 -45 24 -78 4 -117 -18 -34 -18 -36 -4 -36 14 0 39 63
39 97 0 30 -33 93 -49 93 -5 0 0 -17 10 -37z"/>
<path d="M6090 3690 c0 -5 7 -10 15 -10 8 0 15 5 15 10 0 6 -7 10 -15 10 -8 0
-15 -4 -15 -10z"/>
<path d="M7074 3675 c-30 -46 -14 -165 23 -165 12 0 12 3 -1 22 -20 29 -20
100 -1 138 19 36 2 40 -21 5z"/>
<path d="M7180 3693 c0 -5 7 -17 15 -27 19 -25 19 -93 1 -128 -18 -33 -4 -37
18 -6 20 29 20 100 1 138 -14 27 -35 41 -35 23z"/>
<path d="M3020 3676 c0 -8 -4 -16 -8 -18 -5 -1 -6 -25 -3 -53 6 -48 8 -50 39
-53 18 -2 32 1 32 7 0 6 -11 11 -25 11 -22 0 -25 4 -25 35 0 31 3 35 25 35 14
0 25 5 25 10 0 6 -12 10 -26 10 -14 0 -23 4 -19 9 3 5 1 12 -5 16 -5 3 -10 0
-10 -9z"/>
<path d="M3360 3621 c0 -41 4 -71 10 -71 6 0 10 21 10 48 l1 47 15 -28 c13
-24 13 -42 3 -130 -7 -66 -17 -106 -26 -114 -11 -8 -14 -25 -10 -60 2 -26 -3
-110 -11 -185 l-16 -137 -23 32 -23 31 27 28 c18 19 22 28 12 28 -8 0 -26 -14
-41 -32 l-27 -33 -1 33 c0 17 -4 32 -10 32 -6 0 -10 -30 -10 -70 0 -40 4 -70
10 -70 6 0 10 11 10 24 0 39 16 39 46 1 24 -32 26 -40 20 -92 -11 -95 -16
-112 -31 -107 -7 3 -23 1 -34 -6 -16 -8 -21 -20 -21 -51 0 -37 12 -51 57 -64
1 0 -5 -56 -12 -125 -8 -78 -13 -106 -14 -73 -2 81 -21 76 -21 -6 0 -46 4 -71
11 -71 8 0 10 -18 5 -60 l-7 -60 147 0 146 0 -4 45 c-3 41 -1 45 19 45 13 0
23 5 23 10 0 6 -11 10 -25 10 -14 0 -25 5 -25 10 0 6 -13 144 -30 307 -16 163
-30 299 -30 302 0 3 7 -5 16 -17 29 -41 84 -26 84 24 0 30 -3 34 -25 34 -14 0
-25 -4 -25 -10 0 -5 7 -10 15 -10 8 0 15 -9 15 -20 0 -29 -38 -26 -51 4 -23
51 14 99 49 64 17 -17 28 -2 12 17 -21 25 -67 19 -83 -10 -11 -23 -15 0 -31
202 -9 125 -20 236 -22 246 -3 10 0 17 9 17 12 0 14 14 11 65 -3 64 -14 86
-24 45 -6 -27 -20 -27 -34 1 -24 48 -36 34 -36 -40z m77 -23 c-3 -7 -5 -2 -5
12 0 14 2 19 5 13 2 -7 2 -19 0 -25z m-132 -828 c4 -6 3 -24 0 -41 -5 -21 -12
-29 -23 -27 -18 3 -28 39 -18 64 6 16 32 19 41 4z m155 -278 c16 -90 11 -126
-17 -130 -37 -5 -46 27 -33 116 7 42 14 80 17 85 10 17 22 -7 33 -71z"/>
<path d="M4722 3678 c-22 -22 -13 -48 22 -63 44 -18 52 -31 28 -44 -14 -7 -25
-6 -41 5 -26 19 -40 11 -21 -11 16 -19 74 -20 90 0 18 22 2 55 -31 62 -35 7
-46 20 -30 36 9 9 17 8 32 -1 25 -16 37 -8 19 13 -15 18 -51 20 -68 3z"/>
<path d="M5100 3676 c0 -8 -6 -17 -12 -20 -10 -5 -10 -7 0 -12 7 -3 12 -24 12
-50 0 -42 1 -44 30 -44 17 0 30 5 30 10 0 6 -8 10 -17 8 -14 -2 -19 5 -21 35
-3 32 0 37 17 37 12 0 21 5 21 10 0 6 -9 10 -20 10 -11 0 -20 7 -20 15 0 8 -4
15 -10 15 -5 0 -10 -6 -10 -14z"/>
<path d="M6200 3676 c0 -8 -6 -17 -12 -19 -10 -4 -10 -8 -1 -14 6 -4 13 -26
15 -48 3 -37 5 -40 36 -43 18 -2 32 1 32 7 0 6 -11 11 -25 11 -22 0 -25 4 -25
35 0 28 4 35 20 35 11 0 20 5 20 10 0 6 -9 10 -20 10 -11 0 -20 7 -20 15 0 8
-4 15 -10 15 -5 0 -10 -6 -10 -14z"/>
<path d="M6941 3678 c0 -9 -5 -18 -9 -20 -5 -1 -6 -25 -3 -53 6 -48 8 -50 39
-53 18 -2 32 1 32 8 0 6 -6 10 -12 9 -31 -4 -38 3 -38 36 0 31 3 35 25 35 14
0 25 5 25 10 0 6 -11 10 -24 10 -15 0 -26 7 -29 18 -4 15 -5 15 -6 0z"/>
<path d="M2020 3650 c0 -5 7 -10 15 -10 10 0 15 -11 15 -35 0 -28 -4 -35 -20
-35 -11 0 -20 -4 -20 -10 0 -5 25 -10 56 -10 34 0 53 4 49 10 -3 6 -13 10 -21
10 -10 0 -14 12 -14 45 0 43 -1 45 -30 45 -16 0 -30 -4 -30 -10z"/>
<path d="M2740 3655 c0 -3 9 -23 20 -45 25 -48 25 -76 3 -89 -16 -9 -16 -10 3
-11 17 0 28 15 53 70 35 78 35 80 21 80 -6 0 -18 -19 -27 -42 l-17 -42 -17 42
c-10 23 -23 42 -29 42 -5 0 -10 -2 -10 -5z"/>
<path d="M2870 3604 c0 -41 4 -54 15 -54 11 0 15 12 15 45 0 38 3 45 20 45 17
0 20 -7 20 -45 0 -25 5 -45 11 -45 6 0 9 21 7 53 l-3 52 -42 1 -43 2 0 -54z"/>
<path d="M3127 3654 c-15 -16 -6 -23 23 -17 17 3 30 1 30 -4 0 -6 -13 -13 -29
-16 -30 -6 -44 -27 -35 -51 4 -10 20 -14 55 -14 34 1 46 5 40 12 -5 6 -11 29
-13 51 -3 36 -6 40 -33 43 -17 2 -34 0 -38 -4z m53 -62 c0 -4 -5 -13 -12 -20
-18 -18 -28 -15 -28 8 0 13 7 20 20 20 11 0 20 -4 20 -8z"/>
<path d="M3240 3651 c0 -5 7 -14 15 -21 19 -16 19 -29 -2 -52 -9 -10 -13 -21
-9 -25 4 -4 16 3 25 16 l19 24 11 -21 c6 -12 18 -22 27 -22 11 0 10 7 -7 30
-22 29 -22 30 -4 50 10 11 15 23 11 27 -4 4 -16 -3 -25 -16 l-19 -24 -11 21
c-12 22 -31 30 -31 13z"/>
<path d="M3488 3635 c-17 -38 0 -79 35 -83 37 -5 57 14 57 52 0 39 -15 56 -52
56 -21 0 -32 -7 -40 -25z m70 -26 c2 -15 -4 -31 -13 -39 -24 -20 -50 9 -41 45
9 36 50 32 54 -6z"/>
<path d="M3742 3648 c-15 -15 -16 -70 0 -86 15 -15 64 -16 73 -1 10 16 -3 23
-18 10 -17 -14 -47 -4 -47 14 0 9 15 15 40 17 39 3 39 4 27 28 -14 28 -55 38
-75 18z m58 -18 c0 -5 -12 -10 -26 -10 -14 0 -23 4 -19 10 3 6 15 10 26 10 10
0 19 -4 19 -10z"/>
<path d="M3978 3635 c-17 -38 0 -79 35 -83 30 -4 61 14 51 30 -3 5 -14 2 -25
-8 -18 -16 -21 -16 -36 -2 -21 22 -10 68 17 68 10 0 22 -5 25 -10 4 -6 11 -8
16 -4 17 10 -12 34 -42 34 -22 0 -32 -7 -41 -25z"/>
<path d="M4846 3603 l25 -58 -22 -17 -21 -18 21 0 c17 0 28 12 45 53 32 72 39
97 28 97 -6 0 -17 -19 -27 -42 l-16 -42 -19 42 c-11 23 -24 42 -29 42 -6 0 1
-26 15 -57z"/>
<path d="M4960 3603 c0 -29 5 -53 10 -53 6 0 10 20 10 45 0 38 3 45 20 45 17
0 20 -7 20 -45 0 -33 4 -45 15 -45 11 0 15 11 15 36 0 55 -15 74 -55 71 l-35
-2 0 -52z"/>
<path d="M5210 3645 c-11 -13 -8 -14 19 -9 18 4 31 2 31 -3 0 -6 -13 -13 -30
-16 -25 -6 -30 -11 -30 -37 0 -29 1 -30 48 -29 l48 2 -6 41 c-3 23 -10 47 -14
54 -10 17 -51 15 -66 -3z m50 -59 c0 -15 -24 -28 -34 -19 -13 14 -5 33 14 33
11 0 20 -6 20 -14z"/>
<path d="M5822 3648 c-7 -7 -12 -26 -12 -43 0 -17 5 -36 12 -43 15 -15 64 -16
73 -1 11 17 -3 23 -20 9 -12 -10 -18 -10 -30 0 -25 21 -17 30 26 30 37 0 40 2
33 23 -4 12 -12 25 -18 29 -17 12 -51 9 -64 -4z m58 -18 c0 -5 -12 -10 -26
-10 -14 0 -23 4 -19 10 3 6 15 10 26 10 10 0 19 -4 19 -10z"/>
<path d="M6060 3650 c0 -5 9 -10 20 -10 16 0 20 -7 20 -35 0 -28 -4 -35 -19
-35 -11 0 -23 -4 -26 -10 -4 -6 15 -10 50 -10 35 0 54 4 50 10 -3 6 -13 10
-21 10 -10 0 -14 12 -14 45 0 43 -1 45 -30 45 -16 0 -30 -4 -30 -10z"/>
<path d="M6312 3648 c-7 -7 -12 -26 -12 -43 0 -17 5 -36 12 -43 15 -15 64 -16
73 -1 11 17 -3 23 -20 9 -12 -10 -18 -10 -30 0 -25 21 -17 30 26 30 37 0 40 2
33 23 -4 12 -12 25 -18 29 -17 12 -51 9 -64 -4z m58 -18 c0 -5 -12 -10 -26
-10 -14 0 -23 4 -19 10 3 6 15 10 26 10 10 0 19 -4 19 -10z"/>
<path d="M7317 3653 c-12 -11 -8 -23 8 -23 8 0 15 7 15 15 0 16 -12 20 -23 8z"/>
<path d="M7531 3630 c-1 -8 -24 -199 -52 -425 -34 -269 -56 -415 -65 -426 -16
-17 -19 -60 -6 -74 5 -6 1 -86 -9 -180 -10 -93 -18 -187 -19 -207 l0 -38 146
0 146 0 -6 43 c-13 91 -75 737 -96 1002 -12 154 -26 289 -30 300 -6 13 -9 15
-9 5z m33 -1077 c3 -10 10 -51 17 -91 8 -56 8 -76 -1 -87 -20 -24 -49 -18 -56
10 -6 24 1 113 13 163 6 26 20 29 27 5z"/>
<path d="M7317 3573 c-2 -5 -7 -20 -11 -35 -7 -30 8 -39 17 -10 2 9 8 25 12
35 7 16 -9 25 -18 10z"/>
<path d="M1910 3383 c-15 -17 -19 -28 -12 -31 7 -2 12 -23 12 -48 0 -32 4 -44
15 -44 11 0 15 12 15 45 0 41 2 45 25 45 14 0 25 5 25 10 0 6 -11 10 -25 10
-14 0 -25 5 -25 10 0 6 11 10 25 10 14 0 25 5 25 10 0 22 -57 10 -80 -17z"/>
<path d="M2050 3400 c0 -5 7 -10 15 -10 8 0 15 5 15 10 0 6 -7 10 -15 10 -8 0
-15 -4 -15 -10z"/>
<path d="M2880 3400 c0 -5 7 -10 15 -10 12 0 15 -13 15 -55 0 -48 -2 -55 -20
-55 -11 0 -20 -4 -20 -10 0 -5 23 -10 50 -10 28 0 50 5 50 10 0 6 -9 10 -20
10 -18 0 -20 7 -20 65 0 63 -1 65 -25 65 -14 0 -25 -4 -25 -10z"/>
<path d="M3503 3396 c12 -10 17 -27 17 -65 0 -44 -3 -51 -20 -51 -11 0 -20 -4
-20 -10 0 -5 23 -10 50 -10 28 0 50 5 50 10 0 6 -9 10 -20 10 -18 0 -20 7 -20
65 0 64 0 65 -27 65 -25 -1 -26 -2 -10 -14z"/>
<path d="M5090 3400 c0 -5 7 -10 15 -10 12 0 15 -13 15 -55 0 -52 -1 -55 -25
-55 -14 0 -25 -4 -25 -10 0 -5 23 -10 50 -10 28 0 50 5 50 10 0 6 -7 10 -15
10 -12 0 -15 14 -15 65 0 63 -1 65 -25 65 -14 0 -25 -4 -25 -10z"/>
<path d="M4730 3386 c0 -8 -6 -17 -12 -19 -10 -4 -10 -8 -1 -14 6 -4 13 -26
15 -48 3 -37 5 -40 36 -43 18 -2 32 1 32 7 0 6 -11 11 -25 11 -22 0 -25 4 -25
35 0 28 4 35 20 35 11 0 20 5 20 10 0 6 -9 10 -20 10 -11 0 -20 7 -20 15 0 8
-4 15 -10 15 -5 0 -10 -6 -10 -14z"/>
<path d="M4830 3330 c0 -40 4 -70 10 -70 6 0 10 14 10 30 0 18 5 30 13 30 7 0
21 -13 30 -30 10 -16 22 -30 28 -30 13 0 11 7 -6 34 -14 21 -14 24 0 36 37 30
6 70 -54 70 l-31 0 0 -70z m75 30 c0 -9 -11 -16 -27 -18 -23 -3 -28 1 -28 18
0 17 5 21 28 18 16 -2 27 -9 27 -18z"/>
<path d="M2020 3360 c0 -5 7 -10 15 -10 10 0 15 -11 15 -35 0 -28 -4 -35 -20
-35 -11 0 -20 -4 -20 -10 0 -5 22 -10 49 -10 28 0 53 5 56 10 3 6 -3 10 -14
10 -18 0 -21 6 -21 45 0 43 -1 45 -30 45 -16 0 -30 -4 -30 -10z"/>
<path d="M2750 3328 c0 -57 9 -68 53 -66 l37 1 0 54 c0 63 -18 72 -22 11 -2
-36 -7 -44 -25 -46 -21 -3 -23 1 -23 42 0 25 -4 46 -10 46 -5 0 -10 -19 -10
-42z"/>
<path d="M2998 3345 c-18 -40 0 -79 38 -83 19 -2 36 3 44 13 12 15 10 16 -22
10 -27 -5 -37 -3 -41 9 -5 13 1 16 33 16 32 0 40 4 40 18 0 47 -72 60 -92 17z
m62 0 c11 -13 8 -15 -20 -15 -28 0 -31 2 -20 15 7 8 16 15 20 15 4 0 13 -7 20
-15z"/>
<path d="M3250 3313 c0 -29 5 -53 10 -53 6 0 10 15 10 33 0 37 15 57 42 57 10
0 18 4 18 10 0 5 -18 9 -40 8 l-40 -1 0 -54z"/>
<path d="M3608 3344 c-24 -52 46 -112 81 -70 11 13 8 14 -23 9 -29 -4 -36 -2
-36 11 0 12 9 16 35 16 27 0 35 4 35 18 0 47 -72 60 -92 16z m56 10 c25 -9 19
-24 -9 -24 -24 0 -32 10 -18 23 8 8 8 8 27 1z"/>
<path d="M4589 3343 c-21 -54 45 -111 80 -69 11 13 8 14 -22 9 -26 -4 -36 -1
-40 11 -5 13 1 16 33 16 32 0 40 4 40 18 0 26 -20 42 -52 42 -22 0 -31 -7 -39
-27z m55 11 c25 -9 19 -24 -9 -24 -24 0 -32 10 -18 23 8 8 8 8 27 1z"/>
<path d="M4962 3318 l3 -53 43 -1 42 -1 0 54 c0 40 -4 53 -15 53 -11 0 -15
-12 -15 -45 0 -38 -3 -45 -20 -45 -17 0 -20 7 -20 45 0 25 -5 45 -11 45 -6 0
-9 -21 -7 -52z"/>
<path d="M5211 3356 c-17 -20 -10 -77 10 -89 18 -11 69 -2 69 13 0 5 -16 6
-35 3 -28 -4 -35 -2 -35 11 0 12 9 16 35 16 27 0 35 4 35 18 0 39 -55 58 -79
28z m57 -14 c2 -7 -7 -12 -22 -12 -27 0 -35 15 -13 23 17 7 30 3 35 -11z"/>
<path d="M5600 3355 c0 -8 7 -15 15 -15 8 0 15 7 15 15 0 8 -7 15 -15 15 -8 0
-15 -7 -15 -15z"/>
<path d="M3873 3353 c15 -2 39 -2 55 0 15 2 2 4 -28 4 -30 0 -43 -2 -27 -4z"/>
<path d="M3850 3300 c0 -5 20 -10 44 -10 25 0 48 5 51 10 4 6 -13 10 -44 10
-28 0 -51 -4 -51 -10z"/>
<path d="M5595 3259 c-10 -43 -2 -45 18 -4 14 29 14 35 3 35 -8 0 -17 -14 -21
-31z"/>
<path d="M2058 3119 c-10 -5 -18 -17 -18 -24 0 -8 -7 -15 -15 -15 -8 0 -15 -4
-15 -10 0 -5 7 -10 15 -10 11 0 15 -12 15 -46 0 -32 4 -44 13 -41 7 2 12 21
12 45 0 37 3 42 23 42 12 0 22 5 22 10 0 6 -9 10 -20 10 -11 0 -20 5 -20 10 0
6 9 10 20 10 24 0 27 15 4 24 -19 7 -15 8 -36 -5z"/>
<path d="M1930 3110 c0 -5 7 -10 15 -10 8 0 15 5 15 10 0 6 -7 10 -15 10 -8 0
-15 -4 -15 -10z"/>
<path d="M4627 3113 c-4 -3 -7 -21 -7 -39 0 -21 -6 -34 -17 -39 -17 -6 -17 -7
0 -16 9 -6 17 -21 17 -34 0 -39 11 -55 36 -55 13 0 24 5 24 10 0 6 -9 10 -20
10 -16 0 -20 7 -20 35 0 21 -5 35 -12 35 -9 0 -9 3 0 12 7 7 12 25 12 40 0 20
7 31 23 38 22 9 22 9 -4 9 -14 1 -29 -2 -32 -6z"/>
<path d="M2630 3040 l0 -70 44 0 c25 0 48 5 51 10 4 6 -10 10 -34 10 -34 0
-41 3 -41 20 0 15 7 20 29 20 17 0 33 5 36 10 4 6 -8 10 -29 10 -29 0 -36 4
-36 20 0 16 7 20 35 20 19 0 35 5 35 10 0 6 -20 10 -45 10 l-45 0 0 -70z"/>
<path d="M2870 3040 c0 -40 4 -70 10 -70 6 0 10 11 10 24 0 19 7 25 35 30 26
5 36 13 41 32 9 35 -12 54 -57 54 l-39 0 0 -70z m75 40 c9 -15 -14 -40 -36
-40 -14 0 -19 7 -19 25 0 20 5 25 24 25 14 0 28 -5 31 -10z"/>
<path d="M3019 3083 c-17 -43 -39 -105 -39 -109 0 -13 20 0 25 16 4 14 15 20
35 20 20 0 31 -6 35 -20 6 -19 25 -28 25 -12 0 20 -47 126 -58 130 -6 2 -17
-9 -23 -25z m37 -50 c-2 -3 -11 -3 -19 -1 -11 2 -12 9 -5 28 l10 25 9 -24 c5
-13 7 -26 5 -28z"/>
<path d="M3126 3088 c-47 -66 25 -158 77 -100 22 24 9 37 -14 16 -30 -27 -51
-11 -47 38 2 33 8 44 22 46 10 2 22 -2 27 -9 4 -7 11 -10 15 -6 12 11 -17 37
-42 37 -12 0 -30 -10 -38 -22z"/>
<path d="M3610 3040 l0 -70 44 0 c25 0 48 5 51 10 4 6 -10 10 -34 10 -34 0
-41 3 -41 20 0 15 7 20 29 20 17 0 33 5 36 10 4 6 -8 10 -29 10 -29 0 -36 4
-36 20 0 16 7 20 35 20 19 0 35 5 35 10 0 6 -20 10 -45 10 l-45 0 0 -70z"/>
<path d="M4030 3080 c-8 -5 -24 -7 -34 -4 -15 5 -18 3 -13 -11 4 -9 7 -34 7
-56 0 -21 5 -39 10 -39 6 0 10 18 10 40 0 36 14 55 43 59 10 1 10 15 0 18 -4
2 -15 -2 -23 -7z"/>
<path d="M1900 3070 c0 -5 7 -10 15 -10 10 0 15 -11 15 -35 0 -28 -4 -35 -20
-35 -11 0 -20 -4 -20 -10 0 -5 23 -10 50 -10 28 0 50 5 50 10 0 6 -7 10 -15
10 -11 0 -15 12 -15 45 0 43 -1 45 -30 45 -16 0 -30 -4 -30 -10z"/>
<path d="M3725 3070 c-4 -6 15 -10 50 -10 35 0 54 4 50 10 -3 6 -26 10 -50 10
-24 0 -47 -4 -50 -10z"/>
<path d="M3850 3070 c0 -5 23 -10 51 -10 31 0 48 4 44 10 -3 6 -26 10 -51 10
-24 0 -44 -4 -44 -10z"/>
<path d="M4102 3028 l3 -53 43 -1 42 -1 0 54 c0 29 -4 53 -10 53 -5 0 -10 -13
-10 -29 0 -42 -10 -61 -31 -61 -16 0 -19 8 -19 45 0 25 -5 45 -11 45 -6 0 -9
-21 -7 -52z"/>
<path d="M3748 3013 c18 -2 45 -2 60 0 15 2 0 4 -33 4 -33 0 -45 -2 -27 -4z"/>
<path d="M3873 3013 c15 -2 39 -2 55 0 15 2 2 4 -28 4 -30 0 -43 -2 -27 -4z"/>
<path d="M2757 2953 c18 -2 50 -2 70 0 21 2 7 4 -32 4 -38 0 -55 -2 -38 -4z"/>
<path d="M2760 2760 c0 -52 4 -79 10 -75 6 3 10 15 10 26 0 26 6 24 35 -8 29
-33 34 -16 6 18 -19 24 -19 24 1 46 12 13 18 26 14 30 -4 5 -19 -5 -32 -20
l-24 -28 0 40 c0 22 -4 43 -10 46 -6 4 -10 -23 -10 -75z"/>
<path d="M4100 2760 c0 -86 17 -111 22 -32 3 39 6 47 23 47 17 0 20 -8 23 -48
4 -58 22 -53 22 7 0 49 -18 71 -50 61 -17 -5 -20 -2 -20 19 0 14 -4 26 -10 26
-6 0 -10 -33 -10 -80z"/>
<path d="M5090 2831 c0 -6 7 -11 15 -11 12 0 15 -13 15 -60 0 -58 -1 -60 -26
-60 -14 0 -23 -4 -19 -10 3 -5 26 -10 50 -10 24 0 47 5 50 10 3 6 -3 10 -14
10 -18 0 -20 7 -23 68 -3 61 -5 67 -25 70 -13 2 -23 -1 -23 -7z"/>
<path d="M5361 2809 c-12 -19 -21 -49 -21 -67 0 -36 27 -102 41 -102 12 0 11
11 -6 40 -19 33 -19 84 1 121 22 43 10 49 -15 8z"/>
<path d="M7290 2759 c0 -51 4 -78 10 -74 6 3 10 15 10 26 0 26 6 24 35 -8 18
-21 24 -24 25 -12 0 9 -7 22 -15 29 -8 7 -15 18 -15 25 0 7 7 18 15 25 8 7 15
17 15 23 0 6 -13 -2 -30 -18 l-30 -29 0 47 c0 26 -4 47 -10 47 -6 0 -10 -34
-10 -81z"/>
<path d="M7900 2759 c0 -85 16 -102 22 -24 2 28 8 41 20 43 14 3 17 -6 20 -45
2 -26 7 -47 13 -45 13 3 6 95 -8 105 -7 4 -20 5 -29 3 -12 -3 -18 2 -18 14 0
11 -4 22 -10 25 -6 4 -10 -24 -10 -76z"/>
<path d="M3862 2800 c-7 -11 -8 -20 -3 -20 6 0 11 -19 13 -41 3 -46 24 -67 54
-54 17 7 17 8 -6 14 -20 6 -26 14 -28 44 -3 34 -1 37 23 37 15 0 24 4 20 10
-3 6 -15 10 -26 10 -10 0 -19 5 -19 10 0 17 -14 11 -28 -10z"/>
<path d="M3980 2801 c-23 -45 2 -121 41 -121 20 0 49 21 49 35 0 19 -16 19
-24 0 -8 -23 -35 -18 -47 9 -23 50 13 103 46 69 20 -19 33 -9 15 12 -18 22
-67 19 -80 -4z"/>
<path d="M4830 2756 c0 -36 5 -68 10 -71 6 -4 10 7 10 24 0 41 24 41 45 1 9
-16 20 -30 25 -30 14 0 12 12 -6 39 -16 22 -16 24 0 33 19 11 21 39 4 56 -7 7
-29 12 -50 12 l-38 0 0 -64z m75 24 c0 -9 -11 -16 -27 -18 -23 -3 -28 1 -28
18 0 17 5 21 28 18 16 -2 27 -9 27 -18z"/>
<path d="M5560 2771 c0 -67 26 -100 66 -86 27 10 29 14 32 73 2 36 -1 62 -7
62 -6 0 -11 -26 -13 -57 -3 -50 -6 -58 -23 -58 -17 0 -20 8 -23 58 -2 42 -7
57 -17 57 -11 0 -15 -13 -15 -49z"/>
<path d="M5700 2750 l0 -70 39 0 c22 0 43 5 46 10 4 6 -8 10 -29 10 l-36 0 0
60 c0 33 -4 60 -10 60 -6 0 -10 -30 -10 -70z"/>
<path d="M5810 2750 l0 -70 50 0 c28 0 50 5 50 10 0 6 -18 10 -41 10 -36 0
-40 2 -37 23 2 17 11 23 38 28 l35 6 -35 4 c-23 3 -36 10 -38 22 -3 13 4 17
32 17 19 0 38 5 41 10 4 6 -13 10 -44 10 l-51 0 0 -70z"/>
<path d="M6060 2749 c0 -44 4 -68 10 -64 6 3 10 17 10 31 0 32 10 30 42 -8 31
-38 50 -31 20 7 -21 26 -21 26 -1 46 30 30 10 59 -41 59 l-40 0 0 -71z m68 34
c-2 -10 -13 -19 -26 -21 -17 -3 -22 2 -22 17 0 16 6 21 26 21 19 0 25 -5 22
-17z"/>
<path d="M6180 2750 l0 -70 44 0 c25 0 48 5 51 10 4 6 -10 10 -34 10 -37 0
-41 2 -41 25 0 22 4 25 36 25 19 0 33 4 30 8 -3 5 -19 7 -36 4 -25 -4 -30 -1
-30 17 0 17 6 21 35 21 19 0 35 5 35 10 0 6 -20 10 -45 10 l-45 0 0 -70z"/>
<path d="M6934 2806 c-15 -17 -3 -107 17 -119 9 -6 25 -7 35 -2 17 7 17 8 -6
14 -20 6 -26 14 -28 44 -3 34 -1 37 23 37 15 0 24 4 20 10 -3 6 -15 10 -25 10
-10 0 -20 4 -22 9 -1 5 -8 4 -14 -3z"/>
<path d="M7030 2810 c0 -5 9 -10 20 -10 18 0 20 -7 20 -54 0 -30 5 -58 10 -61
6 -4 10 17 10 54 0 58 1 61 25 61 14 0 25 5 25 10 0 6 -25 10 -55 10 -30 0
-55 -4 -55 -10z"/>
<path d="M7782 2808 c-7 -7 -12 -31 -12 -53 0 -43 22 -75 52 -75 18 0 54 37
45 47 -4 4 -14 -2 -22 -13 -20 -28 -49 -7 -53 38 -4 46 20 68 46 44 21 -18 38
-10 21 11 -14 16 -61 17 -77 1z"/>
<path d="M2640 2780 c-11 -11 -20 -29 -20 -40 0 -23 33 -60 53 -60 19 0 53 27
45 36 -4 4 -14 1 -23 -6 -23 -19 -45 -5 -45 30 0 35 22 49 45 30 9 -7 19 -10
23 -6 8 9 -26 36 -45 36 -7 0 -22 -9 -33 -20z"/>
<path d="M3623 2787 c-18 -23 -22 -47 -13 -73 9 -22 15 -26 41 -22 23 4 29 1
27 -11 -3 -12 -14 -15 -38 -14 -33 3 -34 2 -16 -12 48 -36 78 -5 74 78 -3 59
-3 60 -34 63 -18 2 -36 -2 -41 -9z m51 -29 c8 -13 8 -23 0 -35 -19 -31 -39
-21 -42 20 -3 32 0 38 14 35 9 -1 22 -11 28 -20z"/>
<path d="M3748 2789 c-26 -15 -25 -85 1 -99 26 -13 33 -13 57 4 18 13 17 14
-15 13 -48 -3 -52 21 -4 25 32 2 37 6 35 23 -4 21 -29 45 -46 45 -6 0 -19 -5
-28 -11z m50 -26 c2 -8 -6 -13 -22 -13 -25 0 -33 10 -19 24 10 10 36 3 41 -11z"/>
<path d="M4700 2797 c0 -2 11 -30 25 -60 l24 -56 -21 -15 c-12 -9 -18 -19 -14
-23 15 -15 41 16 68 82 32 77 31 75 19 75 -5 0 -17 -21 -27 -46 l-18 -46 -16
43 c-10 24 -22 45 -29 47 -6 2 -11 2 -11 -1z"/>
<path d="M4960 2746 c0 -59 8 -67 60 -62 23 2 25 7 25 54 0 64 -18 73 -25 12
-4 -32 -10 -46 -22 -48 -15 -3 -18 4 -18 42 0 25 -4 48 -10 51 -6 4 -10 -15
-10 -49z"/>
<path d="M5218 2789 c-26 -15 -25 -85 1 -99 26 -13 33 -13 57 4 18 13 17 14
-15 13 -48 -3 -52 21 -4 25 32 2 37 6 35 23 -4 21 -29 45 -46 45 -6 0 -19 -5
-28 -11z m50 -26 c2 -8 -6 -13 -22 -13 -25 0 -33 10 -19 24 10 10 36 3 41 -11z"/>
<path d="M6806 2784 c-9 -8 -16 -28 -16 -44 0 -49 52 -79 79 -46 10 12 6 14
-20 13 -18 -1 -34 4 -36 11 -3 8 7 12 31 12 43 0 53 13 32 45 -19 29 -47 32
-70 9z m54 -19 c0 -9 -9 -15 -25 -15 -24 0 -32 10 -18 23 12 13 43 7 43 -8z"/>
<path d="M7178 2789 c-12 -7 -18 -22 -18 -49 0 -48 27 -69 66 -51 46 20 26
113 -23 111 -4 0 -16 -5 -25 -11z m47 -49 c0 -28 -4 -35 -20 -35 -13 0 -21 8
-23 23 -5 34 5 54 25 50 13 -2 18 -13 18 -38z"/>
<path d="M7668 2789 c-28 -16 -21 -39 17 -55 47 -19 46 -38 -1 -31 -30 5 -34
4 -24 -8 16 -19 41 -19 66 -1 15 12 17 18 8 33 -6 10 -21 20 -33 23 -32 7 -21
25 14 23 28 -1 29 -1 11 13 -23 16 -35 17 -58 3z"/>
<path d="M8030 2785 c-7 -9 -9 -19 -5 -23 4 -4 10 -1 12 6 6 17 43 15 43 -2 0
-8 -12 -16 -26 -18 -38 -4 -54 -32 -32 -55 14 -14 22 -15 43 -5 15 7 25 8 25
2 0 -6 7 -10 15 -10 8 0 15 5 15 10 0 6 -4 10 -10 10 -5 0 -10 17 -10 38 0 57
-40 83 -70 47z m50 -59 c0 -19 -17 -29 -37 -22 -12 5 -13 9 -3 21 16 19 40 19
40 1z"/>
<path d="M8150 2747 c0 -31 5 -59 10 -62 6 -4 10 7 10 25 0 42 16 70 40 70 11
0 20 5 20 10 0 13 -37 13 -45 0 -5 -8 -11 -7 -21 1 -12 10 -14 3 -14 -44z"/>
<path d="M8283 2793 c-7 -2 -13 -15 -13 -28 0 -18 7 -25 30 -30 17 -4 30 -13
30 -21 0 -17 -31 -19 -47 -3 -8 8 -13 8 -17 0 -11 -17 42 -37 62 -24 30 18 26
49 -7 61 -42 15 -41 37 0 28 27 -5 30 -4 19 9 -12 15 -34 18 -57 8z"/>
<path d="M2990 2780 c0 -5 23 -10 50 -10 28 0 50 5 50 10 0 6 -22 10 -50 10
-27 0 -50 -4 -50 -10z"/>
<path d="M2990 2730 c0 -5 23 -10 50 -10 28 0 50 5 50 10 0 6 -22 10 -50 10
-27 0 -50 -4 -50 -10z"/>
<path d="M3520 2700 c0 -11 5 -20 10 -20 6 0 10 9 10 20 0 11 -4 20 -10 20 -5
0 -10 -9 -10 -20z"/>
<path d="M5920 2670 c0 -6 27 -10 60 -10 33 0 60 4 60 10 0 6 -27 10 -60 10
-33 0 -60 -4 -60 -10z"/>
<path d="M1890 2540 c0 -5 9 -10 20 -10 16 0 20 -7 20 -35 0 -21 5 -35 12 -35
9 0 9 -3 0 -12 -7 -7 -12 -27 -12 -45 0 -27 -4 -33 -22 -33 -16 0 -19 -3 -11
-11 19 -19 53 7 53 41 0 17 7 33 18 40 16 10 16 10 0 20 -10 6 -18 23 -18 38
0 16 -5 33 -12 40 -15 15 -48 16 -48 2z"/>
<path d="M2662 2538 c6 -18 28 -21 28 -4 0 9 -7 16 -16 16 -9 0 -14 -5 -12
-12z"/>
<path d="M2767 2520 c-21 -22 -25 -30 -13 -30 12 0 16 -11 16 -45 0 -33 4 -45
15 -45 11 0 15 12 15 45 0 42 2 45 26 45 14 0 23 4 19 10 -3 6 -15 10 -26 10
-11 0 -17 5 -14 10 3 6 15 10 26 10 10 0 19 5 19 10 0 23 -56 9 -83 -20z"/>
<path d="M2915 2530 c-28 -31 -31 -108 -5 -149 27 -42 35 -35 15 12 -19 46
-19 80 1 118 19 37 14 46 -11 19z"/>
<path d="M4840 2540 c0 -5 7 -10 15 -10 12 0 15 -13 15 -59 0 -54 -2 -60 -22
-64 -13 -2 2 -4 32 -4 30 0 45 2 33 4 -21 4 -23 10 -23 74 0 67 -1 69 -25 69
-14 0 -25 -4 -25 -10z"/>
<path d="M5100 2543 c1 -5 7 -19 15 -33 19 -33 19 -84 -1 -121 -22 -43 -10
-49 15 -8 25 41 27 89 5 135 -15 30 -35 46 -34 27z"/>
<path d="M5242 2538 c-7 -7 -12 -26 -12 -44 0 -18 -6 -35 -12 -38 -10 -5 -10
-7 0 -12 6 -3 12 -21 12 -39 0 -33 20 -55 49 -55 18 0 12 17 -8 23 -21 5 -29
48 -23 116 3 32 8 41 23 41 10 0 19 5 19 10 0 14 -33 13 -48 -2z"/>
<path d="M2995 2532 c-3 -3 -5 -34 -5 -69 0 -49 3 -63 15 -63 9 0 15 9 15 25
0 14 4 25 10 25 5 0 17 -11 26 -25 9 -14 23 -25 31 -25 11 0 10 6 -6 26 -19
24 -20 28 -5 38 9 7 14 22 12 37 -2 20 -10 25 -46 30 -23 3 -44 3 -47 1z m64
-21 c19 -12 6 -41 -19 -41 -15 0 -20 7 -20 25 0 26 14 31 39 16z"/>
<path d="M3116 2533 c-3 -3 -6 -26 -6 -50 0 -73 26 -102 75 -83 23 9 25 15 25
70 0 33 -4 60 -10 60 -5 0 -10 -24 -10 -54 0 -40 -4 -55 -16 -60 -27 -10 -34
3 -34 59 0 51 -9 73 -24 58z"/>
<path d="M3729 2537 c-6 -29 -1 -137 7 -137 6 0 9 18 8 45 -3 51 2 57 16 20
12 -32 24 -32 37 3 10 25 11 24 12 -20 1 -27 6 -48 11 -48 7 0 10 25 8 68 -2
37 -7 67 -13 66 -5 0 -17 -15 -27 -33 l-16 -32 -7 30 c-3 16 -13 32 -21 35 -8
3 -14 4 -15 3z"/>
<path d="M3992 2524 c-33 -23 -32 -97 3 -120 23 -15 27 -15 50 0 35 23 36 97
3 120 -12 9 -25 16 -28 16 -3 0 -16 -7 -28 -16z m46 -16 c17 -17 15 -73 -4
-89 -14 -11 -18 -10 -30 6 -24 32 -13 95 16 95 3 0 11 -5 18 -12z"/>
<path d="M4100 2468 c0 -39 4 -68 10 -68 6 0 10 11 10 25 0 14 6 25 13 25 8 0
19 -11 25 -25 6 -14 19 -25 28 -25 14 0 13 4 -4 27 -19 25 -19 26 0 45 28 28
9 55 -42 60 l-40 4 0 -68z m59 43 c19 -12 6 -41 -19 -41 -15 0 -20 7 -20 25 0
26 14 31 39 16z"/>
<path d="M3623 2523 c23 -6 25 -103 2 -103 -8 0 -15 -4 -15 -10 0 -5 21 -10
46 -10 27 0 43 4 39 10 -3 6 -13 10 -21 10 -12 0 -14 11 -12 48 2 27 8 47 15
47 6 0 15 3 19 8 4 4 -15 6 -42 6 -27 -1 -41 -3 -31 -6z"/>
<path d="M3850 2466 c0 -37 4 -66 10 -66 6 0 10 11 10 24 0 20 6 25 31 28 71
7 63 71 -10 76 l-41 3 0 -65z m65 41 c23 -17 12 -37 -21 -37 -17 0 -24 6 -24
18 0 33 16 40 45 19z"/>
<path d="M2026 2494 c-19 -18 -21 -65 -4 -82 13 -13 47 -16 72 -6 27 11 17 24
-15 22 -19 -2 -34 2 -36 10 -3 8 7 12 31 12 25 0 36 5 36 14 0 20 -28 46 -50
46 -10 0 -26 -7 -34 -16z m51 -20 c2 -5 -6 -10 -17 -10 -20 0 -25 7 -13 20 9
8 26 3 30 -10z"/>
<path d="M2635 2500 c-3 -5 1 -10 9 -10 12 0 16 -10 16 -35 0 -28 -4 -35 -20
-35 -11 0 -20 -4 -20 -10 0 -5 25 -10 55 -10 30 0 55 5 55 10 0 6 -9 10 -20
10 -17 0 -20 7 -20 45 0 41 -2 45 -24 45 -14 0 -28 -4 -31 -10z"/>
<path d="M4710 2460 c0 -52 21 -78 50 -60 7 4 19 6 27 3 10 -4 13 8 13 51 0
31 -4 56 -10 56 -5 0 -10 -17 -10 -39 0 -39 -20 -68 -40 -56 -5 3 -10 26 -10
51 0 24 -4 44 -10 44 -5 0 -10 -22 -10 -50z"/>
<path d="M4966 2494 c-41 -41 4 -121 54 -94 11 6 20 15 20 20 0 6 -8 5 -19 -2
-15 -9 -23 -9 -35 1 -26 22 -19 31 24 31 28 0 40 4 40 14 0 20 -28 46 -50 46
-10 0 -26 -7 -34 -16z m62 -21 c2 -9 -7 -13 -27 -13 -30 0 -39 9 -24 24 11 10
46 3 51 -11z"/>
<path d="M2543 2184 c-23 -41 -38 -74 -32 -72 13 4 93 148 82 148 -4 0 -27
-34 -50 -76z"/>
<path d="M3240 2185 c0 -43 4 -75 10 -75 6 0 10 17 10 39 0 39 20 68 40 56 5
-3 10 -26 10 -51 0 -24 5 -44 10 -44 6 0 10 20 10 44 0 48 -18 71 -50 63 -16
-4 -20 0 -20 19 0 13 -4 24 -10 24 -6 0 -10 -32 -10 -75z"/>
<path d="M3680 2236 c0 -23 -3 -26 -23 -21 -32 8 -49 -15 -45 -62 3 -37 4 -38
43 -39 l40 -2 0 68 c0 38 -3 72 -7 76 -5 4 -8 -5 -8 -20z m-12 -38 c30 -30 -1
-94 -33 -68 -18 15 -19 34 -5 61 12 22 21 24 38 7z"/>
<path d="M3740 2250 c0 -5 7 -10 15 -10 12 0 15 -13 15 -61 0 -56 -2 -61 -20
-56 -11 3 -20 1 -20 -4 0 -5 24 -8 53 -8 28 1 42 4 30 6 -21 4 -23 10 -23 74
0 67 -1 69 -25 69 -14 0 -25 -4 -25 -10z"/>
<path d="M5270 2236 c0 -19 -4 -23 -20 -19 -29 8 -50 -14 -50 -51 0 -45 11
-56 53 -54 l37 1 0 74 c0 42 -4 73 -10 73 -5 0 -10 -11 -10 -24z m-12 -38 c17
-17 15 -65 -4 -72 -24 -9 -34 2 -34 38 0 45 14 58 38 34z"/>
<path d="M5611 2246 c-1 -12 -6 -16 -16 -12 -8 3 -15 1 -15 -4 0 -6 4 -10 10
-10 5 0 7 -7 3 -17 -5 -12 1 -10 25 7 34 25 41 36 18 27 -9 -4 -17 1 -19 11
-4 15 -5 14 -6 -2z"/>
<path d="M2766 2234 c-19 -18 -22 -94 -4 -112 17 -17 53 -15 69 4 20 24 16 95
-7 111 -23 17 -39 16 -58 -3z m54 -23 c14 -28 12 -57 -5 -75 -21 -21 -42 -10
-50 24 -12 54 31 94 55 51z"/>
<path d="M3010 2230 c-39 -39 -18 -120 30 -120 50 0 71 94 28 124 -29 20 -34
20 -58 -4z m58 -46 c2 -27 -2 -45 -13 -54 -23 -19 -45 5 -45 50 0 43 7 52 35
48 16 -2 21 -12 23 -44z"/>
<path d="M4238 2231 c-9 -10 -12 -23 -8 -27 5 -5 10 -27 12 -49 3 -35 6 -40
31 -43 15 -2 27 1 27 6 0 5 -8 9 -17 8 -14 -1 -19 8 -21 37 -3 32 0 37 17 37
12 0 21 5 21 10 0 6 -9 10 -19 10 -11 0 -21 7 -23 15 -2 13 -6 13 -20 -4z"/>
<path d="M2638 2233 c20 -4 22 -10 22 -64 0 -33 4 -59 10 -59 6 0 10 26 10 59
0 57 1 60 28 64 15 2 0 4 -33 4 -33 0 -50 -2 -37 -4z"/>
<path d="M2870 2175 l0 -65 30 0 c38 0 70 31 70 68 0 37 -28 62 -68 62 l-32 0
0 -65z m68 43 c27 -27 10 -88 -24 -88 -22 0 -24 4 -24 50 0 41 3 50 18 50 10
0 23 -5 30 -12z"/>
<path d="M3377 2213 c-14 -13 -7 -25 8 -13 15 12 45 7 45 -8 0 -4 -15 -12 -32
-17 -23 -7 -34 -17 -36 -33 -4 -27 23 -40 49 -24 11 7 20 8 24 2 3 -6 10 -10
14 -10 9 0 -1 80 -13 98 -8 13 -48 16 -59 5z m53 -61 c0 -12 -23 -32 -37 -32
-7 0 -13 9 -13 20 0 15 7 20 25 20 14 0 25 -4 25 -8z"/>
<path d="M3490 2161 c0 -59 11 -64 15 -5 4 70 51 63 58 -9 3 -31 4 -27 3 13
l-1 55 -37 0 -38 1 0 -55z"/>
<path d="M3866 2204 c-19 -19 -21 -54 -3 -78 15 -21 68 -19 75 2 3 11 0 12
-16 3 -24 -13 -52 -5 -52 15 0 9 12 14 35 14 27 0 35 4 35 18 0 39 -45 55 -74
26z m53 -7 c14 -17 4 -27 -26 -27 -35 0 -28 35 8 39 4 1 12 -5 18 -12z"/>
<path d="M4110 2206 c-16 -20 -1 -41 35 -50 14 -4 25 -11 25 -17 0 -17 -32
-23 -52 -10 -16 10 -19 10 -16 -1 7 -19 62 -22 78 -4 16 20 1 41 -35 50 -14 4
-25 11 -25 17 0 17 29 22 47 8 14 -12 16 -12 11 1 -6 21 -52 24 -68 6z"/>
<path d="M4722 2208 c-7 -7 -12 -26 -12 -43 0 -17 5 -36 12 -43 17 -17 53 -15
68 3 14 17 0 21 -17 4 -20 -20 -43 -2 -43 35 0 36 24 56 44 36 16 -16 30 -12
16 5 -15 18 -51 20 -68 3z"/>
<path d="M4965 2209 c-11 -16 3 -23 19 -10 8 7 20 10 26 6 18 -11 11 -23 -19
-30 -31 -7 -44 -25 -35 -50 4 -10 19 -14 48 -13 l41 2 -4 41 c-2 22 -8 46 -13
53 -13 15 -54 16 -63 1z m55 -58 c0 -14 -28 -33 -40 -26 -20 12 -10 35 15 35
14 0 25 -4 25 -9z"/>
<path d="M5080 2163 c0 -29 5 -53 10 -53 6 0 10 20 10 44 0 31 5 46 16 50 26
10 34 -2 34 -50 0 -24 5 -44 10 -44 13 0 13 66 0 91 -8 14 -20 18 -45 16 l-35
-2 0 -52z"/>
<path d="M5620 2200 c0 -5 5 -10 11 -10 5 0 7 5 4 10 -3 6 -8 10 -11 10 -2 0
-4 -4 -4 -10z"/>
<path d="M5480 2125 c0 -8 5 -15 10 -15 6 0 10 7 10 15 0 8 -4 15 -10 15 -5 0
-10 -7 -10 -15z"/>
<path d="M2540 1960 c0 -5 7 -10 15 -10 8 0 15 5 15 10 0 6 -7 10 -15 10 -8 0
-15 -4 -15 -10z"/>
<path d="M2880 1960 c0 -5 7 -10 15 -10 12 0 15 -13 15 -55 0 -48 -2 -55 -20
-55 -11 0 -20 -4 -20 -10 0 -5 23 -10 50 -10 28 0 50 5 50 10 0 6 -7 10 -15
10 -12 0 -15 14 -15 65 l0 65 -30 0 c-16 0 -30 -4 -30 -10z"/>
<path d="M4170 1947 c0 -20 -4 -23 -30 -19 -25 4 -31 0 -40 -23 -7 -17 -7 -38
-2 -54 7 -22 15 -26 50 -27 l42 -2 0 74 c0 43 -4 74 -10 74 -5 0 -10 -10 -10
-23z m-10 -47 c15 -28 3 -60 -21 -60 -15 0 -19 7 -19 33 0 50 20 63 40 27z"/>
<path d="M6060 1895 c0 -43 4 -75 10 -75 6 0 10 20 10 44 0 32 5 46 17 50 22
9 33 -10 33 -56 0 -21 5 -38 10 -38 12 0 13 80 1 99 -5 8 -19 12 -35 9 -22 -4
-26 -2 -26 18 0 13 -4 24 -10 24 -6 0 -10 -32 -10 -75z"/>
<path d="M7050 1960 c0 -5 7 -10 15 -10 12 0 15 -13 15 -55 0 -52 -1 -55 -25
-55 -14 0 -25 -4 -25 -10 0 -5 23 -10 50 -10 28 0 50 5 50 10 0 6 -7 10 -15
10 -12 0 -15 14 -15 65 0 63 -1 65 -25 65 -14 0 -25 -4 -25 -10z"/>
<path d="M7315 1940 c-8 -16 -15 -45 -15 -65 0 -38 24 -95 40 -95 13 0 13 3
-5 36 -8 16 -15 43 -15 59 0 17 7 43 15 59 18 33 18 36 5 36 -5 0 -16 -13 -25
-30z"/>
<path d="M3121 1941 c-13 -23 3 -46 42 -60 33 -13 36 -41 4 -41 -13 0 -28 5
-35 12 -17 17 -28 2 -12 -17 27 -32 110 -5 96 32 -3 8 -6 16 -6 18 0 2 -16 9
-35 15 -19 6 -35 18 -35 26 0 17 47 19 53 2 2 -7 8 -10 12 -6 14 13 -17 38
-46 38 -17 0 -32 -7 -38 -19z"/>
<path d="M3504 1942 c-7 -10 -10 -32 -7 -48 11 -72 12 -74 43 -74 35 0 41 17
8 22 -18 2 -24 11 -26 36 -3 26 0 32 17 32 11 0 23 5 26 10 3 6 -5 10 -19 10
-14 0 -26 7 -28 15 -2 13 -5 12 -14 -3z"/>
<path d="M3850 1890 c0 -40 4 -70 10 -70 6 0 10 24 11 53 l0 52 24 -53 c14
-30 30 -52 36 -50 16 5 15 131 -1 136 -9 3 -11 -10 -9 -47 2 -28 3 -51 2 -51
-1 0 -12 23 -24 50 -31 73 -49 66 -49 -20z"/>
<path d="M5828 1941 c-9 -10 -12 -23 -8 -27 5 -5 10 -27 12 -49 3 -37 5 -40
36 -43 18 -2 32 1 32 7 0 6 -11 11 -25 11 -22 0 -25 4 -25 35 0 28 4 35 19 35
11 0 23 5 26 10 3 6 -5 10 -19 10 -14 0 -26 7 -28 15 -2 13 -6 13 -20 -4z"/>
<path d="M5946 1944 c-22 -22 -21 -87 2 -107 23 -21 56 -22 72 -2 16 19 5 34
-12 17 -20 -20 -47 -14 -54 13 -14 56 20 97 54 63 17 -17 28 -2 12 17 -16 20
-54 19 -74 -1z"/>
<path d="M6790 1890 c0 -40 4 -70 10 -70 6 0 10 14 10 30 0 18 5 30 13 30 7 0
21 -13 30 -30 10 -16 22 -30 28 -30 13 0 11 7 -6 34 -14 21 -14 24 0 36 37 30
6 70 -54 70 l-31 0 0 -70z m75 30 c0 -9 -11 -16 -27 -18 -23 -3 -28 1 -28 18
0 17 5 21 28 18 16 -2 27 -9 27 -18z"/>
<path d="M7400 1890 c0 -56 3 -70 15 -70 10 0 15 10 15 30 0 17 4 30 10 30 5
0 16 -13 25 -30 9 -16 22 -30 31 -30 13 0 12 5 -5 29 -18 25 -19 30 -6 41 36
30 9 70 -47 70 l-38 0 0 -70z m75 30 c0 -8 -10 -16 -22 -18 -18 -3 -23 2 -23
18 0 16 5 21 23 18 12 -2 22 -10 22 -18z"/>
<path d="M7520 1909 c0 -65 13 -89 48 -89 41 0 52 17 52 82 0 75 -18 76 -22 1
-3 -51 -6 -58 -25 -61 -22 -3 -23 0 -23 57 0 48 -3 61 -15 61 -11 0 -15 -12
-15 -51z"/>
<path d="M7660 1890 l0 -70 45 0 c25 0 45 5 45 10 0 6 -16 10 -35 10 l-35 0 0
60 c0 33 -4 60 -10 60 -6 0 -10 -30 -10 -70z"/>
<path d="M7770 1890 l0 -70 50 0 c28 0 50 5 50 10 0 6 -18 10 -40 10 -33 0
-40 3 -40 20 0 16 7 20 35 20 19 0 35 5 35 10 0 6 -16 10 -35 10 -28 0 -35 4
-35 20 0 17 7 20 40 20 22 0 40 5 40 10 0 6 -22 10 -50 10 l-50 0 0 -70z"/>
<path d="M8020 1950 c0 -5 7 -10 15 -10 11 0 15 -12 15 -50 0 -38 -4 -50 -15
-50 -8 0 -15 -4 -15 -10 0 -5 20 -10 45 -10 25 0 45 5 45 10 0 6 -9 10 -20 10
-17 0 -20 7 -20 50 0 44 3 50 21 50 11 0 17 5 14 10 -3 6 -24 10 -46 10 -21 0
-39 -4 -39 -10z"/>
<path d="M8137 1953 c-11 -10 -8 -121 3 -128 6 -4 10 14 11 47 1 53 1 53 14
23 15 -34 25 -33 42 4 10 24 11 22 12 -28 1 -39 4 -52 12 -44 14 14 7 125 -8
130 -7 3 -18 -10 -26 -29 l-13 -33 -12 33 c-11 31 -22 39 -35 25z"/>
<path d="M8260 1890 c0 -40 4 -70 10 -70 6 0 10 11 10 25 0 20 5 25 24 25 49
0 76 59 37 80 -11 5 -33 10 -50 10 l-31 0 0 -70z m74 41 c11 -18 -6 -41 -30
-41 -19 0 -24 5 -24 25 0 20 5 25 24 25 14 0 27 -4 30 -9z"/>
<path d="M2510 1920 c0 -5 7 -10 15 -10 10 0 15 -11 15 -35 0 -28 -4 -35 -20
-35 -11 0 -20 -4 -20 -10 0 -5 22 -10 49 -10 28 0 53 5 56 10 3 6 -3 10 -14
10 -18 0 -21 6 -21 45 0 43 -1 45 -30 45 -16 0 -30 -4 -30 -10z"/>
<path d="M2626 1876 c1 -36 6 -51 15 -51 8 0 13 6 11 14 -6 26 10 71 24 71 10
0 14 -13 14 -45 0 -34 4 -45 16 -45 12 0 14 10 12 53 l-3 52 -45 1 -45 2 1
-52z"/>
<path d="M2757 1923 c-16 -15 -5 -24 23 -18 17 4 30 2 30 -3 0 -5 -13 -12 -29
-15 -32 -7 -47 -33 -31 -52 6 -7 30 -13 54 -13 l44 1 -6 41 c-2 23 -9 47 -15
54 -10 13 -59 17 -70 5z m53 -62 c0 -14 -18 -23 -30 -16 -6 4 -8 11 -5 16 8
12 35 12 35 0z"/>
<path d="M3240 1905 c5 -14 16 -37 23 -53 16 -31 12 -52 -9 -52 -8 0 -14 -5
-14 -11 0 -6 8 -9 18 -7 10 2 31 31 49 68 35 72 38 80 23 80 -6 0 -18 -19 -27
-42 l-17 -42 -17 42 c-20 45 -46 61 -29 17z"/>
<path d="M3360 1873 c0 -39 4 -53 13 -50 7 2 11 16 9 33 -3 33 19 71 36 60 7
-4 12 -27 12 -52 0 -24 5 -44 11 -44 6 0 9 21 7 53 l-3 52 -42 1 -43 2 0 -55z"/>
<path d="M3615 1920 c-11 -17 3 -24 19 -11 8 7 20 10 26 6 18 -11 11 -25 -14
-25 -30 0 -50 -23 -41 -49 5 -17 14 -20 55 -19 28 1 50 5 50 10 0 4 -4 8 -9 8
-6 0 -11 19 -13 43 -3 39 -5 42 -35 45 -17 2 -34 -2 -38 -8z m55 -59 c0 -6 -5
-13 -10 -16 -15 -9 -43 3 -35 15 8 13 45 13 45 1z"/>
<path d="M3730 1923 c0 -3 8 -15 17 -25 15 -17 15 -20 -6 -48 -14 -20 -17 -30
-9 -30 7 0 19 10 27 22 l14 22 17 -22 c27 -33 44 -26 19 8 -22 29 -22 30 -4
50 10 11 15 23 11 28 -4 4 -16 -3 -25 -14 -17 -21 -18 -21 -29 -3 -12 18 -32
26 -32 12z"/>
<path d="M3982 1918 c-31 -31 -5 -98 38 -98 32 0 50 22 50 62 0 31 -18 48 -50
48 -14 0 -31 -5 -38 -12z m58 -12 c18 -23 8 -61 -17 -64 -17 -3 -24 3 -29 22
-4 16 -1 32 6 41 16 19 24 19 40 1z"/>
<path d="M4224 1906 c-14 -58 11 -94 59 -82 37 9 34 24 -4 22 -18 0 -34 5 -36
12 -3 8 7 12 31 12 41 0 47 7 35 38 -6 17 -16 22 -43 22 -29 0 -37 -4 -42 -24z
m64 -3 c2 -8 -6 -13 -22 -13 -25 0 -33 10 -19 24 10 10 36 3 41 -11z"/>
<path d="M5212 1918 c-7 -7 -12 -26 -12 -43 0 -36 15 -55 46 -55 23 0 51 26
40 37 -4 4 -11 1 -15 -6 -15 -24 -46 -8 -49 25 -3 35 21 53 45 33 15 -13 28
-6 18 10 -9 15 -58 14 -73 -1z"/>
<path d="M5320 1873 c0 -39 4 -53 13 -50 7 2 11 16 9 33 -3 33 19 71 36 60 7
-4 12 -27 12 -52 0 -24 5 -44 11 -44 6 0 9 21 7 53 l-3 52 -42 1 -43 2 0 -55z"/>
<path d="M5570 1904 c-6 -14 -7 -36 -4 -49 7 -27 40 -43 57 -26 8 8 5 11 -11
11 -18 0 -22 6 -22 34 0 19 5 38 12 42 18 12 36 -24 34 -69 -1 -41 -2 -42 -34
-40 -27 1 -31 -1 -21 -13 17 -20 57 -17 69 5 5 11 10 44 10 74 l0 54 -40 1
c-35 2 -42 -2 -50 -24z"/>
<path d="M5701 1916 c-17 -20 -10 -77 10 -89 17 -11 69 -2 69 12 0 5 -14 8
-31 7 -18 0 -34 5 -36 12 -3 8 7 12 31 12 37 0 43 10 30 44 -8 20 -57 21 -73
2z m57 -13 c2 -8 -6 -13 -22 -13 -25 0 -33 10 -19 24 10 10 36 3 41 -11z"/>
<path d="M6670 1905 c5 -14 16 -37 23 -53 16 -31 12 -52 -9 -52 -8 0 -14 -4
-14 -10 0 -19 29 -10 44 13 24 37 56 127 46 127 -6 0 -18 -19 -27 -42 l-17
-42 -17 42 c-20 45 -46 61 -29 17z"/>
<path d="M6922 1878 l3 -53 39 0 40 1 0 52 c1 35 -3 52 -11 52 -9 0 -13 -16
-13 -45 0 -38 -3 -45 -20 -45 -17 0 -20 7 -20 45 0 25 -5 45 -11 45 -6 0 -9
-21 -7 -52z"/>
<path d="M7164 1906 c-14 -58 11 -94 59 -82 37 9 34 24 -4 22 -18 0 -34 5 -36
12 -3 8 7 12 31 12 37 0 43 10 30 44 -4 10 -18 16 -40 16 -27 0 -35 -5 -40
-24z m64 -3 c2 -8 -6 -13 -22 -13 -25 0 -33 10 -19 24 10 10 36 3 41 -11z"/>
<path d="M4973 1913 c15 -2 39 -2 55 0 15 2 2 4 -28 4 -30 0 -43 -2 -27 -4z"/>
<path d="M4973 1863 c15 -2 39 -2 55 0 15 2 2 4 -28 4 -30 0 -43 -2 -27 -4z"/>
<path d="M5480 1835 c0 -8 5 -15 10 -15 6 0 10 7 10 15 0 8 -4 15 -10 15 -5 0
-10 -7 -10 -15z"/>
<path d="M7908 1803 c17 -2 47 -2 65 0 17 2 3 4 -33 4 -36 0 -50 -2 -32 -4z"/>
<path d="M3270 1690 c0 -14 -5 -18 -17 -13 -15 6 -16 -4 -10 -104 4 -68 1
-172 -8 -274 -8 -90 -15 -167 -15 -171 0 -5 -192 -8 -427 -9 -236 0 -422 -3
-415 -6 7 -3 22 -23 33 -45 34 -67 40 -68 459 -68 411 0 425 2 456 61 15 30
22 88 49 391 8 95 29 128 80 128 54 0 64 -24 80 -211 8 -90 15 -167 15 -171 0
-12 51 -68 62 -68 7 0 8 23 3 66 -7 64 -6 65 13 53 16 -10 26 -10 47 -1 35 16
29 43 -13 61 -44 20 -41 35 6 27 34 -6 36 -5 18 9 -27 21 -52 19 -69 -5 -12
-17 -15 5 -27 175 l-13 195 -153 0 c-147 0 -154 -1 -154 -20z m401 -416 c0
-14 -31 -17 -46 -4 -8 7 -15 18 -15 26 0 11 5 11 31 0 17 -7 30 -17 30 -22z"/>
<path d="M7380 1658 c0 -56 -12 -89 -24 -69 -4 6 -16 11 -27 11 -11 0 -19 7
-19 16 0 13 7 15 33 10 30 -5 31 -5 12 9 -11 9 -26 13 -33 10 -8 -3 -18 -5
-23 -5 -5 0 -9 -11 -9 -25 0 -20 6 -27 30 -31 17 -4 30 -13 30 -22 0 -11 -8
-13 -36 -9 -30 5 -34 4 -24 -8 15 -18 52 -19 68 -3 10 10 11 -8 6 -87 -6 -96
-12 -123 -21 -99 -2 6 -10 20 -18 30 -19 27 -30 10 -11 -18 20 -29 21 -100 1
-138 -18 -34 -5 -41 16 -9 13 18 14 14 11 -40 l-4 -61 -431 -1 c-238 -1 -425
-3 -415 -6 9 -2 21 -17 28 -33 6 -15 23 -39 37 -52 l25 -23 389 -3 c433 -3
442 -2 473 62 9 20 22 112 34 247 11 119 25 226 31 237 23 43 99 41 119 -2 6
-14 16 -94 23 -178 12 -162 24 -209 58 -228 20 -10 21 -8 21 42 0 29 -5 105
-10 168 -6 63 -12 156 -14 205 -2 50 -7 105 -11 123 l-7 32 -154 0 -154 0 0
-52z"/>
<path d="M2540 1670 c0 -5 7 -10 15 -10 8 0 15 5 15 10 0 6 -7 10 -15 10 -8 0
-15 -4 -15 -10z"/>
<path d="M2880 1670 c0 -5 7 -10 15 -10 11 0 15 -12 15 -51 0 -42 -3 -52 -20
-56 -37 -10 -20 -23 30 -23 28 0 50 5 50 10 0 6 -7 10 -15 10 -12 0 -15 14
-15 65 l0 65 -30 0 c-16 0 -30 -4 -30 -10z"/>
<path d="M3874 1655 c-12 -13 -17 -26 -11 -28 6 -2 11 -21 11 -43 1 -56 20
-58 24 -2 3 42 6 47 30 51 l27 4 -28 2 c-30 1 -34 26 -4 26 8 0 19 4 23 8 4 4
-6 7 -22 7 -18 0 -37 -9 -50 -25z"/>
<path d="M4123 1669 c13 -8 17 -23 17 -64 0 -52 -1 -55 -25 -55 -14 0 -25 -4
-25 -10 0 -5 22 -10 49 -10 28 0 53 5 56 10 3 6 -3 10 -14 10 -19 0 -21 6 -21
65 0 64 0 65 -27 65 -24 -1 -25 -2 -10 -11z"/>
<path d="M4243 1673 c14 -4 17 -16 17 -64 0 -57 -1 -59 -26 -59 -14 0 -23 -4
-19 -10 3 -5 28 -10 56 -10 27 0 49 5 49 10 0 6 -9 10 -20 10 -18 0 -20 7 -20
65 0 65 0 65 -27 64 -17 -1 -21 -3 -10 -6z"/>
<path d="M6920 1603 c0 -80 16 -93 22 -18 2 28 8 41 20 43 14 3 17 -6 20 -45
2 -26 7 -47 13 -45 13 3 6 95 -8 104 -7 4 -20 5 -29 2 -13 -4 -18 0 -18 15 0
12 -4 21 -10 21 -6 0 -10 -32 -10 -77z"/>
<path d="M3126 1648 c-22 -31 -20 -74 4 -98 25 -25 52 -26 73 -2 22 24 9 37
-14 16 -30 -27 -51 -11 -47 38 2 33 8 44 22 46 10 2 22 -2 27 -9 4 -7 11 -10
15 -6 12 11 -17 37 -42 37 -12 0 -30 -10 -38 -22z"/>
<path d="M5955 1653 c-10 -24 -6 -95 7 -110 12 -15 58 -18 58 -4 0 5 -10 11
-22 13 -19 2 -24 10 -26 41 -3 34 -1 37 25 38 20 1 23 3 8 6 -11 3 -25 11 -31
19 -10 13 -13 12 -19 -3z"/>
<path d="M6050 1660 c0 -5 9 -10 20 -10 18 0 20 -7 20 -60 0 -33 4 -60 10 -60
6 0 10 27 10 60 0 57 1 60 25 60 14 0 25 5 25 10 0 6 -25 10 -55 10 -30 0 -55
-4 -55 -10z"/>
<path d="M6802 1658 c-7 -7 -12 -31 -12 -53 0 -64 47 -96 84 -59 9 8 13 20 10
26 -4 7 -10 4 -16 -6 -12 -21 -44 -21 -52 0 -21 54 6 100 44 76 22 -13 34 -4
19 15 -14 16 -61 17 -77 1z"/>
<path d="M2671 1641 c-7 -5 -21 -7 -30 -4 -13 3 -16 -4 -15 -49 1 -38 6 -53
15 -53 8 0 14 11 15 25 2 52 4 60 18 60 10 0 16 -13 18 -42 4 -61 28 -62 28
-1 0 61 -18 84 -49 64z"/>
<path d="M2772 1639 c-12 -5 -22 -13 -22 -19 0 -13 27 -13 35 0 7 12 25 4 25
-11 0 -5 -11 -9 -25 -9 -28 0 -48 -29 -35 -51 6 -8 27 -14 54 -15 49 -2 48 -6
30 82 -4 25 -30 34 -62 23z m28 -74 c-7 -8 -16 -12 -21 -9 -13 8 -1 24 18 24
13 0 13 -3 3 -15z"/>
<path d="M3628 1639 c-28 -16 -21 -39 17 -55 19 -8 35 -19 35 -25 0 -8 -12
-10 -35 -6 -41 7 -48 -9 -8 -19 30 -8 56 5 61 30 2 11 -9 21 -34 32 -28 12
-34 18 -25 27 9 9 16 9 31 -1 11 -7 21 -8 25 -2 3 5 -3 14 -14 19 -24 13 -31
13 -53 0z"/>
<path d="M3982 1593 l3 -58 40 0 40 1 0 52 c0 64 -18 73 -25 12 -4 -32 -10
-46 -22 -48 -15 -3 -18 4 -18 42 0 25 -5 48 -11 51 -7 5 -9 -13 -7 -52z"/>
<path d="M5218 1639 c-21 -12 -25 -78 -6 -97 17 -17 53 -15 68 3 17 20 5 32
-15 15 -23 -19 -45 -5 -45 30 0 35 22 49 45 30 9 -7 19 -10 23 -6 8 8 -26 36
-42 36 -6 0 -19 -5 -28 -11z"/>
<path d="M5348 1643 c-41 -10 -34 -99 8 -109 27 -7 65 18 50 33 -4 4 -11 1
-15 -6 -16 -25 -46 -8 -49 27 -4 36 18 53 43 32 9 -7 19 -10 23 -6 7 7 -26 37
-37 35 -3 -1 -14 -3 -23 -6z"/>
<path d="M5447 1644 c-6 -7 6 -114 13 -114 5 0 10 21 12 47 2 35 7 49 20 51
14 3 17 -6 20 -45 2 -26 8 -47 13 -45 11 3 13 88 2 98 -6 7 -75 13 -80 8z"/>
<path d="M5708 1639 c-27 -15 -25 -85 3 -99 15 -9 24 -8 36 1 13 11 15 10 11
-6 -3 -15 -11 -19 -32 -18 -33 2 -31 -20 3 -25 39 -6 51 15 51 85 0 53 -3 64
-15 60 -8 -4 -17 -2 -20 3 -8 12 -15 12 -37 -1z m48 -35 c7 -28 -16 -61 -35
-50 -12 8 -15 59 -4 69 14 15 33 6 39 -19z"/>
<path d="M5832 1634 c-26 -18 -30 -65 -6 -88 16 -17 33 -20 58 -10 27 10 18
22 -15 20 -46 -2 -49 22 -3 26 45 4 53 19 25 47 -25 25 -30 26 -59 5z m48 -19
c11 -13 8 -15 -19 -15 -30 0 -39 9 -24 23 11 11 30 8 43 -8z"/>
<path d="M6573 1643 c-21 -4 -23 -10 -23 -59 0 -66 18 -72 22 -6 3 39 6 47 23
47 17 0 20 -8 23 -47 4 -60 22 -63 22 -4 0 41 -19 78 -38 75 -4 -1 -17 -4 -29
-6z"/>
<path d="M6686 1634 c-24 -23 -20 -33 19 -50 47 -19 46 -38 -1 -31 -30 5 -34
4 -24 -8 16 -19 54 -19 70 0 14 17 7 43 -15 50 -49 16 -49 15 -36 28 9 9 16 9
31 -1 11 -7 21 -8 25 -2 6 9 -25 30 -44 30 -5 0 -17 -7 -25 -16z"/>
<path d="M7054 1636 c-11 -8 -15 -18 -10 -23 5 -4 11 -2 13 5 7 17 43 15 43
-3 0 -9 -9 -15 -24 -15 -32 0 -53 -26 -39 -48 11 -18 103 -28 103 -11 0 5 -4
9 -10 9 -5 0 -10 18 -10 40 0 29 -5 42 -19 50 -25 13 -23 13 -47 -4z m46 -60
c0 -19 -17 -29 -37 -22 -12 5 -13 9 -3 21 16 19 40 19 40 1z"/>
<path d="M7211 1641 c-8 -5 -20 -7 -28 -4 -10 4 -13 -8 -13 -51 0 -31 5 -56
10 -56 6 0 10 15 10 34 0 36 21 66 46 66 8 0 12 5 9 10 -8 12 -16 12 -34 1z"/>
<path d="M2510 1630 c0 -5 7 -10 15 -10 10 0 15 -11 15 -35 0 -28 -4 -35 -20
-35 -11 0 -20 -4 -20 -10 0 -5 22 -10 49 -10 28 0 53 5 56 10 3 6 -3 10 -14
10 -18 0 -21 6 -21 45 0 43 -1 45 -30 45 -16 0 -30 -4 -30 -10z"/>
<path d="M4950 1630 c0 -5 23 -10 50 -10 28 0 50 5 50 10 0 6 -22 10 -50 10
-27 0 -50 -4 -50 -10z"/>
<path d="M4950 1580 c0 -5 23 -10 50 -10 28 0 50 5 50 10 0 6 -22 10 -50 10
-27 0 -50 -4 -50 -10z"/>
<path d="M5600 1550 c0 -13 5 -20 13 -17 6 2 12 10 12 17 0 7 -6 15 -12 18 -8
2 -13 -5 -13 -18z"/>
<path d="M2402 1375 c-22 -26 -30 -51 -12 -40 6 4 10 -12 10 -39 0 -33 4 -46
14 -46 10 0 16 14 18 43 2 32 7 42 20 42 25 0 23 19 -2 23 -25 4 -16 22 11 22
10 0 19 5 19 10 0 21 -56 10 -78 -15z"/>
<path d="M2540 1386 c0 -9 7 -16 16 -16 17 0 14 22 -4 28 -7 2 -12 -3 -12 -12z"/>
<path d="M2880 1386 c0 -9 6 -15 13 -13 8 1 13 -15 15 -50 3 -48 1 -53 -17
-53 -12 0 -21 -4 -21 -10 0 -5 23 -10 50 -10 28 0 50 5 50 10 0 6 -7 10 -15
10 -10 0 -15 16 -17 63 -3 59 -4 62 -30 65 -20 2 -28 -1 -28 -12z"/>
<path d="M3754 1387 c-3 -8 -4 -52 -2 -98 3 -83 3 -84 31 -87 15 -2 27 1 27 7
0 6 -9 11 -20 11 -18 0 -20 7 -20 80 0 73 2 80 20 80 11 0 20 5 20 10 0 15
-50 12 -56 -3z"/>
<path d="M3865 1390 c-3 -5 3 -10 14 -10 19 0 21 -6 21 -80 0 -73 -2 -80 -20
-80 -11 0 -20 -4 -20 -10 0 -5 14 -10 30 -10 l30 0 0 100 c0 99 0 100 -24 100
-14 0 -28 -4 -31 -10z"/>
<path d="M5098 1370 c-24 -22 -28 -30 -15 -30 13 0 17 -9 17 -44 0 -25 5 -48
10 -51 6 -4 10 13 10 44 0 48 2 51 25 51 14 0 25 5 25 10 0 6 -12 10 -26 10
-14 0 -23 4 -19 10 3 6 15 10 26 10 10 0 19 5 19 10 0 20 -40 9 -72 -20z"/>
<path d="M5330 1390 c0 -5 7 -10 15 -10 12 0 15 -13 15 -60 0 -53 -2 -60 -20
-60 -11 0 -20 -3 -20 -7 0 -9 88 -8 97 1 3 3 -3 6 -15 6 -20 0 -22 5 -22 70 0
68 -1 70 -25 70 -14 0 -25 -4 -25 -10z"/>
<path d="M5455 1390 c-3 -5 1 -10 9 -10 13 0 16 -12 16 -60 0 -55 -2 -60 -22
-60 -12 0 -18 -3 -15 -6 9 -9 97 -10 97 -1 0 4 -9 7 -20 7 -18 0 -20 7 -20 70
0 63 -2 70 -19 70 -11 0 -23 -4 -26 -10z"/>
<path d="M6586 1391 c-4 -5 -2 -12 3 -15 5 -4 12 -2 15 3 4 5 2 12 -3 15 -5 4
-12 2 -15 -3z"/>
<path d="M6834 1379 c-14 -16 -19 -36 -19 -79 0 -43 5 -63 19 -79 26 -28 31
-20 12 18 -9 16 -16 44 -16 61 0 17 7 45 16 61 19 38 14 46 -12 18z"/>
<path d="M6950 1365 c0 -19 5 -35 10 -35 6 0 10 16 10 35 0 19 -4 35 -10 35
-5 0 -10 -16 -10 -35z"/>
<path d="M7195 1389 c-3 -9 -2 -26 3 -39 l9 -24 7 29 c8 30 -9 60 -19 34z"/>
<path d="M3150 1382 c-42 -13 -55 -87 -20 -122 11 -11 26 -20 33 -20 20 0 58
30 51 41 -4 6 -13 4 -25 -7 -29 -27 -49 -11 -49 40 0 49 19 66 45 39 18 -17
30 -11 22 10 -6 16 -35 26 -57 19z"/>
<path d="M5570 1309 c0 -44 4 -68 10 -64 6 3 10 25 11 48 l0 42 22 -45 c12
-24 27 -45 32 -45 6 0 11 30 13 68 2 42 -1 67 -8 67 -5 0 -10 -21 -10 -47 l-1
-48 -25 48 c-13 26 -29 47 -34 47 -6 0 -10 -31 -10 -71z"/>
<path d="M6680 1363 c-10 -12 -11 -18 -2 -21 7 -2 12 -22 12 -47 0 -35 4 -45
20 -50 11 -3 28 -2 37 4 16 9 14 10 -9 11 -26 0 -28 3 -28 40 0 33 3 40 20 40
11 0 20 5 20 10 0 6 -9 10 -20 10 -11 0 -20 5 -20 10 0 15 -13 12 -30 -7z"/>
<path d="M2515 1350 c-3 -5 1 -10 9 -10 12 0 16 -10 16 -35 0 -28 -4 -35 -20
-35 -11 0 -20 -4 -20 -10 0 -5 25 -10 56 -10 34 0 53 4 49 10 -3 6 -13 10 -21
10 -10 0 -14 12 -14 45 0 41 -2 45 -24 45 -14 0 -28 -4 -31 -10z"/>
<path d="M2629 1358 c0 -2 -1 -27 -2 -56 -2 -43 1 -52 15 -52 11 0 15 5 12 15
-9 23 5 65 21 65 11 0 15 -11 15 -40 0 -29 4 -40 15 -40 11 0 15 12 15 49 0
41 -3 51 -20 56 -12 4 -27 1 -35 -5 -11 -9 -15 -9 -15 -1 0 9 -19 17 -21 9z"/>
<path d="M2764 1346 c-24 -18 -10 -35 15 -19 18 12 31 8 31 -9 0 -4 -11 -8
-24 -8 -13 0 -29 -6 -35 -14 -23 -28 17 -68 45 -45 10 8 18 9 27 0 21 -16 25
-6 17 45 -9 61 -36 79 -76 50z m46 -55 c0 -12 -20 -25 -27 -18 -7 7 6 27 18
27 5 0 9 -4 9 -9z"/>
<path d="M4100 1278 c0 -45 4 -78 10 -78 6 0 10 12 10 26 0 20 4 25 16 20 30
-12 54 12 54 53 0 46 -14 60 -58 59 l-32 -1 0 -79z m65 22 c0 -28 -4 -35 -20
-35 -13 0 -21 8 -23 23 -5 34 5 54 25 50 13 -2 18 -13 18 -38z"/>
<path d="M4231 1346 c-8 -9 -8 -16 -2 -20 5 -4 12 -2 16 4 9 15 35 12 35 -4 0
-9 -12 -16 -27 -18 -22 -2 -29 -9 -31 -29 -4 -30 19 -44 47 -29 12 6 22 5 29
-2 7 -7 14 -10 16 -7 9 9 -12 102 -25 110 -21 13 -45 11 -58 -5z m49 -61 c0
-16 -27 -32 -37 -22 -3 4 -3 13 0 22 8 20 37 20 37 0z"/>
<path d="M4352 1305 c4 -67 21 -77 28 -15 4 37 9 46 28 48 12 2 22 8 22 13 0
13 -34 11 -48 -3 -9 -9 -12 -9 -12 0 0 7 -5 12 -10 12 -7 0 -10 -21 -8 -55z"/>
<path d="M5200 1311 c0 -55 9 -66 57 -66 l33 0 0 58 c0 69 -18 77 -22 10 -3
-40 -6 -48 -23 -48 -17 0 -20 8 -23 48 -4 62 -22 61 -22 -2z"/>
<path d="M5701 1346 c-8 -9 -8 -16 -2 -20 5 -4 12 -2 16 4 10 15 35 12 35 -5
0 -9 -9 -15 -25 -15 -33 0 -51 -33 -29 -54 18 -18 23 -19 44 -6 9 5 19 5 27
-2 8 -6 15 -9 17 -7 9 9 -12 102 -25 110 -21 13 -45 11 -58 -5z m49 -61 c0
-16 -27 -32 -37 -22 -3 4 -3 13 0 22 8 20 37 20 37 0z"/>
<path d="M5809 1353 c0 -1 -1 -25 -1 -53 -1 -64 16 -70 20 -7 4 63 22 60 22
-4 0 -31 4 -48 10 -44 6 3 10 26 10 51 0 24 5 44 10 44 6 0 10 -20 10 -45 0
-25 5 -45 11 -45 6 0 9 21 7 53 l-3 52 -47 1 c-27 0 -48 -1 -49 -3z"/>
<path d="M5946 1344 c-25 -24 -20 -71 9 -90 27 -18 65 -11 65 12 0 11 -4 12
-19 2 -15 -9 -23 -9 -35 2 -21 17 -12 25 27 25 37 0 47 23 22 49 -21 20 -49
21 -69 0z m62 -21 c2 -9 -7 -13 -27 -13 -23 0 -29 4 -24 16 6 17 44 15 51 -3z"/>
<path d="M6555 1351 c-3 -7 2 -11 14 -11 18 0 21 -6 21 -39 0 -36 -3 -40 -27
-44 -16 -2 -1 -4 32 -4 33 0 50 2 38 4 -18 4 -22 12 -25 51 -3 39 -7 48 -25
50 -11 2 -24 -2 -28 -7z"/>
<path d="M4830 1340 c0 -5 23 -10 50 -10 28 0 50 5 50 10 0 6 -22 10 -50 10
-27 0 -50 -4 -50 -10z"/>
<path d="M4830 1290 c0 -5 23 -10 50 -10 28 0 50 5 50 10 0 6 -22 10 -50 10
-27 0 -50 -4 -50 -10z"/>
<path d="M6090 1266 c0 -9 7 -16 16 -16 9 0 14 5 12 12 -6 18 -28 21 -28 4z"/>
<path d="M7070 1266 c0 -9 7 -16 16 -16 17 0 14 22 -4 28 -7 2 -12 -3 -12 -12z"/>
<path d="M1177 843 c-4 -3 -7 -82 -7 -175 l0 -168 25 0 25 0 0 175 c0 163 -1
175 -18 175 -10 0 -22 -3 -25 -7z"/>
<path d="M1300 675 l0 -175 25 0 c24 0 24 0 27 112 l3 113 84 -118 c49 -70 87
-115 93 -109 4 4 7 85 6 178 -3 166 -3 169 -25 172 -22 3 -22 1 -25 -115 l-3
-117 -84 117 c-47 64 -88 117 -93 117 -4 0 -8 -79 -8 -175z"/>
<path d="M1635 838 c-32 -17 -45 -39 -45 -79 0 -46 21 -73 85 -107 45 -24 50
-30 50 -62 0 -29 -5 -36 -28 -44 -19 -7 -37 -6 -59 2 -25 9 -34 9 -40 -1 -38
-58 102 -78 158 -22 18 18 24 35 24 68 0 49 -18 71 -86 105 -23 12 -44 28 -48
37 -23 62 21 89 97 59 23 -8 29 34 7 46 -25 13 -90 12 -115 -2z"/>
<path d="M1807 844 c-4 -4 -7 -16 -7 -26 0 -15 8 -18 55 -18 l55 0 0 -150 0
-150 25 0 25 0 0 150 0 150 61 0 c57 0 60 1 57 23 -3 21 -7 22 -134 25 -71 1
-133 -1 -137 -4z"/>
<path d="M2117 843 c-4 -3 -7 -82 -7 -175 l0 -168 30 0 30 0 0 75 c0 67 2 75
19 75 13 0 34 -24 66 -75 42 -66 51 -75 77 -75 29 0 30 1 16 23 -9 12 -30 46
-48 75 l-32 52 31 35 c17 20 31 47 31 61 0 40 -27 81 -61 93 -35 12 -142 15
-152 4z m134 -53 c13 -7 19 -21 19 -45 0 -39 -20 -55 -69 -55 -31 0 -31 0 -31
55 0 55 0 55 31 55 17 0 39 -5 50 -10z"/>
<path d="M2394 836 c-3 -8 -4 -76 -2 -151 3 -135 3 -137 31 -160 61 -53 167
-40 200 25 14 29 17 57 15 165 -3 125 -4 130 -25 133 -21 3 -22 0 -25 -131 -3
-116 -6 -138 -22 -156 -28 -31 -79 -28 -105 5 -19 24 -21 40 -21 155 0 123 -1
129 -20 129 -11 0 -23 -6 -26 -14z"/>
<path d="M2763 830 c-52 -31 -76 -90 -71 -175 3 -60 8 -78 31 -108 45 -60 142
-74 197 -29 19 15 19 19 6 37 -13 19 -15 19 -33 2 -31 -27 -84 -22 -116 11
-48 50 -48 156 -1 207 22 23 31 26 82 24 48 -2 57 0 60 15 5 26 -15 36 -73 36
-32 0 -61 -7 -82 -20z"/>
<path d="M2960 825 c0 -24 3 -25 55 -25 l55 0 0 -150 0 -150 25 0 25 0 0 150
0 150 55 0 c52 0 55 1 55 25 l0 25 -135 0 -135 0 0 -25z"/>
<path d="M3289 823 c-17 -15 -38 -42 -45 -60 -20 -46 -18 -150 4 -193 52 -104
185 -104 247 0 24 43 26 148 2 202 -33 78 -144 105 -208 51z m126 -29 c27 -11
45 -60 45 -121 0 -97 -50 -151 -119 -127 -67 23 -84 180 -26 237 16 17 69 22
100 11z"/>
<path d="M3570 675 l0 -175 25 0 c24 0 25 2 25 75 0 69 2 75 20 75 15 0 34
-22 68 -75 40 -64 51 -75 75 -75 15 0 27 2 27 5 0 3 -20 36 -45 74 l-44 70 29
30 c22 22 30 39 30 66 0 74 -44 105 -150 105 l-60 0 0 -175z m138 109 c46 -32
11 -94 -53 -94 l-35 0 0 55 0 55 33 0 c18 0 43 -7 55 -16z"/>
<path d="M4170 675 l0 -175 25 0 c24 0 25 2 25 65 l0 65 40 0 c47 0 95 22 110
49 5 11 10 39 10 64 0 70 -55 107 -162 107 l-48 0 0 -175z m138 109 c22 -15
29 -57 14 -82 -11 -16 -68 -33 -88 -25 -10 4 -14 22 -14 64 l0 59 33 0 c18 0
43 -7 55 -16z"/>
<path d="M4437 843 c-4 -3 -7 -82 -7 -175 l0 -168 105 0 c98 0 105 1 105 20 0
17 -8 19 -77 22 l-78 3 -3 57 -3 57 58 3 c51 3 58 6 61 26 3 21 0 22 -57 22
l-61 0 0 45 0 45 80 0 c79 0 80 0 80 25 0 25 0 25 -98 25 -54 0 -102 -3 -105
-7z"/>
<path d="M4698 844 c-5 -4 -8 -84 -8 -177 l0 -169 74 4 c118 6 168 57 169 172
1 112 -48 166 -160 173 -37 3 -71 2 -75 -3z m148 -67 c35 -30 45 -112 20 -170
-17 -41 -72 -73 -107 -62 -17 6 -19 17 -19 131 l0 124 39 0 c27 0 49 -7 67
-23z"/>
<path d="M4990 675 l0 -175 25 0 c24 0 25 2 25 75 0 69 2 75 20 75 15 0 34
-22 68 -75 40 -64 51 -75 75 -75 15 0 27 2 27 5 0 2 -20 36 -45 74 l-45 69 30
30 c22 23 30 40 30 67 0 74 -44 105 -150 105 l-60 0 0 -175z m138 109 c46 -32
11 -94 -53 -94 l-35 0 0 55 0 55 33 0 c18 0 43 -7 55 -16z"/>
<path d="M5309 823 c-41 -35 -59 -79 -59 -148 0 -92 35 -155 97 -176 80 -26
162 25 183 112 14 58 8 125 -15 170 -37 71 -145 93 -206 42z m142 -42 c22 -18
24 -27 24 -106 0 -83 -1 -88 -28 -111 -51 -44 -105 -29 -131 36 -26 66 -18
139 21 182 22 24 84 23 114 -1z"/>
<path d="M5737 843 c-4 -3 -7 -82 -7 -175 l0 -168 105 0 c98 0 105 1 105 20 0
17 -8 19 -77 22 l-78 3 -3 57 -3 57 58 3 c50 3 58 6 58 23 0 17 -8 20 -57 23
l-58 3 0 44 0 45 80 0 c79 0 80 0 80 25 0 25 0 25 -98 25 -54 0 -102 -3 -105
-7z"/>
<path d="M5998 844 c-5 -4 -8 -83 -8 -176 l0 -168 25 0 c24 0 25 2 25 69 0
108 32 109 95 3 35 -58 44 -67 73 -70 l33 -3 -49 77 -50 76 32 28 c42 38 43
97 3 137 -24 24 -36 28 -100 31 -39 2 -75 0 -79 -4z m133 -54 c23 -13 26 -62
3 -84 -9 -9 -32 -16 -55 -16 l-39 0 0 55 0 55 36 0 c19 0 44 -5 55 -10z"/>
<path d="M6280 676 l0 -176 25 0 25 0 -2 173 c-3 170 -3 172 -25 175 l-23 3 0
-175z"/>
<path d="M6463 830 c-46 -28 -73 -86 -73 -160 0 -33 6 -75 14 -94 27 -66 103
-99 176 -77 50 15 64 32 46 56 -12 17 -15 17 -37 2 -50 -35 -116 -11 -140 50
-23 61 0 161 43 184 11 6 43 9 71 8 46 -3 52 -1 55 18 2 14 -4 22 -20 27 -45
12 -103 6 -135 -14z"/>
<path d="M6690 675 l0 -175 25 0 c23 0 25 4 25 48 0 34 6 55 23 76 l24 29 44
-76 c38 -66 48 -77 72 -77 15 0 27 2 27 5 0 2 -25 46 -56 96 l-56 92 51 74
c28 40 51 75 51 79 0 3 -12 4 -27 2 -22 -2 -40 -21 -88 -90 l-60 -87 -3 89
c-3 88 -3 90 -27 90 l-25 0 0 -175z"/>
<path d="M7118 844 c-5 -4 -8 -83 -8 -176 l0 -168 25 0 c23 0 24 3 27 73 3 64
5 72 24 75 17 2 30 -12 64 -68 45 -75 55 -84 88 -78 18 3 15 10 -28 77 l-47
74 31 27 c42 38 43 97 3 137 -24 24 -36 28 -100 31 -39 2 -75 0 -79 -4z m133
-54 c13 -7 19 -21 19 -45 0 -40 -20 -55 -74 -55 l-36 0 0 55 0 55 36 0 c19 0
44 -5 55 -10z"/>
<path d="M7400 676 l0 -176 25 0 25 0 -2 173 c-3 170 -3 172 -25 175 l-23 3 0
-175z"/>
<path d="M7569 823 c-42 -35 -59 -79 -59 -151 0 -113 66 -189 154 -178 47 6
84 31 111 77 27 45 27 159 2 207 -40 74 -146 97 -208 45z m141 -43 c26 -26 33
-59 28 -132 -4 -51 -9 -65 -32 -85 -79 -68 -161 19 -142 151 4 24 16 53 27 65
26 28 91 29 119 1z"/>
<path d="M7859 821 c-52 -53 -34 -120 44 -158 26 -13 54 -35 63 -49 15 -22 15
-26 0 -49 -18 -27 -61 -34 -96 -15 -15 8 -21 6 -31 -11 -13 -25 -3 -35 48 -45
46 -9 81 2 114 36 53 52 30 124 -52 165 -62 32 -81 66 -53 96 18 20 41 21 86
4 11 -4 18 0 23 16 9 29 -8 39 -68 39 -40 0 -53 -5 -78 -29z"/>
<path d="M8289 827 c-57 -38 -79 -81 -79 -154 0 -74 24 -130 67 -159 34 -22
123 -25 171 -5 l32 13 0 79 0 79 -50 0 c-43 0 -50 -3 -50 -20 0 -15 7 -20 25
-20 22 0 25 -4 25 -38 0 -47 -14 -62 -60 -62 -65 0 -110 53 -110 130 0 47 20
92 52 114 27 19 99 21 116 4 10 -10 15 -10 22 2 15 24 12 36 -15 48 -43 20
-108 15 -146 -11z"/>
<path d="M3877 749 c-39 -22 -4 -79 35 -58 10 5 18 18 18 29 0 25 -30 41 -53
29z"/>
<path d="M3877 559 c-39 -22 -4 -79 35 -58 10 5 18 18 18 29 0 25 -30 41 -53
29z"/>
<path d="M8576 554 c-20 -19 -20 -29 0 -48 12 -12 20 -13 35 -6 21 12 25 40 7
58 -16 16 -23 15 -42 -4z"/>
</g>
</svg>
