<?xml version="1.0" standalone="no"?>
<!DOCTYPE svg PUBLIC "-//W3C//DTD SVG 20010904//EN"
 "http://www.w3.org/TR/2001/REC-SVG-20010904/DTD/svg10.dtd">
<svg version="1.0" xmlns="http://www.w3.org/2000/svg"
 width="945.000000pt" height="768.000000pt" viewBox="0 0 945.000000 768.000000"
 preserveAspectRatio="xMidYMid meet">

<g transform="translate(0.000000,768.000000) scale(0.100000,-0.100000)"
fill="#000000" stroke="none">
<path d="M6844 7306 c-3 -8 -4 -82 -2 -165 3 -163 7 -173 61 -186 23 -6 27 -4
27 14 0 12 -9 30 -20 41 -18 18 -20 33 -20 165 0 139 -1 145 -20 145 -11 0
-23 -6 -26 -14z"/>
<path d="M2217 7303 c-4 -3 -7 -82 -7 -175 l0 -168 25 0 c24 0 24 0 27 117 l3
116 85 -121 c47 -67 88 -122 93 -122 4 0 7 81 7 181 l0 180 -22 -3 c-22 -3
-23 -8 -28 -112 l-5 -108 -80 111 c-44 61 -83 111 -86 111 -3 0 -9 -3 -12 -7z"/>
<path d="M3004 7140 c-62 -155 -84 -196 -84 -155 0 10 -10 15 -34 15 -41 0
-46 10 -46 100 l0 69 32 3 c22 2 34 9 36 21 3 14 -4 17 -32 17 -34 0 -36 2
-36 35 0 19 -4 35 -9 35 -27 0 -41 -15 -41 -41 0 -19 -5 -29 -15 -29 -8 0 -15
-9 -15 -20 0 -11 7 -20 15 -20 12 0 15 -16 15 -85 0 -78 2 -88 25 -111 24 -24
29 -25 98 -18 39 3 75 8 79 10 3 3 9 18 13 34 6 29 8 30 70 30 l63 0 12 -35
c10 -29 16 -35 41 -35 l29 0 -34 93 c-79 214 -94 251 -103 254 -6 2 -41 -73
-79 -167z m95 1 c7 -23 15 -49 18 -57 4 -11 -5 -14 -40 -14 l-45 0 21 65 c12
36 24 62 27 57 4 -4 12 -27 19 -51z"/>
<path d="M4077 7303 c-4 -3 -7 -82 -7 -175 l0 -168 25 0 24 0 3 118 3 117 82
-117 c46 -64 87 -119 93 -123 7 -4 10 54 10 174 0 173 -1 181 -20 181 -18 0
-20 -8 -22 -117 l-3 -118 -85 118 c-46 64 -87 117 -91 117 -3 0 -9 -3 -12 -7z"/>
<path d="M5450 7301 c0 -5 -13 -80 -30 -167 -16 -88 -30 -162 -30 -166 0 -5
11 -8 25 -8 19 0 25 6 30 33 30 168 31 172 40 147 28 -90 68 -190 75 -190 5 0
23 45 41 100 18 54 35 97 38 95 2 -3 12 -44 20 -93 16 -84 17 -87 45 -90 21
-3 27 0 24 10 -3 7 -20 86 -38 176 -22 107 -38 162 -46 162 -7 0 -15 -8 -18
-17 -37 -128 -59 -199 -65 -205 -4 -4 -24 44 -45 107 -24 76 -42 115 -52 115
-8 0 -14 -4 -14 -9z"/>
<path d="M6241 7296 c-17 -20 -2 -48 23 -44 24 3 34 37 14 49 -18 12 -24 11
-37 -5z"/>
<path d="M4663 7273 c-7 -2 -13 -18 -13 -34 0 -19 -5 -29 -15 -29 -8 0 -15 -9
-15 -20 0 -11 7 -20 15 -20 12 0 15 -16 15 -85 0 -79 2 -88 26 -112 21 -21 32
-25 66 -20 47 6 50 9 42 31 -4 10 -18 16 -39 16 -40 0 -45 11 -45 101 l0 69
35 0 c28 0 35 4 35 20 0 16 -7 20 -35 20 -33 0 -35 2 -35 35 0 34 -8 40 -37
28z"/>
<path d="M2558 7204 c-37 -20 -58 -63 -58 -119 0 -57 21 -100 60 -120 36 -19
61 -19 105 -1 42 18 65 61 65 123 0 105 -86 164 -172 117z m92 -42 c44 -36 32
-151 -17 -164 -52 -14 -89 36 -79 107 5 39 34 75 61 75 7 0 23 -8 35 -18z"/>
<path d="M3326 7213 c-4 -4 -22 -6 -41 -5 l-35 3 0 -176 0 -175 25 0 c23 0 25
3 25 50 l0 51 33 -6 c21 -4 47 -1 69 8 87 36 92 198 8 242 -31 16 -72 20 -84
8z m84 -83 c15 -37 6 -92 -19 -114 -12 -11 -31 -16 -53 -14 l-33 3 -3 78 c-3
73 -1 78 20 86 34 12 74 -6 88 -39z"/>
<path d="M3586 7213 c-4 -4 -22 -6 -41 -5 l-35 3 0 -176 0 -175 25 0 c23 0 25
3 25 50 l0 50 43 -6 c48 -6 81 8 109 46 44 59 30 167 -25 200 -32 20 -87 27
-101 13z m80 -64 c23 -25 22 -104 -2 -130 -18 -20 -68 -25 -92 -10 -9 5 -12
28 -10 77 3 60 6 70 26 80 29 14 55 8 78 -17z"/>
<path d="M4419 7206 c-81 -46 -76 -208 7 -242 43 -18 68 -18 104 1 40 21 60
63 60 129 0 47 -4 61 -28 87 -33 37 -100 49 -143 25z m96 -51 c61 -60 6 -187
-65 -152 -49 25 -47 147 3 167 32 13 36 12 62 -15z"/>
<path d="M4853 7210 c-24 -10 -29 -26 -15 -47 5 -8 13 -9 22 -3 21 14 74 12
88 -2 23 -23 13 -38 -23 -38 -96 0 -150 -86 -90 -145 27 -28 66 -32 106 -11
22 11 29 11 44 0 10 -8 25 -14 32 -14 15 0 18 36 3 45 -5 3 -10 39 -10 80 0
84 -12 118 -47 134 -28 13 -79 13 -110 1z m107 -161 c0 -51 -77 -78 -94 -32
-9 22 19 61 46 65 36 6 48 -2 48 -33z"/>
<path d="M5085 7195 c-43 -42 -25 -89 44 -125 39 -20 51 -36 44 -57 -6 -16
-47 -17 -75 -2 -22 12 -23 12 -32 -18 -15 -47 117 -56 149 -10 33 48 12 94
-62 131 -21 10 -33 24 -33 36 0 24 13 27 61 15 21 -5 27 -2 32 15 11 43 -88
56 -128 15z"/>
<path d="M6024 7194 c-43 -42 -19 -90 65 -136 21 -12 31 -24 29 -35 -4 -21
-48 -29 -77 -13 -16 8 -22 7 -31 -9 -14 -28 -14 -28 26 -41 67 -23 134 8 134
61 0 45 -10 59 -61 85 -71 35 -62 87 10 62 17 -6 27 -5 33 4 13 21 10 28 -18
38 -44 17 -83 12 -110 -16z"/>
<path d="M6403 7205 c-88 -38 -95 -183 -11 -235 26 -17 43 -20 82 -16 57 6 71
16 61 45 -5 17 -10 19 -25 11 -34 -18 -87 -12 -104 12 -18 26 -21 90 -5 119
15 29 52 40 90 27 25 -8 33 -8 40 3 13 21 11 25 -16 37 -34 16 -72 15 -112 -3z"/>
<path d="M6618 7208 c-29 -10 -34 -23 -18 -48 7 -12 12 -12 22 -2 15 15 70 16
86 0 23 -23 13 -38 -24 -38 -98 0 -146 -102 -72 -154 27 -19 54 -20 88 -3 21
11 29 10 52 -2 35 -20 44 -10 30 38 -7 21 -12 66 -12 99 0 75 -5 89 -41 107
-32 17 -71 18 -111 3z m102 -162 c0 -25 -6 -35 -25 -44 -33 -15 -41 -15 -58 3
-22 21 -9 55 26 70 41 17 57 9 57 -29z"/>
<path d="M7028 7205 c-38 -21 -62 -71 -61 -127 1 -58 23 -95 68 -114 43 -18
67 -18 111 1 31 13 34 17 24 35 -9 16 -15 18 -30 10 -49 -26 -120 3 -120 50 0
19 7 20 90 20 l90 0 0 35 c0 52 -43 96 -100 101 -29 3 -55 -1 -72 -11z m114
-58 c15 -23 7 -27 -57 -27 -36 0 -65 4 -65 8 0 11 30 38 50 44 18 6 62 -9 72
-25z"/>
<path d="M7262 7208 c-12 -6 -25 -22 -28 -35 -11 -43 3 -68 56 -97 40 -22 50
-32 48 -49 -3 -25 -45 -35 -77 -18 -16 9 -21 7 -26 -9 -9 -28 0 -38 40 -46
121 -22 168 99 58 151 -23 10 -45 26 -48 34 -9 24 22 42 52 30 28 -10 43 -5
43 17 0 29 -74 43 -118 22z"/>
<path d="M5752 7104 c3 -102 4 -107 31 -130 32 -27 60 -30 100 -10 15 8 27 11
27 5 0 -5 11 -9 25 -9 l25 0 0 125 0 125 -25 0 c-25 0 -25 0 -25 -95 0 -103
-7 -115 -65 -115 -34 0 -45 31 -45 131 0 78 0 79 -26 79 l-26 0 4 -106z"/>
<path d="M6200 7190 c0 -11 7 -20 15 -20 12 0 15 -18 15 -105 l0 -105 25 0 25
0 0 125 0 125 -40 0 c-33 0 -40 -3 -40 -20z"/>
<path d="M1000 6380 l0 -110 1200 0 1200 0 0 -344 0 -343 -40 -27 c-22 -14
-46 -39 -55 -56 l-16 -30 -689 0 c-380 0 -690 3 -690 6 0 4 14 22 30 41 68 77
100 178 100 316 0 135 -48 273 -105 299 -57 26 -158 -77 -206 -211 -19 -54
-24 -86 -24 -176 0 -60 3 -135 7 -166 l8 -56 -39 -26 c-38 -25 -47 -27 -198
-29 -201 -4 -212 -21 -18 -28 133 -5 138 -6 115 -21 -32 -22 -120 -106 -147
-141 -15 -20 -30 -27 -63 -30 -54 -4 -68 -28 -16 -28 l36 0 -19 -38 c-22 -43
-53 -190 -41 -197 4 -2 10 -22 12 -43 6 -39 30 -96 62 -144 l18 -28 -51 0
c-28 0 -51 -4 -51 -10 0 -6 27 -10 61 -10 55 0 65 -4 97 -31 20 -18 70 -48
111 -68 67 -31 87 -36 173 -39 88 -4 97 -6 102 -26 13 -47 21 -46 -264 -48
-169 -2 -271 -7 -273 -13 -1 -6 97 -11 275 -13 l277 -2 7 -56 c21 -169 -36
-249 -176 -249 -37 0 -76 7 -90 15 l-25 14 30 6 c68 15 97 46 97 105 0 102
-124 158 -206 94 -62 -49 -71 -126 -23 -199 87 -130 359 -115 426 24 24 49 28
87 17 179 l-8 67 736 0 736 0 0 -435 0 -435 65 0 65 0 2 433 3 432 1332 3
1333 2 0 -25 c0 -33 42 -75 73 -75 41 0 95 28 124 65 l28 35 1028 0 c819 0
1028 3 1025 13 -4 9 -220 13 -1026 15 l-1022 2 0 105 0 105 388 -2 387 -3 3
-25 c12 -82 104 -89 179 -13 l44 43 524 0 c343 0 525 3 525 10 0 7 -182 10
-525 10 l-525 0 0 105 0 105 530 0 c464 0 530 2 530 15 0 13 -66 15 -530 15
l-530 0 0 105 0 105 531 0 c420 0 530 3 527 13 -4 9 -121 13 -531 15 l-527 2
0 95 0 95 530 0 c464 0 530 2 530 15 0 13 -65 15 -529 15 -414 0 -530 3 -534
13 -4 10 -7 10 -18 0 -10 -10 -225 -13 -1006 -13 l-993 0 0 65 c0 51 -3 65
-15 65 -12 0 -15 -14 -15 -65 l0 -65 -922 2 -923 3 0 395 0 395 2538 3 2537 2
0 -757 c0 -472 4 -764 10 -773 6 -10 10 294 10 868 l0 882 -1642 -1 c-904 -1
-1628 -4 -1609 -8 42 -7 61 -33 44 -59 -7 -12 -8 -24 -1 -35 11 -21 7 -57 -7
-60 -5 -1 -12 12 -15 28 -4 21 -11 31 -28 33 -19 3 -22 -1 -22 -31 l0 -34 -67
1 -68 1 -3 77 -3 77 43 4 c24 2 -18 4 -92 5 -96 1 -130 -2 -117 -9 17 -10 24
-39 8 -39 -5 0 -14 7 -21 15 -17 20 -54 15 -58 -7 -2 -12 8 -20 37 -29 51 -15
65 -31 57 -64 -11 -43 -93 -46 -120 -3 -17 27 3 35 23 9 22 -28 66 -26 66 3 0
14 -12 23 -42 33 -52 18 -66 48 -33 75 22 18 21 18 -55 18 -61 0 -75 -3 -67
-12 24 -30 25 -158 1 -158 -5 0 -9 16 -9 35 0 30 -3 35 -24 35 -21 0 -25 -6
-28 -32 -5 -57 -23 -36 -26 31 -2 49 1 68 14 82 17 18 16 19 -26 19 -42 0 -43
-1 -26 -19 13 -14 16 -33 14 -82 -4 -84 -22 -78 -28 8 -4 60 -7 68 -25 68 -18
0 -20 -8 -23 -71 l-3 -71 -67 1 -67 1 -3 77 c-3 73 -2 77 20 81 13 2 -68 5
-179 6 -184 1 -202 -1 -196 -15 4 -12 2 -15 -8 -12 -8 3 -13 11 -11 17 1 8
-410 11 -1568 11 l-1570 0 0 -110z m3349 82 c6 -11 6 -24 -1 -37 -8 -14 -8
-20 0 -23 14 -4 16 -41 3 -60 -4 -8 -26 -16 -49 -19 -38 -5 -40 -4 -47 26 -4
18 -4 54 0 81 l7 50 39 0 c26 0 41 -5 48 -18z m61 -47 c0 -51 4 -67 16 -72 24
-9 34 15 34 80 0 42 3 58 13 55 19 -7 21 -105 2 -134 -18 -28 -56 -32 -79 -8
-22 22 -23 144 -1 144 12 0 15 -14 15 -65z m700 0 c0 -51 4 -67 16 -72 24 -9
34 15 34 80 0 42 3 58 13 55 19 -7 21 -105 2 -134 -18 -28 -56 -32 -79 -8 -22
22 -23 144 -1 144 12 0 15 -14 15 -65z m455 55 c-3 -5 -15 -10 -25 -10 -17 0
-19 -9 -22 -67 -2 -42 -8 -68 -15 -71 -10 -3 -13 15 -13 68 0 62 -2 71 -17 69
-28 -2 -35 0 -28 11 3 6 33 10 66 10 38 0 58 -4 54 -10z m115 0 c0 -5 -16 -10
-36 -10 -31 0 -35 -3 -32 -22 2 -17 11 -24 31 -26 37 -4 35 -22 -3 -22 -23 0
-30 -4 -30 -20 0 -16 7 -20 35 -20 25 0 35 -4 35 -16 0 -12 -10 -14 -47 -12
l-48 3 -3 78 -3 77 51 0 c27 0 50 -4 50 -10z m119 -32 c0 -24 -4 -52 -8 -63
-6 -14 -9 -7 -14 29 -10 69 -9 76 8 76 11 0 15 -11 14 -42z m-1639 -60 c0 -45
-12 -69 -24 -49 -4 5 -3 35 0 66 8 66 24 55 24 -17z m1637 -54 c-9 -9 -28 6
-21 18 4 6 10 6 17 -1 6 -6 8 -13 4 -17z m-3832 -384 c49 -54 -4 -199 -110
-302 -91 -88 -91 -88 -100 -23 -14 118 48 277 128 326 41 24 59 24 82 -1z
m1325 -595 l0 -95 -739 0 -739 0 -6 28 c-20 100 -20 97 20 131 l39 31 712 0
713 0 0 -95z m2090 0 l0 -95 -429 0 -429 0 -7 29 c-3 16 -15 37 -26 47 -40 36
-135 10 -167 -47 l-17 -29 -385 2 -385 3 -3 93 -3 92 926 0 925 0 0 -95z
m2020 0 l0 -95 -995 0 -995 0 0 95 0 95 995 0 995 0 0 -95z m-4022 25 c20 0
22 -4 22 -60 l0 -60 -45 0 -45 0 0 66 c0 64 1 66 23 60 12 -3 32 -6 45 -6z
m-1623 -71 c4 -22 5 -43 2 -45 -3 -3 -33 -4 -68 -2 l-63 3 55 42 c30 23 57 42
61 42 3 1 9 -17 13 -40z m15 -102 c0 -17 -10 -28 -37 -41 -56 -27 -107 -70
-128 -110 l-20 -36 -73 0 c-71 0 -73 1 -67 23 12 36 47 89 94 140 l44 47 93 0
c92 0 94 -1 94 -23z m1520 -82 l0 -105 -585 0 -584 0 -16 30 c-40 77 -148 140
-240 140 -38 0 -45 3 -45 20 0 20 7 20 735 20 l735 0 0 -105z m110 0 l0 -105
-45 0 -45 0 0 105 0 105 45 0 45 0 0 -105z m895 0 l0 -100 -380 0 -380 0 -3
89 c-2 49 -1 95 2 103 5 11 75 13 383 11 l378 -3 0 -100z m1085 0 l0 -105
-530 0 -530 0 0 66 0 67 32 -7 c39 -8 109 24 132 59 l16 25 440 0 440 0 0
-105z m1020 0 l0 -105 -495 0 -495 0 0 105 0 105 495 0 495 0 0 -105z m1000 0
l0 -105 -485 0 -485 0 0 105 0 105 485 0 485 0 0 -105z m-5480 -96 c10 -6 1
-8 -27 -9 -32 0 -43 4 -43 15 0 12 7 14 28 9 15 -4 34 -10 42 -15z m-120 1 c0
-5 -15 -10 -32 -10 -25 0 -29 3 -18 10 20 13 50 13 50 0z m-226 -64 c-8 -35
14 -106 47 -148 l30 -38 -85 0 -86 0 -25 50 c-18 35 -25 65 -25 105 l0 55 75
0 c74 0 75 0 69 -24z m244 -65 c17 -128 20 -121 -37 -121 -104 0 -160 100
-105 188 12 19 23 22 72 22 l58 0 12 -89z m192 57 c26 -43 35 -93 24 -137 l-9
-36 -70 0 -69 0 -13 75 c-6 41 -14 87 -17 103 l-5 27 69 0 c69 0 71 -1 90 -32z
m1280 -73 l0 -105 -589 0 -589 0 15 48 c9 29 13 69 10 105 l-5 57 579 0 579 0
0 -105z m110 -1 l0 -105 -42 3 -43 3 -3 103 -3 102 46 0 45 0 0 -106z m898 4
l-3 -103 -380 0 -380 0 -3 103 -3 102 386 0 386 0 -3 -102z m962 82 c-14 -11
-28 -20 -31 -20 -10 0 -49 -77 -49 -98 0 -10 9 -31 21 -46 l20 -26 -450 0
-451 0 0 105 0 105 483 0 c480 0 482 -1 457 -20z m1140 -85 l0 -105 -547 0
c-484 1 -546 2 -528 15 62 46 85 89 85 163 l0 32 495 0 495 0 0 -105z m1000
46 l0 -60 -35 6 c-40 6 -112 -30 -139 -72 l-16 -25 -390 0 -390 0 0 105 0 105
485 0 485 0 0 -59z m-5556 -204 c14 -71 16 -70 -92 -65 -89 3 -103 7 -161 39
-36 19 -66 40 -69 47 -3 9 37 12 156 11 l160 -2 6 -30z m145 7 c-25 -27 -78
-59 -85 -51 -3 2 -8 21 -11 41 l-6 36 63 0 63 0 -24 -26z m1409 -81 l3 -103
-741 0 c-698 0 -740 1 -740 18 0 9 -3 26 -6 38 -5 17 5 26 60 53 37 18 78 48
94 67 l27 34 650 -2 650 -3 3 -102z m900 0 l3 -103 -386 0 -385 0 0 98 c0 54
3 102 7 105 4 4 176 6 382 5 l376 -3 3 -102z m2102 41 l0 -66 -29 7 c-38 8
-105 -19 -135 -56 l-25 -29 -945 0 -946 0 0 105 0 105 1040 0 1040 0 0 -66z"/>
<path d="M4280 6440 c0 -16 5 -21 23 -18 12 2 22 10 22 18 0 8 -10 16 -22 18
-18 3 -23 -2 -23 -18z"/>
<path d="M4284 6386 c-10 -26 3 -45 26 -39 14 4 20 12 18 27 -4 25 -36 34 -44
12z"/>
<path d="M4583 6483 c39 -6 33 -23 -9 -23 -31 0 -35 -3 -32 -22 2 -17 10 -23
28 -24 38 0 40 -19 3 -22 -24 -2 -33 -8 -33 -22 0 -14 9 -19 40 -22 l40 -4 0
51 c0 30 6 60 16 73 15 22 15 22 -33 21 -29 -1 -37 -4 -20 -6z"/>
<path d="M5306 6475 c5 -12 -2 -15 -31 -15 -32 0 -36 -3 -33 -22 2 -15 10 -24
23 -24 11 -1 26 -2 33 -3 26 -2 0 -21 -29 -21 -22 0 -29 -5 -29 -19 0 -15 9
-20 40 -23 l40 -4 0 67 c0 45 4 69 13 72 6 3 2 6 -10 6 -16 1 -21 -3 -17 -14z"/>
<path d="M4787 6464 c-12 -12 -8 -42 6 -47 24 -9 44 10 31 30 -12 20 -27 26
-37 17z"/>
<path d="M5356 6462 c-3 -3 -6 -16 -6 -29 0 -20 5 -24 23 -21 29 4 36 43 8 51
-11 2 -22 2 -25 -1z"/>
<path d="M2784 3476 c-17 -8 -34 -21 -38 -31 -3 -9 -6 -95 -6 -191 0 -161 2
-176 20 -194 19 -19 33 -20 243 -20 185 0 226 3 245 16 21 15 22 20 22 207 0
188 0 192 -22 207 -32 21 -418 26 -464 6z m369 -17 c12 -7 25 -17 29 -23 4 -6
8 -77 8 -158 0 -187 10 -178 -190 -178 -200 0 -190 -9 -190 178 0 81 4 152 8
158 4 6 16 16 27 22 27 15 279 16 308 1z"/>
<path d="M2894 3356 c-3 -7 -4 -38 -2 -67 l3 -54 38 1 c45 2 77 28 77 63 0 37
-11 50 -51 61 -46 13 -59 13 -65 -4z m67 -16 c27 -15 26 -66 -2 -80 -33 -18
-49 -5 -49 38 0 53 12 63 51 42z"/>
<path d="M3036 3314 c-9 -8 -16 -22 -16 -30 0 -19 36 -54 55 -54 19 0 55 35
55 53 0 20 -33 47 -58 47 -11 0 -28 -7 -36 -16z m59 -34 c0 -29 -32 -41 -41
-16 -9 24 4 48 23 44 12 -2 18 -12 18 -28z"/>
<path d="M3483 3476 c-19 -9 -35 -25 -38 -39 -4 -13 -5 -99 -3 -191 4 -222
-15 -206 249 -206 260 0 239 -19 239 223 0 240 19 221 -229 225 -144 1 -193
-1 -218 -12z m358 -35 c17 -20 19 -40 19 -156 0 -119 -2 -135 -21 -159 -20
-26 -21 -26 -158 -26 -182 0 -172 -11 -169 191 4 190 -5 181 181 177 122 -3
130 -4 148 -27z"/>
<path d="M3594 3336 c-9 -25 1 -109 14 -114 7 -2 12 6 12 22 0 33 17 33 32 1
18 -39 25 -30 25 30 0 43 -4 58 -18 65 -26 14 -59 12 -65 -4z m61 -26 c0 -8
-8 -16 -17 -18 -13 -2 -18 3 -18 18 0 15 5 20 18 18 9 -2 17 -10 17 -18z"/>
<path d="M3698 3284 c-16 -35 0 -58 43 -61 28 -2 30 -1 10 5 -37 11 -38 32 -2
32 32 0 41 16 19 38 -21 21 -57 14 -70 -14z m52 -5 c0 -5 -7 -9 -15 -9 -15 0
-20 12 -9 23 8 8 24 -1 24 -14z"/>
<path d="M4274 3480 c-150 -4 -205 -9 -217 -19 -15 -12 -17 -39 -17 -197 0
-171 1 -185 20 -204 19 -19 33 -20 249 -20 299 0 275 -17 279 205 2 114 0 177
-9 196 -17 43 -38 46 -305 39z m205 -34 c19 -18 21 -29 21 -163 0 -192 9 -183
-193 -183 -208 0 -197 -10 -197 178 0 81 4 152 8 159 16 26 61 32 198 30 124
-2 145 -4 163 -21z"/>
<path d="M4225 3350 c-4 -6 -9 -36 -12 -67 -5 -45 -3 -55 8 -51 8 3 16 20 19
39 l6 34 13 -37 c16 -48 36 -48 51 -2 9 27 15 33 21 23 5 -8 9 -24 9 -36 0
-13 5 -23 10 -23 17 0 12 117 -5 123 -16 7 -22 -1 -46 -53 l-15 -34 -17 41
c-18 45 -32 59 -42 43z"/>
<path d="M4390 3340 c0 -5 5 -10 10 -10 6 0 10 5 10 10 0 6 -4 10 -10 10 -5 0
-10 -4 -10 -10z"/>
<path d="M4390 3275 c0 -25 5 -45 10 -45 6 0 10 20 10 45 0 25 -4 45 -10 45
-5 0 -10 -20 -10 -45z"/>
<path d="M4768 3482 c-15 -2 -37 -15 -48 -29 -18 -23 -20 -40 -20 -195 0 -166
0 -169 25 -193 l24 -25 234 0 c306 0 281 -19 285 213 3 170 3 175 -20 201
l-23 26 -215 3 c-118 1 -227 1 -242 -1z m393 -41 c17 -20 19 -40 19 -159 0
-188 7 -182 -200 -182 -212 0 -200 -11 -200 184 0 160 2 168 45 179 11 3 87 5
168 4 143 -2 150 -3 168 -26z"/>
<path d="M4900 3290 c0 -33 4 -60 10 -60 6 0 10 11 10 25 0 20 5 25 25 25 14
0 25 5 25 10 0 6 -11 10 -25 10 -16 0 -25 6 -25 15 0 9 9 15 24 15 14 0 28 5
31 10 4 6 -10 10 -34 10 l-41 0 0 -60z"/>
<path d="M5000 3310 c0 -5 10 -10 23 -10 19 0 18 -2 -10 -20 -18 -11 -33 -24
-33 -29 0 -19 28 -31 59 -25 28 6 31 10 31 44 0 25 -5 40 -16 44 -24 9 -54 7
-54 -4z m45 -50 c3 -6 -1 -13 -10 -16 -19 -8 -30 0 -20 15 8 14 22 14 30 1z"/>
<path d="M5404 3478 c-53 -14 -54 -17 -54 -214 0 -171 1 -185 20 -204 19 -19
33 -20 250 -20 l231 0 24 25 c25 24 25 27 25 198 0 134 -3 178 -14 193 -13 18
-31 19 -236 24 -121 3 -232 2 -246 -2z m385 -32 c20 -18 21 -29 21 -167 0
-189 12 -179 -199 -179 -130 0 -157 3 -173 17 -16 14 -18 33 -18 162 0 80 4
151 8 158 16 26 61 32 198 30 124 -2 145 -4 163 -21z"/>
<path d="M5510 3355 c-16 -20 -6 -43 25 -57 35 -16 32 -38 -5 -38 -16 0 -30
-4 -30 -10 0 -14 64 -12 78 2 20 20 14 38 -23 59 -38 23 -38 39 1 39 14 0 22
4 19 10 -9 15 -51 12 -65 -5z"/>
<path d="M5730 3305 c0 -37 4 -65 10 -65 6 0 10 28 10 65 0 37 -4 65 -10 65
-6 0 -10 -28 -10 -65z"/>
<path d="M5633 3329 c-27 -10 -38 -42 -23 -69 21 -40 100 -17 100 29 0 32 -41
53 -77 40z m42 -39 c0 -29 -32 -41 -41 -16 -9 24 4 48 23 44 12 -2 18 -12 18
-28z"/>
<path d="M6052 3478 c-49 -13 -52 -28 -52 -219 l0 -178 26 -20 c25 -20 39 -21
255 -21 216 0 230 1 249 20 19 19 20 33 20 205 0 184 0 185 -24 200 -20 14
-62 17 -235 18 -116 1 -224 -1 -239 -5z m399 -37 c17 -20 19 -40 19 -156 0
-119 -2 -135 -21 -159 l-20 -26 -160 0 c-208 0 -199 -8 -199 176 0 142 6 169
43 184 12 5 89 8 170 7 143 -2 150 -3 168 -26z"/>
<path d="M6184 3346 c-3 -7 -4 -35 -2 -62 l3 -49 43 -3 c25 -2 42 1 42 7 0 6
-13 11 -30 11 -30 0 -30 1 -30 55 0 51 -14 73 -26 41z"/>
<path d="M6295 3320 c-4 -6 5 -10 19 -10 35 0 33 -18 -1 -22 -22 -2 -28 -8
-28 -28 0 -23 4 -25 40 -25 37 1 40 3 43 32 2 18 -3 37 -13 47 -18 18 -51 21
-60 6z m45 -55 c0 -8 -7 -15 -15 -15 -16 0 -20 12 -8 23 11 12 23 8 23 -8z"/>
<path d="M7691 3477 c-6 -6 -11 -44 -11 -84 0 -58 3 -73 15 -73 12 0 15 14 15
65 0 50 4 67 15 72 24 9 29 -2 33 -72 3 -47 8 -65 18 -65 11 0 14 17 14 70 0
63 2 70 20 70 18 0 20 -7 20 -70 0 -53 3 -70 14 -70 8 0 16 6 18 13 8 24 0
128 -12 141 -14 17 -142 20 -159 3z"/>
<path d="M6687 3462 c-15 -16 -17 -45 -17 -200 0 -169 1 -183 20 -202 19 -19
33 -20 223 -20 167 0 206 3 225 16 21 15 22 20 22 203 0 169 -2 190 -18 204
-16 15 -47 17 -229 17 -191 0 -211 -2 -226 -18z m380 -15 c15 -15 19 -39 21
-155 3 -128 2 -139 -18 -165 l-21 -27 -140 0 c-185 0 -179 -6 -179 173 0 72 3
142 6 154 9 34 48 42 186 40 107 -2 130 -5 145 -20z"/>
<path d="M6847 3343 c-16 -16 -6 -50 19 -62 30 -13 27 -33 -7 -41 -17 -4 -20
-8 -11 -14 18 -11 59 1 66 19 8 22 -2 41 -30 53 -31 15 -31 32 1 32 14 0 25 5
25 10 0 11 -53 14 -63 3z"/>
<path d="M6930 3340 c0 -5 5 -10 10 -10 6 0 10 5 10 10 0 6 -4 10 -10 10 -5 0
-10 -4 -10 -10z"/>
<path d="M6937 3314 c-10 -10 -9 -82 2 -88 11 -7 19 55 11 79 -3 9 -9 13 -13
9z"/>
<path d="M8143 3472 c-14 -9 -17 -26 -15 -99 2 -38 6 -53 16 -53 10 0 15 17
18 58 5 70 -2 104 -19 94z"/>
<path d="M7423 3425 c0 -22 2 -30 4 -17 2 12 2 30 0 40 -3 9 -5 -1 -4 -23z"/>
<path d="M7505 3440 c-11 -13 -25 -18 -37 -14 -21 6 -24 -6 -6 -24 18 -18 24
-15 48 19 26 35 22 49 -5 19z"/>
<path d="M8039 3436 c-35 -17 -30 -38 14 -60 27 -13 35 -22 28 -29 -7 -7 -18
-7 -36 3 -29 16 -43 7 -25 -15 16 -19 74 -20 90 0 17 21 5 44 -30 56 -16 6
-30 15 -30 20 0 12 27 11 35 -1 10 -16 27 -11 23 6 -4 24 -41 34 -69 20z"/>
<path d="M7896 3424 c-22 -21 -20 -67 2 -87 40 -37 102 -9 102 46 0 34 -24 57
-60 57 -16 0 -36 -7 -44 -16z m70 -30 c4 -17 1 -31 -10 -42 -15 -15 -17 -15
-32 0 -22 22 -11 68 16 68 13 0 22 -9 26 -26z"/>
<path d="M8184 3426 c-3 -7 -4 -33 -2 -57 4 -53 28 -66 28 -15 0 23 7 43 20
56 11 11 20 22 20 25 0 12 -61 4 -66 -9z"/>
<path d="M8266 3424 c-9 -8 -16 -28 -16 -44 0 -41 24 -60 76 -60 l44 0 0 60 0
60 -44 0 c-27 0 -51 -6 -60 -16z m72 -38 c4 -35 -9 -50 -37 -41 -15 4 -21 15
-21 34 0 34 8 43 35 39 14 -2 21 -12 23 -32z"/>
<path d="M8394 3426 c-3 -7 -4 -33 -2 -57 4 -53 28 -66 28 -15 0 23 7 43 20
56 11 11 20 22 20 25 0 12 -61 4 -66 -9z"/>
<path d="M7717 3214 c-15 -16 -7 -35 13 -29 17 6 19 0 22 -62 2 -55 6 -68 21
-71 15 -3 17 5 17 67 0 70 0 71 26 71 16 0 24 5 22 13 -5 13 -109 23 -121 11z"/>
<path d="M8076 3213 c-3 -3 -6 -42 -6 -85 0 -63 3 -78 15 -78 12 0 15 15 15
79 0 74 -7 100 -24 84z"/>
<path d="M7826 3148 c-21 -30 -20 -61 2 -81 25 -23 65 -21 86 2 23 25 2 39
-24 16 -18 -16 -40 -14 -40 5 0 4 18 15 40 24 36 14 39 18 30 36 -15 29 -74
27 -94 -2z m64 -7 c0 -9 -24 -21 -42 -21 -6 0 -6 6 2 15 14 16 40 20 40 6z"/>
<path d="M7957 3152 c-38 -42 -6 -107 49 -100 28 3 54 31 41 44 -4 4 -16 -1
-27 -11 -16 -15 -22 -16 -35 -5 -20 17 -16 50 9 64 14 8 20 8 23 -1 5 -14 33
-18 33 -5 0 33 -67 43 -93 14z"/>
<path d="M8137 3152 c-22 -24 -21 -65 1 -85 20 -19 101 -24 103 -7 0 6 1 24 1
40 0 72 1 70 -45 70 -30 0 -49 -6 -60 -18z m71 -40 c2 -22 -2 -34 -12 -38 -34
-13 -61 37 -34 64 21 21 43 9 46 -26z"/>
<path d="M8271 3156 c-17 -20 -2 -46 30 -53 16 -3 32 -9 34 -14 10 -15 -17
-21 -41 -8 -28 15 -42 6 -24 -16 16 -20 74 -19 91 1 16 20 1 46 -31 54 -13 3
-25 11 -28 18 -5 15 20 16 36 0 15 -15 26 -4 19 17 -8 19 -70 20 -86 1z"/>
<path d="M8380 3065 c0 -8 7 -15 15 -15 8 0 15 7 15 15 0 8 -7 15 -15 15 -8 0
-15 -7 -15 -15z"/>
<path d="M3013 2953 c33 -5 33 -6 2 -47 -35 -46 -32 -56 15 -56 22 0 40 5 40
10 0 6 -11 10 -25 10 -14 0 -25 3 -25 6 0 3 11 19 25 36 34 41 32 48 -17 47
-30 -2 -35 -3 -15 -6z"/>
<path d="M3656 2935 c14 -22 14 -26 0 -47 -24 -33 -19 -45 8 -19 l23 22 15
-23 c9 -13 19 -20 23 -16 3 3 -1 18 -10 32 -16 24 -16 28 -1 51 18 27 7 35
-14 10 -12 -14 -15 -14 -30 0 -25 23 -32 18 -14 -10z"/>
<path d="M4296 2945 c-33 -34 -12 -95 33 -95 30 0 59 24 43 34 -6 3 -15 -1
-22 -9 -19 -23 -52 -1 -48 33 3 24 7 27 36 25 21 -1 32 3 29 10 -6 19 -53 20
-71 2z"/>
<path d="M4946 2938 c3 -12 13 -37 21 -56 12 -29 17 -33 27 -21 7 8 20 33 29
57 21 53 3 57 -20 5 l-16 -38 -15 38 c-15 39 -38 53 -26 15z"/>
<path d="M5580 2905 c0 -53 1 -55 28 -55 43 0 53 12 48 56 -2 21 -5 42 -5 47
-1 4 -17 7 -36 7 l-35 0 0 -55z m53 30 c1 -5 -6 -11 -15 -13 -11 -2 -18 3 -18
13 0 17 30 18 33 0z m7 -50 c0 -8 -9 -15 -20 -15 -11 0 -20 7 -20 15 0 8 9 15
20 15 11 0 20 -7 20 -15z"/>
<path d="M6210 2910 c0 -27 5 -50 10 -50 6 0 10 15 10 33 l0 32 34 -40 33 -39
4 41 c6 58 -5 89 -15 43 l-7 -35 -20 33 c-31 48 -49 42 -49 -18z"/>
<path d="M6850 2911 c0 -56 17 -79 22 -29 l4 33 16 -35 16 -35 15 35 c16 34
16 34 17 8 0 -15 5 -30 10 -33 6 -4 10 15 10 49 0 43 -3 56 -15 56 -8 0 -15
-4 -15 -9 0 -5 -5 -22 -11 -38 l-11 -28 -13 35 c-6 19 -19 36 -28 38 -14 3
-17 -5 -17 -47z"/>
<path d="M4255 2643 c-21 -20 -21 -123 -1 -123 11 0 16 15 18 53 2 38 7 52 18
52 11 0 16 -14 18 -52 2 -38 7 -53 18 -53 10 0 14 14 14 55 0 42 3 55 15 55
12 0 15 -13 15 -55 0 -42 3 -55 15 -55 19 0 22 112 3 128 -20 15 -116 12 -133
-5z"/>
<path d="M4523 2634 c-14 -27 -4 -114 12 -114 9 0 15 16 18 43 l4 42 1 -42 c1
-31 6 -43 17 -43 10 0 15 10 15 34 0 19 5 38 10 41 6 4 10 -6 10 -24 0 -57 83
-79 96 -26 9 35 1 58 -23 71 -17 8 -20 13 -11 22 9 9 9 12 -1 12 -8 0 -19 -8
-26 -17 -16 -22 -84 -19 -101 5 -10 14 -12 14 -21 -4z m155 -67 c3 -22 -1 -27
-17 -27 -15 0 -21 6 -21 23 0 46 33 49 38 4z"/>
<path d="M1607 2626 c-94 -35 -164 -110 -188 -201 -26 -96 14 -222 92 -288
124 -107 317 -83 411 52 102 146 53 341 -107 423 -51 27 -156 34 -208 14z
m183 -76 c141 -72 162 -258 41 -362 -107 -91 -266 -60 -330 65 -96 189 102
392 289 297z"/>
<path d="M1636 2473 c-9 -10 -7 -231 2 -237 11 -7 162 104 162 119 0 6 -30 33
-67 61 -83 62 -89 65 -97 57z"/>
<path d="M2234 2611 c-59 -27 -109 -75 -138 -133 -35 -70 -37 -180 -4 -247 49
-101 148 -164 258 -164 248 0 376 288 211 475 -52 59 -121 88 -210 88 -52 0
-89 -6 -117 -19z m187 -43 c22 -6 57 -26 78 -45 129 -110 101 -307 -54 -379
-65 -31 -126 -31 -190 0 -60 28 -87 56 -114 116 -40 87 -22 180 49 250 64 65
143 85 231 58z"/>
<path d="M2262 2438 c-7 -7 -12 -42 -12 -88 0 -46 5 -81 12 -88 7 -7 42 -12
88 -12 46 0 81 5 88 12 7 7 12 44 12 94 0 65 -3 83 -16 88 -29 11 -160 6 -172
-6z"/>
<path d="M4424 2595 c-30 -46 13 -99 62 -76 13 6 24 17 24 26 0 17 -16 20 -25
5 -8 -12 -35 -13 -35 -1 0 5 14 14 30 20 32 11 37 20 18 39 -20 20 -56 14 -74
-13z m51 -5 c-3 -5 -11 -10 -16 -10 -6 0 -7 5 -4 10 3 6 11 10 16 10 6 0 7 -4
4 -10z"/>
<path d="M4727 2613 c-2 -5 -4 -26 -3 -47 1 -46 26 -64 26 -18 0 29 21 58 33
45 4 -3 7 -21 7 -40 0 -23 5 -33 15 -33 19 0 21 70 3 88 -13 13 -74 17 -81 5z"/>
<path d="M4842 2608 c-17 -17 -15 -63 3 -78 14 -12 14 -15 -1 -31 -16 -18 -58
-19 -874 -21 -709 -3 -860 -5 -873 -17 -12 -9 -17 -29 -17 -62 0 -44 3 -51 26
-59 16 -6 342 -10 860 -10 826 0 834 0 854 -20 38 -38 84 -60 125 -60 41 0 99
28 122 59 10 14 72 17 595 21 l583 5 3 64 c2 45 -1 67 -10 72 -7 5 -275 9
-594 9 -648 0 -611 -4 -605 69 5 66 40 65 41 -1 0 -16 5 -28 11 -28 6 0 9 19
7 48 l-3 47 -75 0 -75 0 -6 -40 c-5 -35 -6 -36 -8 -9 -1 37 -17 54 -51 54 -14
0 -31 -5 -38 -12z m56 -41 c3 -22 -1 -27 -17 -27 -15 0 -21 6 -21 23 0 46 33
49 38 4z m112 -8 c0 -24 -4 -30 -17 -27 -22 4 -29 34 -13 53 17 21 30 9 30
-26z"/>
<path d="M5125 2600 c-37 -41 11 -104 61 -81 50 23 34 101 -21 101 -12 0 -30
-9 -40 -20z m60 -20 c7 -23 -1 -40 -20 -40 -8 0 -17 5 -20 10 -9 15 4 50 20
50 8 0 16 -9 20 -20z"/>
<path d="M6772 2538 c-14 -14 -17 -364 -4 -386 7 -10 183 -12 848 -10 l839 3
0 200 0 200 -835 3 c-642 2 -839 -1 -848 -10z m325 -225 c-3 -10 -5 -2 -5 17
0 19 2 27 5 18 2 -10 2 -26 0 -35z m160 -5 c-3 -8 -6 -5 -6 6 -1 11 2 17 5 13
3 -3 4 -12 1 -19z"/>
<path d="M4081 2227 c-26 -13 -26 -32 2 -31 21 1 21 -14 2 -86 -20 -74 -19
-82 8 -78 19 3 25 16 45 92 13 48 21 94 18 102 -7 17 -43 18 -75 1z"/>
<path d="M4263 2220 c-40 -24 -63 -67 -63 -118 0 -50 24 -72 78 -72 29 0 49 7
70 25 23 20 41 25 81 25 50 0 51 -1 45 -25 -5 -21 -3 -25 16 -25 14 0 24 8 27
20 3 12 21 27 40 35 37 16 40 42 4 38 -24 -3 -25 6 -10 61 20 73 -10 68 -118
-20 l-33 -27 0 31 c0 21 -8 37 -26 51 -33 26 -70 27 -111 1z m85 -22 c19 -19
14 -62 -11 -99 -19 -28 -29 -34 -57 -34 -31 0 -35 3 -38 29 -9 72 65 145 106
104z m142 -67 c-6 -13 -21 -21 -35 -21 -34 0 -31 13 8 46 26 22 33 24 35 11 2
-9 -2 -25 -8 -36z"/>
<path d="M4896 2231 c-7 -10 -56 -185 -56 -197 0 -2 47 -4 104 -3 l104 2 9 31
c7 25 15 32 43 37 19 3 45 9 57 13 20 6 21 5 12 -31 -12 -53 -12 -53 15 -53
21 0 26 8 41 73 21 84 29 97 61 97 28 0 29 -7 9 -80 -21 -78 -20 -92 7 -88 19
2 26 15 41 73 21 78 31 95 58 95 28 0 31 -15 14 -79 -21 -81 -20 -93 7 -89 19
3 25 15 42 87 l20 83 -24 20 c-20 16 -33 19 -65 13 -46 -7 -47 -7 -98 1 -25 4
-45 1 -61 -9 -20 -14 -28 -14 -62 -2 -52 19 -109 19 -124 0 -9 -11 -16 -12
-26 -4 -19 16 -120 24 -128 10z m89 -41 c10 -17 -15 -40 -42 -40 -19 0 -24 4
-19 16 3 9 6 20 6 25 0 12 47 11 55 -1z m159 4 c36 -14 4 -54 -43 -54 -23 0
-24 3 -15 38 6 22 27 28 58 16z m-180 -80 c20 -8 20 -18 0 -38 -16 -16 -64
-22 -64 -8 1 44 24 61 64 46z"/>
<path d="M1000 1295 l0 -475 3815 0 3815 0 0 475 0 475 -3815 0 -3815 0 0
-475z m631 -65 c5 0 9 4 9 9 0 18 21 64 26 58 8 -8 -25 -107 -36 -107 -9 0
-41 86 -39 104 1 6 8 -6 16 -26 9 -21 20 -38 24 -38z m326 13 c1 -29 -3 -53
-8 -53 -5 0 -9 8 -9 18 0 10 -5 23 -12 30 -9 9 -9 12 0 12 7 0 12 9 12 20 0
14 -7 20 -21 20 -18 0 -21 -5 -17 -27 3 -16 2 -39 -2 -53 -6 -18 -8 -10 -9 33
l-1 58 32 -3 c32 -3 33 -4 35 -55z m313 2 c0 -30 -4 -55 -10 -55 -5 0 -10 25
-10 55 0 30 5 55 10 55 6 0 10 -25 10 -55z m240 0 c0 -30 -3 -55 -7 -55 -5 0
-7 17 -6 37 1 21 2 46 2 56 1 9 3 17 6 17 3 0 5 -25 5 -55z m-209 -15 l-9 -45
-1 55 c-1 35 2 51 9 44 6 -6 6 -26 1 -54z m-561 30 c8 -5 12 -11 10 -14 -3 -2
-14 2 -24 10 -22 15 -10 19 14 4z m308 -10 c4 -13 3 -13 -11 -2 -23 19 -40 5
-35 -29 5 -31 -6 -39 -16 -13 -9 24 -8 31 10 49 19 19 45 16 52 -5z m310 9
c-21 -12 -23 -39 -5 -58 10 -11 9 -13 -3 -9 -31 9 -19 79 14 78 6 0 3 -5 -6
-11z m52 -35 c0 -21 -5 -34 -13 -34 -9 0 -11 12 -9 40 5 48 22 43 22 -6z m58
35 c-20 -11 -25 -59 -6 -59 6 0 8 -3 5 -6 -10 -11 -37 16 -37 37 0 17 24 38
45 38 6 0 2 -4 -7 -10z m128 3 c26 -17 19 -72 -9 -72 -8 0 -8 3 1 9 19 12 11
55 -11 59 -23 5 -33 -25 -18 -50 10 -16 10 -19 -1 -16 -18 6 -22 46 -8 64 14
15 29 18 46 6z m-894 -37 c5 -40 -8 -48 -18 -11 -5 22 0 46 10 46 2 0 6 -16 8
-35z m87 23 c-1 -7 -5 -24 -9 -38 -7 -22 -8 -21 -9 13 -1 20 4 37 9 37 6 0 10
-6 9 -12z m301 -4 c0 -8 -4 -12 -10 -9 -5 3 -10 10 -10 16 0 5 5 9 10 9 6 0
10 -7 10 -16z m93 -46 c8 -5 6 -8 -5 -8 -14 0 -18 8 -17 38 2 34 2 34 6 7 3
-16 10 -33 16 -37z m47 27 c0 -23 -5 -35 -14 -35 -12 0 -12 6 -3 35 6 19 12
35 14 35 2 0 3 -16 3 -35z m425 7 c-8 -8 -25 10 -19 20 4 6 9 5 15 -3 4 -7 6
-15 4 -17z m-519 -13 c3 -6 2 -15 -4 -21 -6 -6 -11 -2 -15 11 -5 22 7 29 19
10z m562 -12 c2 -9 -2 -17 -8 -17 -6 0 -8 5 -4 11 3 6 0 16 -7 21 -12 8 -11 9
1 5 8 -2 16 -11 18 -20z m-648 -7 c0 -5 -5 -10 -11 -10 -5 0 -7 5 -4 10 3 6 8
10 11 10 2 0 4 -4 4 -10z m600 0 c0 -5 -2 -10 -4 -10 -3 0 -8 5 -11 10 -3 6
-1 10 4 10 6 0 11 -4 11 -10z"/>
<path d="M2530 576 c0 -140 2 -156 21 -180 24 -31 69 -36 69 -8 0 10 -9 25
-20 35 -18 15 -20 29 -20 162 l0 145 -25 0 -25 0 0 -154z"/>
<path d="M2672 571 c3 -140 5 -162 22 -180 25 -28 76 -29 76 -2 0 11 -9 22
-19 26 -27 8 -31 32 -31 183 l0 132 -26 0 -25 0 3 -159z"/>
<path d="M3220 677 l0 -52 -46 3 c-37 3 -50 0 -71 -19 -41 -39 -56 -77 -50
-133 3 -40 11 -55 36 -78 28 -25 37 -27 106 -26 l75 2 0 178 0 178 -25 0 c-23
0 -25 -3 -25 -53z m-16 -93 c13 -5 16 -22 16 -84 l0 -78 -30 -7 c-81 -18 -119
85 -57 153 21 22 42 27 71 16z"/>
<path d="M5887 716 c-50 -18 -67 -34 -88 -81 -40 -87 -14 -204 54 -245 36 -22
115 -27 166 -9 l31 11 0 84 0 84 -45 0 c-41 0 -45 -2 -45 -25 0 -18 5 -25 20
-25 17 0 20 -7 20 -40 0 -35 -4 -42 -26 -51 -32 -12 -83 3 -108 30 -24 27 -37
81 -30 124 13 79 88 126 152 94 29 -14 30 -13 41 10 10 22 8 25 -24 39 -42 17
-69 17 -118 0z"/>
<path d="M900 544 l0 -177 69 5 c124 9 171 59 171 182 0 121 -46 166 -170 166
l-70 0 0 -176z m159 101 c15 -15 25 -38 28 -68 10 -88 -35 -157 -103 -157
l-34 0 0 124 c0 90 3 126 13 129 22 10 72 -5 96 -28z"/>
<path d="M4560 546 l0 -176 25 0 c24 0 25 2 25 64 l0 63 49 6 c83 10 114 42
114 117 0 32 -7 48 -27 68 -23 24 -36 27 -106 30 l-80 4 0 -176z m112 124 c84
-24 54 -120 -38 -120 -23 0 -24 3 -24 58 0 77 1 78 62 62z"/>
<path d="M4910 545 l0 -175 100 0 100 0 0 25 c0 24 -2 25 -75 25 l-75 0 0 60
0 60 55 0 c48 0 55 2 55 20 0 18 -7 20 -55 20 l-55 0 0 45 0 44 78 3 c71 3 77
5 80 26 3 22 2 22 -102 22 l-106 0 0 -175z"/>
<path d="M5340 545 l0 -175 25 0 c24 0 25 2 25 75 0 73 1 75 24 75 20 0 34
-15 71 -75 41 -66 51 -75 76 -75 29 0 29 0 15 28 -8 15 -29 47 -45 72 -34 50
-38 65 -17 73 26 10 48 66 42 103 -11 55 -46 74 -137 74 l-79 0 0 -175z m148
113 c6 -6 12 -23 12 -38 0 -32 -15 -47 -50 -50 -58 -5 -60 -3 -60 49 0 30 5
51 13 54 16 7 69 -3 85 -15z"/>
<path d="M6431 663 c18 -32 43 -75 56 -95 19 -31 23 -51 23 -118 0 -79 0 -80
25 -80 24 0 25 2 25 76 0 73 2 78 55 170 30 53 55 98 55 100 0 3 -12 4 -27 2
-21 -2 -35 -16 -63 -65 -19 -34 -38 -64 -41 -67 -3 -3 -23 26 -45 64 -34 61
-43 70 -67 70 l-28 0 32 -57z"/>
<path d="M6813 708 c2 -7 31 -86 63 -175 43 -119 63 -163 75 -163 15 0 37 54
137 338 3 8 -6 12 -25 12 -28 0 -30 -3 -69 -122 l-40 -122 -43 122 c-42 119
-44 122 -73 122 -20 0 -29 -4 -25 -12z"/>
<path d="M7200 714 c0 -4 28 -82 62 -175 45 -122 67 -169 78 -169 12 0 33 46
76 167 32 91 61 170 62 175 2 4 -10 8 -26 8 -30 0 -31 -2 -69 -115 -20 -63
-40 -115 -43 -115 -3 0 -23 52 -44 115 -37 111 -40 115 -67 115 -16 0 -29 -3
-29 -6z"/>
<path d="M7650 718 c0 -2 -14 -75 -30 -163 -16 -88 -30 -166 -30 -172 0 -7 11
-13 23 -13 22 0 25 7 42 101 9 55 19 99 21 97 1 -2 18 -46 36 -98 19 -51 39
-95 45 -97 7 -3 25 37 44 96 18 55 35 99 36 97 2 -2 12 -46 21 -97 15 -83 20
-94 40 -97 29 -4 29 0 -9 191 -23 112 -36 157 -46 157 -7 0 -15 -6 -18 -12 -2
-7 -18 -60 -36 -118 l-32 -105 -39 118 c-26 76 -45 117 -54 117 -8 0 -14 -1
-14 -2z"/>
<path d="M8165 708 c-8 -28 -55 -295 -55 -317 0 -17 5 -22 22 -19 20 3 25 14
40 97 9 51 19 95 20 97 2 1 19 -42 38 -97 19 -54 39 -99 45 -99 6 0 26 48 45
106 19 58 35 102 37 97 1 -4 9 -52 18 -105 16 -92 19 -98 41 -98 31 0 31 1 -9
190 -23 108 -38 156 -48 158 -10 2 -24 -31 -49 -118 l-36 -121 -39 121 c-36
111 -58 145 -70 108z"/>
<path d="M1221 604 c-94 -79 -43 -235 77 -234 26 1 57 6 70 13 19 11 21 15 9
31 -11 15 -17 16 -35 7 -11 -6 -29 -11 -40 -11 -27 0 -72 38 -72 60 0 17 9 20
88 22 83 3 87 4 90 26 5 32 -16 79 -42 97 -35 25 -110 19 -145 -11z m119 -34
c33 -33 24 -40 -45 -40 -37 0 -65 4 -65 10 0 19 40 50 65 50 14 0 34 -9 45
-20z"/>
<path d="M1457 612 c-10 -10 -17 -33 -17 -50 0 -32 17 -50 79 -84 57 -32 28
-82 -34 -58 -31 12 -45 6 -45 -20 0 -22 19 -30 74 -30 62 0 88 22 84 73 -3 35
-9 45 -38 64 -68 43 -72 47 -64 66 7 18 25 19 73 6 19 -5 27 31 9 42 -25 16
-104 10 -121 -9z"/>
<path d="M1668 619 c-20 -11 -22 -18 -10 -37 7 -9 16 -10 41 -1 24 8 39 9 57
0 35 -16 31 -41 -6 -41 -60 0 -120 -48 -120 -96 0 -12 9 -33 21 -48 16 -20 29
-26 60 -26 22 0 50 5 61 11 14 8 23 8 31 0 6 -6 20 -11 30 -11 16 0 18 4 12
23 -4 12 -11 62 -14 110 -5 77 -9 91 -30 108 -26 21 -103 26 -133 8z m110
-156 c-2 -31 -8 -39 -31 -47 -29 -11 -57 -1 -65 22 -6 19 45 62 73 62 24 0 26
-3 23 -37z"/>
<path d="M1900 500 l0 -130 25 0 c25 0 25 1 25 80 0 78 13 128 34 132 6 1 22
2 35 2 15 1 27 9 32 24 8 20 6 22 -28 22 -20 0 -45 -7 -55 -17 -17 -15 -18
-15 -18 0 0 11 -8 17 -25 17 l-25 0 0 -130z"/>
<path d="M2090 500 l0 -130 25 0 c25 0 25 1 25 88 0 105 15 137 60 128 27 -5
40 6 40 35 0 12 -57 11 -81 -1 -13 -7 -19 -7 -19 0 0 5 -11 10 -25 10 l-25 0
0 -130z"/>
<path d="M2304 612 c-33 -26 -44 -55 -44 -112 0 -89 35 -129 113 -130 40 0 53
5 77 28 53 54 49 167 -7 212 -33 26 -109 27 -139 2z m109 -39 c27 -32 26 -114
-3 -143 -46 -46 -100 -9 -100 70 0 37 5 55 20 70 25 25 62 26 83 3z"/>
<path d="M2827 617 c-15 -10 -16 -15 -4 -31 11 -15 17 -17 35 -7 30 16 57 14
75 -7 24 -26 21 -32 -12 -32 -67 0 -121 -43 -121 -95 0 -60 73 -95 132 -64 14
8 23 8 31 0 16 -16 57 -14 57 3 0 8 -4 18 -10 21 -5 3 -10 40 -10 81 0 78 -16
126 -45 138 -29 11 -110 7 -128 -7z m123 -150 c0 -25 -6 -37 -24 -46 -37 -20
-70 -11 -74 21 -4 31 28 58 70 58 25 0 28 -4 28 -33z"/>
<path d="M3364 612 c-33 -26 -44 -55 -44 -112 0 -89 35 -129 113 -130 40 0 53
5 77 28 16 16 32 45 35 65 10 54 -3 106 -35 139 -24 23 -37 28 -77 28 -30 0
-56 -7 -69 -18z m109 -39 c28 -32 26 -114 -3 -143 -46 -46 -100 -9 -100 70 0
37 5 55 20 70 25 25 62 26 83 3z"/>
<path d="M3592 503 c3 -124 4 -128 26 -131 21 -3 22 -1 22 81 0 71 3 89 21
111 16 21 27 26 45 22 17 -5 26 -1 34 13 5 11 10 22 10 25 0 14 -75 5 -92 -11
-17 -15 -18 -15 -18 0 0 11 -8 17 -25 17 l-26 0 3 -127z"/>
<path d="M3808 607 c-35 -30 -48 -58 -48 -107 0 -49 20 -91 54 -114 30 -19
115 -21 140 -3 22 16 11 52 -13 41 -58 -25 -111 -7 -126 44 -6 22 -5 22 83 22
99 0 107 5 95 60 -14 73 -125 108 -185 57z m108 -25 c6 -4 16 -17 23 -29 12
-23 11 -23 -59 -23 -67 0 -70 1 -60 20 18 34 68 51 96 32z"/>
<path d="M4040 610 c-37 -37 -18 -88 46 -122 50 -26 61 -45 39 -67 -12 -13
-20 -13 -48 -3 -43 16 -44 16 -50 -8 -7 -26 19 -40 76 -40 33 0 49 6 65 23 43
45 23 100 -48 132 -31 14 -40 23 -38 39 3 22 35 27 69 12 20 -9 35 34 16 46
-26 16 -106 9 -127 -12z"/>
<path d="M4255 620 c-4 -6 -4 -22 -1 -36 5 -20 12 -25 34 -22 23 2 27 8 27 33
0 25 -4 31 -27 33 -14 2 -29 -2 -33 -8z"/>
<path d="M4253 424 c-9 -24 10 -49 38 -49 20 0 24 5 24 30 0 25 -4 30 -28 33
-18 2 -29 -2 -34 -14z"/>
<path d="M4751 421 c-13 -24 8 -55 34 -50 28 6 42 34 26 53 -18 22 -48 20 -60
-3z"/>
<path d="M5184 426 c-11 -28 1 -51 25 -51 28 0 47 25 38 49 -8 20 -56 21 -63
2z"/>
<path d="M5639 424 c-9 -11 -10 -20 -2 -32 15 -24 44 -27 59 -7 28 38 -27 75
-57 39z"/>
<path d="M6141 421 c-13 -24 8 -55 34 -50 28 6 42 34 26 53 -18 22 -48 20 -60
-3z"/>
<path d="M7074 426 c-11 -28 1 -51 25 -51 28 0 47 25 38 49 -8 20 -56 21 -63
2z"/>
<path d="M7461 421 c-13 -24 8 -55 34 -50 28 6 42 34 26 53 -18 22 -48 20 -60
-3z"/>
<path d="M7979 424 c-9 -11 -10 -20 -2 -32 15 -24 44 -27 59 -7 28 38 -27 75
-57 39z"/>
<path d="M8494 426 c-12 -31 0 -51 31 -51 27 0 30 3 30 30 0 25 -4 30 -28 33
-17 2 -29 -2 -33 -12z"/>
</g>
</svg>
